<svg xmlns="http://www.w3.org/2000/svg" xmlns:xlink="http://www.w3.org/1999/xlink" width="28" height="28" viewBox="0 0 28 28">
    <defs>
        <path id="wzwrc33lja" d="M15.25 0c1.243 0 2.25 1.007 2.25 2.25V3h1.255c1.435 0 2.648.995 2.74 2.306l.005.158v14.572c0 1.335-1.158 2.38-2.574 2.46l-.171.004H2.745c-1.435 0-2.648-.995-2.74-2.306L0 20.036V5.464c0-1.335 1.158-2.38 2.574-2.46L2.745 3H4v-.75C4 1.06 4.925.084 6.096.005L6.25 0C7.493 0 8.5 1.007 8.5 2.25V3.5H13V2.25c0-1.19.925-2.166 2.096-2.245zM20 11H1.5v9.036c0 .471.465.903 1.105.958l.14.006h16.01c.663 0 1.173-.4 1.238-.864l.007-.1V11zm-2.5-5.75c0 1.243-1.007 2.25-2.25 2.25S13 6.493 13 5.25V5H8.5v.25c0 1.19-.925 2.166-2.096 2.245L6.25 7.5C5.007 7.5 4 6.493 4 5.25V4.5H2.745c-.663 0-1.173.4-1.238.864l-.007.1V9.5H20V5.464c0-.471-.465-.903-1.105-.958l-.14-.006H17.5zM6.25 1.5c-.414 0-.75.336-.75.75v3c0 .414.336.75.75.75S7 5.664 7 5.25v-3c0-.414-.336-.75-.75-.75zm9 0c-.414 0-.75.336-.75.75v3c0 .414.336.75.75.75s.75-.336.75-.75V3.99c-.026-.076-.04-.156-.04-.24 0-.084.014-.164.04-.24V2.25c0-.414-.336-.75-.75-.75z"/>
    </defs>
    <g fill="none" fill-rule="evenodd">
        <g>
            <g>
                <g>
                    <g transform="translate(-728.000000, -372.000000) translate(614.000000, 361.000000) translate(114.000000, 11.000000) translate(3.250000, 2.250000)">
                        <mask id="ixj7v7wcdb" fill="#fff">
                            <use xlink:href="#wzwrc33lja"/>
                        </mask>
                        <use fill="#000" fill-rule="nonzero" xlink:href="#wzwrc33lja"/>
                        <g fill="#DF032E" mask="url(#ixj7v7wcdb)">
                            <path d="M0 0H28V28H0z" transform="translate(-3.250000, -2.250000)"/>
                        </g>
                    </g>
                </g>
            </g>
        </g>
    </g>
</svg>
