<?xml version="1.0" encoding="utf-8"?>
<!-- Generator: Adobe Illustrator 24.3.0, SVG Export Plug-In . SVG Version: 6.00 Build 0)  -->
<svg version="1.1" id="圖層_1" xmlns="http://www.w3.org/2000/svg" xmlns:xlink="http://www.w3.org/1999/xlink" x="0px" y="0px"
	 viewBox="0 0 25 25" style="enable-background:new 0 0 25 25;" xml:space="preserve">
<style type="text/css">
	.st0{filter:url(#Adobe_OpacityMaskFilter);}
	.st1{fill-rule:evenodd;clip-rule:evenodd;fill:#FFFFFF;}
	.st2{mask:url(#edit-copy-7-b_1_);}
	.st3{fill-rule:evenodd;clip-rule:evenodd;fill:#BE0E31;}
</style>
<g transform="translate(4.688 4.688)">
	<g>
		<path id="edit-copy-7-a_1_" d="M15.4,0.2c0.2,0.2,0.3,0.6,0.1,0.9l-0.1,0.1L8.8,7.8l6.7,6.7c0.2,0.2,0.3,0.6,0.1,0.9l-0.1,0.1
			c-0.2,0.2-0.6,0.3-0.9,0.1l-0.1-0.1L7.8,8.8l-6.7,6.7c-0.3,0.3-0.7,0.3-0.9,0c-0.2-0.2-0.3-0.6-0.1-0.9l0.1-0.1l6.7-6.7L0.2,1.1
			C0,0.9-0.1,0.5,0.1,0.3l0.1-0.1C0.4,0,0.8-0.1,1.1,0.1l0.1,0.1l6.7,6.7l6.7-6.7C14.7-0.1,15.2-0.1,15.4,0.2z"/>
	</g>
	<defs>
		<filter id="Adobe_OpacityMaskFilter" filterUnits="userSpaceOnUse" x="-4.7" y="-4.7" width="25" height="25">
			<feColorMatrix  type="matrix" values="1 0 0 0 0  0 1 0 0 0  0 0 1 0 0  0 0 0 1 0"/>
		</filter>
	</defs>
	<mask maskUnits="userSpaceOnUse" x="-4.7" y="-4.7" width="25" height="25" id="edit-copy-7-b_1_">
		<g class="st0">
			<path id="edit-copy-7-a_2_" class="st1" d="M15.4,0.2c0.2,0.2,0.3,0.6,0.1,0.9l-0.1,0.1L8.8,7.8l6.7,6.7c0.2,0.2,0.3,0.6,0.1,0.9
				l-0.1,0.1c-0.2,0.2-0.6,0.3-0.9,0.1l-0.1-0.1L7.8,8.8l-6.7,6.7c-0.3,0.3-0.7,0.3-0.9,0c-0.2-0.2-0.3-0.6-0.1-0.9l0.1-0.1l6.7-6.7
				L0.2,1.1C0,0.9-0.1,0.5,0.1,0.3l0.1-0.1C0.4,0,0.8-0.1,1.1,0.1l0.1,0.1l6.7,6.7l6.7-6.7C14.7-0.1,15.2-0.1,15.4,0.2z"/>
		</g>
	</mask>
	<g class="st2">
		<rect x="-4.7" y="-4.7" class="st3" width="25" height="25"/>
	</g>
</g>
</svg>
