<?xml version="1.0" encoding="utf-8"?>
<!-- Generator: Adobe Illustrator 24.3.0, SVG Export Plug-In . SVG Version: 6.00 Build 0)  -->
<svg version="1.1" id="圖層_1" xmlns="http://www.w3.org/2000/svg" xmlns:xlink="http://www.w3.org/1999/xlink" x="0px" y="0px"
	 viewBox="0 0 25 25" style="enable-background:new 0 0 25 25;" xml:space="preserve">
<style type="text/css">
	.st0{fill-rule:evenodd;clip-rule:evenodd;fill:#BE0E31;}
</style>
<path class="st0" d="M10.3,7.9l6.7,4.2l-4.5,7.6l-6.7-4.2L10.3,7.9z M12.6,4l6.7,4.2l-1.8,3l-6.7-4.2L12.6,4z M5.7,16.7l5.6,3.5
	l-4.9,1.7L5.7,16.7z M4.5,15.9l1,6.9c0,0.2,0.1,0.3,0.2,0.4c0.1,0.1,0.2,0.1,0.3,0.1c0.1,0,0.1,0,0.2,0l6.4-2.3c0,0,0.1,0,0.1,0
	c0.1,0,0.2-0.1,0.2-0.1c0,0,0,0,0,0c0,0,0.1,0,0.1-0.1l7.4-12.5c0.1-0.1,0.1-0.3,0.1-0.4c0-0.1-0.1-0.3-0.2-0.3l-7.6-4.7
	c-0.3-0.2-0.6-0.1-0.7,0.2L4.5,15.4c0,0,0,0.1,0,0.1c0,0,0,0,0,0C4.5,15.6,4.5,15.7,4.5,15.9L4.5,15.9z"/>
</svg>
