<svg xmlns="http://www.w3.org/2000/svg" width="25" height="25" viewBox="0 0 25 25">
  <path fill="#999" fill-rule="evenodd" d="M5.78797157,5.1943765 L12.4840966,9.3514938 L7.94640101,16.971176 L1.25027593,12.8140587 L5.78797157,5.1943765 Z M8.11508033,1.28539456 L14.8123151,5.44137883 L13.0345239,8.4269346 L6.33839882,4.26981729 L8.11508033,1.28539456 Z M1.23362995,14.069465 L6.86330223,17.563755 L1.99268688,19.2701106 L1.23362995,14.069465 Z M0.0306800664,13.1754979 L1.03720732,20.0723016 C1.0605117,20.23206 1.15150975,20.3725568 1.28578737,20.4552686 C1.37012703,20.5085214 1.46445428,20.5357143 1.561001,20.5357143 C1.61981681,20.5357143 1.67752289,20.5255169 1.73411924,20.5051223 L8.17389615,18.2492431 C8.20052972,18.2481101 8.22494384,18.2481101 8.25046768,18.2413118 C8.3436852,18.217518 8.42025673,18.1631322 8.48795041,18.097416 C8.4946088,18.0906178 8.49904773,18.0826865 8.50681586,18.0758883 C8.53122997,18.0486953 8.55897328,18.0271676 8.57783873,17.9954425 L15.9941801,5.54221924 C16.0674224,5.41985111 16.0896171,5.2714231 16.0563251,5.13205939 C16.0230332,4.99269569 15.936474,4.87259364 15.8155132,4.79781311 L8.21384651,0.0787088361 C7.96193727,-0.0765174029 7.63678568,0.00506135044 7.48364262,0.259994955 L0.0695206991,12.7132183 C0.0506552489,12.7449433 0.0451065871,12.7800675 0.0328995311,12.8129256 C0.0317897988,12.823123 0.0251314046,12.8333203 0.0229119398,12.8446507 C-0.010380031,12.9568215 -0.00705083396,13.0701253 0.0306800664,13.1754979 L0.0306800664,13.1754979 Z" transform="translate(4.464 2.679)"/>
</svg>
