<svg xmlns="http://www.w3.org/2000/svg" xmlns:xlink="http://www.w3.org/1999/xlink" width="28" height="28" viewBox="0 0 28 28">
  <defs>
    <path id="my-love-a" d="M6.432,1.5 C3.805,1.5 1.5,3.976 1.5,6.798 C1.5,13.352 9.596,18.309 11.381,19.322 C13.167,18.309 21.262,13.352 21.262,6.798 C21.262,3.976 18.957,1.5 16.33,1.5 C14.552,1.5 12.906,2.463 12.035,4.013 C11.769,4.486 10.993,4.486 10.727,4.014 C9.856,2.463 8.21,1.5 6.432,1.5 M11.381,20.928 C11.263,20.928 11.145,20.9 11.036,20.844 C10.586,20.611 0,15.042 0,6.798 C0,3.113 2.946,0 6.432,0 C8.362,0 10.173,0.87 11.381,2.327 C12.589,0.87 14.4,0 16.33,0 C19.816,0 22.762,3.113 22.762,6.798 C22.762,15.042 12.177,20.611 11.726,20.844 C11.618,20.9 11.499,20.928 11.381,20.928"/>
  </defs>
  <g fill="none" fill-rule="evenodd" transform="translate(3 4)">
    <mask id="my-love-b" fill="#fff">
      <use xlink:href="#my-love-a"/>
    </mask>
    <use fill="#666" xlink:href="#my-love-a"/>
    <g fill="#BE0E31" mask="url(#my-love-b)">
      <rect width="28" height="28" transform="translate(-3 -4)"/>
    </g>
  </g>
</svg>
