<svg enable-background="new 0 0 30 30" viewBox="0 0 30 30" xmlns="http://www.w3.org/2000/svg"><g fill="#333"><path d="m14.9 15.9h.2c1.6 0 3-.6 3.9-1.7 2.2-2.4 1.8-6.5 1.8-6.9-.1-3-1.5-4.4-2.7-5-.9-.5-1.9-.8-3-.8h-.1c-.6 0-1.8.1-3 .8s-2.6 2.1-2.7 5.1c0 .4-.4 4.5 1.8 6.9.8 1 2.2 1.6 3.8 1.6zm-4.2-8.4c0-.1 0-.1 0 0 .2-4 3-4.5 4.3-4.5 1.5 0 4.1.6 4.2 4.4s.4 3.8-1.4 5.8c-.7.8-1.6 1.2-2.9 1.2h.1c-1.2 0-2.2-.4-2.9-1.2-1.8-1.9-1.4-5.7-1.4-5.7z"/><path d="m25.2 17.2h-3.1v-3.1c0-.4-.3-.7-.7-.7h-.2c-.4 0-.7.3-.7.7v3.1h-3.1c-.4 0-.7.3-.7.7v.2c0 .4.3.7.7.7h3.1v3.1c0 .4.3.7.7.7h.2c.4 0 .7-.3.7-.7v-3.1h3.1c.4 0 .7-.3.7-.7v-.2c0-.4-.3-.7-.7-.7z"/><path d="m26.5 22.9c0-.1 0-.1 0-.2 0-.7-.1-1.9-.6-3h-2.1c1 .6 1.2 1.8 1.2 3v.1c0 .5 0 1.3-.1 1.7-.9.7-4.5 2.5-9.9 2.5s-9-1.8-9.9-2.3c-.1-.5-.1-1.2-.1-1.8v-.1c0-1.3.2-2.7 1.5-3.1 2.8-.7 5-2.3 5.1-2.3.3-.2.4-.7.2-1.1-.2-.3-.7-.4-1.1-.2 0 0-2.1 1.5-4.6 2.1 0 0 0 0-.1 0-2.4.8-2.5 3.4-2.5 4.5v.1c0 .3 0 1.8.3 2.5.1.1.2.3.3.4.2.1 4.2 2.7 10.9 2.7s10.8-2.6 10.9-2.7.2-.2.3-.4c.3-.6.3-2.1.3-2.4z"/></g></svg>