<svg height="50" viewBox="0 0 50 50" width="50" xmlns="http://www.w3.org/2000/svg" xmlns:xlink="http://www.w3.org/1999/xlink"><mask id="a" fill="#fff"><path d="m38.235 17.923h-9.064l7.519-7.519-1.689-1.69-9.209 9.209h-5.479v-5.48l9.208-9.209-1.689-1.689-7.519 7.519v-9.064h-2.39v9.064l-7.519-7.519-1.69 1.689 9.209 9.209v5.48h-5.48l-9.208-9.209-1.69 1.69 7.519 7.519h-9.064v2.39h9.064l-7.519 7.519 1.69 1.689 9.208-9.208h5.48v5.479l-9.209 9.209 1.69 1.69 7.519-7.52v9.064h2.39v-9.064l7.519 7.52 1.689-1.69-9.208-9.209v-5.479h5.479l9.209 9.208 1.689-1.689-7.519-7.519h9.064z" fill="#fff" fill-rule="evenodd"/></mask><path d="m-5.882-5.882h50v50h-50z" fill="#ccc" fill-rule="evenodd" mask="url(#a)" transform="translate(5.882353 5.882353)"/></svg>