<?xml version="1.0" encoding="utf-8"?>
<!-- Generator: Adobe Illustrator 24.3.0, SVG Export Plug-In . SVG Version: 6.00 Build 0)  -->
<svg version="1.1" id="圖層_1" xmlns="http://www.w3.org/2000/svg" xmlns:xlink="http://www.w3.org/1999/xlink" x="0px" y="0px"
	 viewBox="0 0 25 25" style="enable-background:new 0 0 25 25;" xml:space="preserve">
<style type="text/css">
	.st0{filter:url(#Adobe_OpacityMaskFilter);}
	.st1{fill-rule:evenodd;clip-rule:evenodd;fill:#FFFFFF;}
	.st2{mask:url(#eu6gld3bib_1_);}
	.st3{fill-rule:evenodd;clip-rule:evenodd;fill:#BE0E31;}
</style>
<g>
	<g>
		<g>
			<g transform="translate(-1185.000000, -563.000000) translate(1185.000000, 563.000000) translate(2.008929, 2.901786)">
				<g>
					<path id="td62xpfaya_1_" d="M2.9,0c0.3,0,0.6,0.2,0.7,0.5l0,0.1l0.2,3h8.5c0.4,0,0.7,0.3,0.7,0.7c0,0.3-0.3,0.6-0.6,0.7l-0.1,0
						l-8.4,0l0.5,6.7L18,10.7l0.2-0.8c0.1-0.4,0.5-0.6,0.8-0.5c0.3,0.1,0.5,0.4,0.5,0.7l0,0.1l-0.3,1.3c-0.1,0.3-0.3,0.4-0.5,0.5
						l-0.1,0L4.7,12.9c0.4,0.8,1.2,1.3,2.2,1.4l0.2,0h8.8c1.4,0,2.5,1.1,2.5,2.5s-1.1,2.5-2.5,2.5s-2.5-1.1-2.5-2.5
						c0-0.4,0.1-0.8,0.3-1.1H8.2c0.2,0.3,0.3,0.7,0.3,1.1c0,1.4-1.1,2.5-2.5,2.5c-1.4,0-2.5-1.1-2.5-2.5c0-0.8,0.4-1.5,1-2
						c-0.8-0.6-1.4-1.6-1.5-2.7l0-0.2L2.3,1.3H0.7C0.3,1.3,0.1,1.1,0,0.8l0-0.1C0,0.3,0.3,0,0.6,0l0.1,0H2.9z M15.8,15.6
						c-0.6,0-1.1,0.5-1.1,1.1s0.5,1.1,1.1,1.1c0.6,0,1.1-0.5,1.1-1.1S16.5,15.6,15.8,15.6z M6,15.6c-0.6,0-1.1,0.5-1.1,1.1
						s0.5,1.1,1.1,1.1s1.1-0.5,1.1-1.1S6.6,15.6,6,15.6z M18.1,0.9c0.3,0,0.6,0.3,0.7,0.6l0,0.1l0,2h2c0.4,0,0.7,0.3,0.7,0.7
						c0,0.3-0.3,0.6-0.6,0.7l-0.1,0l-2,0l0,2c0,0.4-0.3,0.7-0.7,0.7c-0.3,0-0.6-0.3-0.7-0.6l0-0.1l0-2h-2c-0.4,0-0.7-0.3-0.7-0.7
						c0-0.3,0.3-0.6,0.6-0.7l0.1,0h2v-2C17.4,1.2,17.7,0.9,18.1,0.9L18.1,0.9z"/>
				</g>
				<defs>
					<filter id="Adobe_OpacityMaskFilter" filterUnits="userSpaceOnUse" x="-13.4" y="-14.3" width="48.2" height="48.2">
						<feColorMatrix  type="matrix" values="1 0 0 0 0  0 1 0 0 0  0 0 1 0 0  0 0 0 1 0"/>
					</filter>
				</defs>
				<mask maskUnits="userSpaceOnUse" x="-13.4" y="-14.3" width="48.2" height="48.2" id="eu6gld3bib_1_">
					<g class="st0">
						<path id="td62xpfaya_2_" class="st1" d="M2.9,0c0.3,0,0.6,0.2,0.7,0.5l0,0.1l0.2,3h8.5c0.4,0,0.7,0.3,0.7,0.7
							c0,0.3-0.3,0.6-0.6,0.7l-0.1,0l-8.4,0l0.5,6.7L18,10.7l0.2-0.8c0.1-0.4,0.5-0.6,0.8-0.5c0.3,0.1,0.5,0.4,0.5,0.7l0,0.1
							l-0.3,1.3c-0.1,0.3-0.3,0.4-0.5,0.5l-0.1,0L4.7,12.9c0.4,0.8,1.2,1.3,2.2,1.4l0.2,0h8.8c1.4,0,2.5,1.1,2.5,2.5
							s-1.1,2.5-2.5,2.5s-2.5-1.1-2.5-2.5c0-0.4,0.1-0.8,0.3-1.1H8.2c0.2,0.3,0.3,0.7,0.3,1.1c0,1.4-1.1,2.5-2.5,2.5
							c-1.4,0-2.5-1.1-2.5-2.5c0-0.8,0.4-1.5,1-2c-0.8-0.6-1.4-1.6-1.5-2.7l0-0.2L2.3,1.3H0.7C0.3,1.3,0.1,1.1,0,0.8l0-0.1
							C0,0.3,0.3,0,0.6,0l0.1,0H2.9z M15.8,15.6c-0.6,0-1.1,0.5-1.1,1.1s0.5,1.1,1.1,1.1c0.6,0,1.1-0.5,1.1-1.1S16.5,15.6,15.8,15.6
							z M6,15.6c-0.6,0-1.1,0.5-1.1,1.1s0.5,1.1,1.1,1.1s1.1-0.5,1.1-1.1S6.6,15.6,6,15.6z M18.1,0.9c0.3,0,0.6,0.3,0.7,0.6l0,0.1
							l0,2h2c0.4,0,0.7,0.3,0.7,0.7c0,0.3-0.3,0.6-0.6,0.7l-0.1,0l-2,0l0,2c0,0.4-0.3,0.7-0.7,0.7c-0.3,0-0.6-0.3-0.7-0.6l0-0.1l0-2
							h-2c-0.4,0-0.7-0.3-0.7-0.7c0-0.3,0.3-0.6,0.6-0.7l0.1,0h2v-2C17.4,1.2,17.7,0.9,18.1,0.9L18.1,0.9z"/>
					</g>
				</mask>
				<g class="st2">
					<path class="st3" d="M-13.4-14.3h48.2v48.2h-48.2V-14.3z"/>
				</g>
			</g>
		</g>
	</g>
</g>
</svg>
