<svg xmlns="http://www.w3.org/2000/svg" xmlns:xlink="http://www.w3.org/1999/xlink" width="25" height="25" viewBox="0 0 25 25">
    <defs>
        <path id="g66fue03ea" d="M2.881 0c.319 0 .588.223.655.526l.013.094.222 2.951h8.506c.37 0 .67.3.67.67 0 .34-.252.62-.58.664l-.09.006L3.87 4.91l.502 6.679 13.639-.861.2-.801c.088-.36.452-.578.81-.489.33.082.54.394.505.722l-.016.09-.317 1.277c-.063.252-.264.442-.512.494l-.096.013-13.871.877c.431.78 1.24 1.315 2.172 1.37l.16.005h8.801c1.356 0 2.456 1.099 2.456 2.455s-1.1 2.455-2.456 2.455c-1.356 0-2.455-1.099-2.455-2.455 0-.402.096-.781.267-1.116H8.215c.17.335.267.714.267 1.116 0 1.356-1.1 2.455-2.455 2.455-1.356 0-2.456-1.099-2.456-2.455 0-.81.393-1.53.999-1.976-.807-.634-1.365-1.574-1.497-2.655l-.018-.188L2.26 1.339H.67c-.34 0-.62-.252-.664-.578L0 .67C0 .33.252.05.579.006L.669 0h2.212zm12.967 15.625c-.616 0-1.116.5-1.116 1.116 0 .616.5 1.116 1.116 1.116.617 0 1.116-.5 1.116-1.116 0-.616-.5-1.116-1.116-1.116zm-9.821 0c-.617 0-1.116.5-1.116 1.116 0 .616.5 1.116 1.116 1.116.616 0 1.116-.5 1.116-1.116 0-.616-.5-1.116-1.116-1.116zM18.08.893c.34 0 .62.252.664.579l.006.09-.001 2.009h2.01c.37 0 .67.3.67.67 0 .34-.252.62-.58.664l-.09.006-2.01-.001.001 2.01c0 .37-.3.67-.67.67-.339 0-.619-.253-.663-.58l-.006-.09-.001-2.01h-2.008c-.37 0-.67-.3-.67-.669 0-.339.252-.62.579-.663l.09-.007h2.009V1.562c0-.37.3-.67.67-.67z"/>
    </defs>
    <g fill="none" fill-rule="evenodd">
        <g>
            <g>
                <g transform="translate(-1185.000000, -613.000000) translate(1185.000000, 613.000000) translate(2.008929, 2.901786)">
                    <mask id="w3ecpx575b" fill="#fff">
                        <use xlink:href="#g66fue03ea"/>
                    </mask>
                    <use fill="#000" fill-rule="nonzero" xlink:href="#g66fue03ea"/>
                    <g fill="#999" mask="url(#w3ecpx575b)">
                        <path d="M0 0H48.214V48.214H0z" transform="translate(-13.392857, -14.285714)"/>
                    </g>
                </g>
            </g>
        </g>
    </g>
</svg>
