<svg enable-background="new 0 0 30 30" viewBox="0 0 30 30" xmlns="http://www.w3.org/2000/svg"><path d="m19.5 3.8c1.2 0 2.2 1 2.2 2.2v.8h1.3c1.4 0 2.6 1 2.7 2.3v.2 14.6c0 1.3-1.2 2.4-2.6 2.5h-.2-15.9c-1.4 0-2.6-1-2.7-2.3v-.2-14.7c0-1.3 1.2-2.4 2.6-2.5h.2 1.3v-.7c0-1.2.9-2.2 2.1-2.2h.2c1.2 0 2.2 1 2.2 2.2v1.2h4.5v-1.2c0-1.2.9-2.2 2.1-2.2zm4.7 11h-18.4v9c0 .5.5.9 1.1 1h.1 16c.7 0 1.2-.4 1.2-.9v-.1zm-2.4-5.8c0 1.2-1 2.2-2.2 2.2s-2.2-1-2.2-2.2v-.2h-4.5v.2c0 1.2-.9 2.2-2.1 2.2h-.2c-1.2 0-2.2-1-2.2-2.2v-.8h-1.4c-.7 0-1.2.4-1.2.9v.1 4h18.5v-4c0-.5-.5-.9-1.1-1h-.1-1.3zm-11.3-3.8c-.4 0-.8.3-.8.8v3c0 .4.3.8.8.8s.8-.3.8-.8v-3c-.1-.4-.4-.8-.8-.8zm9 0c-.4 0-.8.3-.8.8v3c0 .4.3.8.8.8s.8-.3.8-.8v-1.3c0-.1 0-.2 0-.2s0-.2 0-.2v-1.3c-.1-.4-.4-.8-.8-.8z" fill="#333"/></svg>