<svg xmlns="http://www.w3.org/2000/svg" xmlns:xlink="http://www.w3.org/1999/xlink" width="25" height="25" viewBox="0 0 25 25">
  <defs>
    <path id="edit-copy-9-a" d="M15.4288661,0.196133852 C15.6666042,0.433871854 15.6882167,0.805892999 15.4937038,1.06804612 L15.4288661,1.14315186 L8.75982143,7.8125 L15.4288661,14.4818481 C15.6666042,14.7195861 15.6882167,15.0916073 15.4937038,15.3537604 L15.4288661,15.4288661 C15.1911281,15.6666042 14.819107,15.6882167 14.5569539,15.4937038 L14.4818481,15.4288661 L7.812,8.76 L1.14315186,15.4288661 C0.88164006,15.690378 0.457645654,15.690378 0.196133852,15.4288661 C-0.0416041504,15.1911281 -0.0632166961,14.819107 0.131296215,14.5569539 L0.196133852,14.4818481 L6.86517857,7.8125 L0.196133852,1.14315186 C-0.0416041504,0.90541386 -0.0632166961,0.533392715 0.131296215,0.271239596 L0.196133852,0.196133852 C0.433871854,-0.0416041504 0.805892999,-0.0632166961 1.06804612,0.131296215 L1.14315186,0.196133852 L7.812,6.864 L14.4818481,0.196133852 C14.7433599,-0.0653779506 15.1673543,-0.0653779506 15.4288661,0.196133852 Z"/>
  </defs>
  <g fill="none" fill-rule="evenodd" transform="translate(4.688 4.688)">
    <mask id="edit-copy-9-b" fill="#fff">
      <use xlink:href="#edit-copy-9-a"/>
    </mask>
    <use fill="#000" fill-rule="nonzero" xlink:href="#edit-copy-9-a"/>
    <g fill="#999" mask="url(#edit-copy-9-b)">
      <rect width="25" height="25" transform="translate(-4.688 -4.688)"/>
    </g>
  </g>
</svg>
