<svg xmlns="http://www.w3.org/2000/svg" width="25" height="25" viewBox="0 0 25 25">
  <g fill="#999" fill-rule="evenodd" transform="translate(3.571 3.571)">
    <path d="M7.27583333,3.87820578 C7.63,3.87820578 7.920625,4.1374915 7.9675,4.47394558 L7.97375,4.56757653 L7.97270833,6.63363095 L10.0664583,6.63465986 C10.451875,6.63465986 10.764375,6.94333333 10.764375,7.3230017 C10.764375,7.67283163 10.501875,7.95989796 10.16125,8.00619898 L10.0664583,8.01237245 L7.97270833,8.01134354 L7.97375,10.0794558 C7.97375,10.4591241 7.66125,10.7677976 7.27583333,10.7677976 C6.92270833,10.7677976 6.63104167,10.5085119 6.58520833,10.1730867 L6.57895833,10.0794558 L6.57791667,8.01134354 L4.48625,8.01237245 C4.10083333,8.01237245 3.78833333,7.70369898 3.78833333,7.3230017 C3.78833333,6.97420068 4.05083333,6.68610544 4.39145833,6.64083333 L4.48625,6.63465986 L6.57791667,6.63363095 L6.57895833,4.56757653 C6.57895833,4.18687925 6.89145833,3.87820578 7.27583333,3.87820578"/>
    <path d="M18.1573958,17.001767 L12.9303125,11.8376599 C13.9428125,10.602966 14.5521875,9.03284694 14.5521875,7.32279592 C14.5521875,3.36045748 11.2876042,0.135848639 7.27614583,0.135848639 C3.2646875,0.135848639 0.000104166667,3.36045748 0.000104166667,7.32279592 C0.000104166667,11.2861633 3.2646875,14.5107721 7.27614583,14.5107721 C9.00739583,14.5107721 10.5959375,13.9078299 11.8469792,12.9077279 L17.0751042,18.071835 C17.2240625,18.2189694 17.4198958,18.293051 17.6157292,18.293051 C17.8126042,18.293051 18.0084375,18.2189694 18.1573958,18.071835 C18.4573958,17.7755085 18.4573958,17.2980935 18.1573958,17.001767 M7.27614583,12.9972432 C4.1084375,12.9972432 1.53135417,10.4527449 1.53135417,7.32279592 C1.53135417,4.19387585 4.1084375,1.64937755 7.27614583,1.64937755 C10.4448958,1.64937755 13.0198958,4.19387585 13.0198958,7.32279592 C13.0198958,10.4527449 10.4448958,12.9972432 7.27614583,12.9972432"/>
  </g>
</svg>
