<svg enable-background="new 0 0 30 30" viewBox="0 0 30 30" xmlns="http://www.w3.org/2000/svg"><path clip-rule="evenodd" d="m25.8 14.9-2.1-2.4c.1-.1.3-.2.4-.3.2-.1.3-.3.3-.6 0-.2-.1-.4-.2-.6-.3-.3-.8-.4-1.1-.1-4.6 4-11.3 3.9-15.9-.1-.2-.1-.4-.2-.6-.2s-.4.1-.6.3c-.1.2-.2.4-.2.6s.1.4.3.6c.1.1.3.3.5.4l-2.2 2.5c-.1.2-.2.4-.2.6s.1.4.3.6c.1.1.3.2.5.2s.5-.1.6-.3l2.3-2.7c.4.3.9.5 1.4.8l-1.7 2.8c-.2.4-.1.9.3 1.1.1.1.3.1.4.1.3 0 .6-.2.7-.4l1.7-3.1c.6.2 1.3.4 1.9.5l-.4 3.3c0 .2 0 .4.2.6.1.2.3.3.5.3h.1c.4 0 .8-.3.8-.7l.4-3.3h.8.1.7l.4 3.3c.1.4.4.7.8.7h.1c.2 0 .4-.1.5-.3s.2-.4.2-.6l-.4-3.3c.7-.1 1.3-.3 1.9-.5l1.6 3c.1.3.4.4.7.4.1 0 .3 0 .4-.1.4-.2.5-.7.3-1.1l-1.5-2.9c.5-.2 1-.5 1.4-.8l2.2 2.6c.2.2.4.3.6.3s.4-.1.5-.2c.2-.1.3-.3.3-.6.2 0 .1-.2 0-.4" fill="#be0e31" fill-rule="evenodd"/></svg>