<?xml version="1.0" encoding="utf-8"?>
<!-- Generator: Adobe Illustrator 25.2.1, SVG Export Plug-In . SVG Version: 6.00 Build 0)  -->
<svg version="1.1" id="Layer_1" xmlns="http://www.w3.org/2000/svg" xmlns:xlink="http://www.w3.org/1999/xlink" x="0px" y="0px"
	 viewBox="0 0 30 30" style="enable-background:new 0 0 30 30;" xml:space="preserve">
<style type="text/css">
	.st0{fill-rule:evenodd;clip-rule:evenodd;fill:#BE0E31;}
</style>
<g>
	<path class="st0" d="M15,12.1c1.6,0,2.9,1.3,2.9,2.9s-1.3,2.9-2.9,2.9s-2.9-1.3-2.9-2.9S13.4,12.1,15,12.1 M15,19.5
		c2.5,0,4.5-2,4.5-4.5s-2-4.5-4.5-4.5s-4.5,2-4.5,4.5S12.5,19.5,15,19.5"/>
	<path class="st0" d="M15,9.1c4.4,0,8.5,2.3,10.8,5.9c-2.3,3.7-6.4,5.9-10.8,5.9S6.5,18.7,4.2,15C6.5,11.3,10.6,9.1,15,9.1
		 M27.4,14.6c-2.5-4.4-7.3-7.1-12.4-7.1s-9.9,2.7-12.4,7.1c-0.1,0.2-0.1,0.5,0,0.8c2.5,4.4,7.3,7.1,12.4,7.1s9.9-2.7,12.4-7.1
		C27.5,15.1,27.5,14.9,27.4,14.6"/>
</g>
</svg>
