<svg enable-background="new 0 0 30 30" viewBox="0 0 30 30" xmlns="http://www.w3.org/2000/svg"><g clip-rule="evenodd" fill="#333" fill-rule="evenodd"><path d="m15 4.3c-5.9 0-10.7 4.8-10.7 10.7s4.8 10.7 10.7 10.7 10.7-4.8 10.7-10.7-4.8-10.7-10.7-10.7m0 22.7c-3.2 0-6.2-1.2-8.5-3.5s-3.5-5.3-3.5-8.5 1.2-6.2 3.5-8.5 5.3-3.5 8.5-3.5 6.2 1.2 8.5 3.5 3.5 5.3 3.5 8.5-1.2 6.2-3.5 8.5-5.3 3.5-8.5 3.5"/><path d="m13.7 19.8c0-.4.1-.7.3-.9s.5-.3.8-.3.6.1.8.3.3.5.3.9-.1.6-.3.9c-.2.2-.5.3-.9.3s-.6-.1-.9-.3c0-.3-.1-.6-.1-.9zm.2-2.5c0-.8.1-1.4.2-1.8.2-.4.5-.9.9-1.3s.7-.8.9-1.1c.1-.3.2-.6.2-.9 0-.9-.4-1.4-1.1-1.4-.4 0-.6.1-.9.4-.2.2-.3.6-.3 1h-2.1c0-1 .3-1.8.9-2.4.6-.5 1.4-.8 2.4-.8s1.8.3 2.4.8c.6.6.9 1.3.9 2.3 0 .5-.1.9-.3 1.3s-.5.9-1 1.4l-.6.6c-.4.4-.6.9-.6 1.4v.5z"/></g></svg>