<?xml version="1.0" encoding="utf-8"?>
<!-- Generator: Adobe Illustrator 25.2.1, SVG Export Plug-In . SVG Version: 6.00 Build 0)  -->
<svg version="1.1" id="Layer_1" xmlns="http://www.w3.org/2000/svg" xmlns:xlink="http://www.w3.org/1999/xlink" x="0px" y="0px"
	 viewBox="0 0 30 30" style="enable-background:new 0 0 30 30;" xml:space="preserve">
<style type="text/css">
	.st0{fill-rule:evenodd;clip-rule:evenodd;fill:#BE0E31;}
</style>
<g>
	<path class="st0" d="M15,4.3C9.1,4.3,4.3,9.1,4.3,15S9.1,25.7,15,25.7S25.7,20.9,25.7,15S20.9,4.3,15,4.3 M15,27
		c-3.2,0-6.2-1.2-8.5-3.5S3,18.2,3,15s1.2-6.2,3.5-8.5S11.8,3,15,3s6.2,1.2,8.5,3.5S27,11.8,27,15s-1.2,6.2-3.5,8.5S18.2,27,15,27"
		/>
	<path class="st0" d="M13.7,19.8c0-0.4,0.1-0.7,0.3-0.9s0.5-0.3,0.8-0.3s0.6,0.1,0.8,0.3s0.3,0.5,0.3,0.9s-0.1,0.6-0.3,0.9
		c-0.2,0.2-0.5,0.3-0.9,0.3s-0.6-0.1-0.9-0.3C13.8,20.4,13.7,20.1,13.7,19.8z M13.9,17.3c0-0.8,0.1-1.4,0.2-1.8
		c0.2-0.4,0.5-0.9,0.9-1.3s0.7-0.8,0.9-1.1c0.1-0.3,0.2-0.6,0.2-0.9c0-0.9-0.4-1.4-1.1-1.4c-0.4,0-0.6,0.1-0.9,0.4
		c-0.2,0.2-0.3,0.6-0.3,1h-2.1c0-1,0.3-1.8,0.9-2.4C13.2,9.3,14,9,15,9s1.8,0.3,2.4,0.8c0.6,0.6,0.9,1.3,0.9,2.3
		c0,0.5-0.1,0.9-0.3,1.3s-0.5,0.9-1,1.4l-0.6,0.6c-0.4,0.4-0.6,0.9-0.6,1.4v0.5H13.9z"/>
</g>
</svg>
