<svg xmlns="http://www.w3.org/2000/svg" xmlns:xlink="http://www.w3.org/1999/xlink" width="28" height="28" viewBox="0 0 28 28">
  <defs>
    <path id="my-discount-a" d="M18.75,0 C19.1642073,0 19.5000889,0.335776691 19.5000889,0.749984009 L19.5000889,0.749984009 L19.5000889,4.92065829 C19.5000889,5.2385356 19.2997118,5.52189024 19,5.62781211 C18.1084753,5.94288948 17.5,6.78867506 17.5,7.75 C17.5,8.71132494 18.1084753,9.55711052 19,9.87218789 C19.2997086,9.97810861 19.5000889,10.2614584 19.5000889,10.5793323 L19.5000889,10.5793323 L19.5000889,20.7500066 C19.5000889,21.1642176 19.164211,21.5 18.75,21.5 L18.75,21.5 L0.75,21.5 C0.335762471,21.5 0,21.1641762 0,20.7499386 L0,20.7499386 L0.000832264203,10.5789386 C0.000858265401,10.26118 0.201123984,9.97792485 0.500688033,9.87194422 C1.39186076,9.55666256 2,8.7110598 2,7.75 C2,6.7889402 1.39186076,5.94333744 0.500688033,5.62805578 C0.201154527,5.52208595 0.000895674181,5.23887583 0.000832276622,4.92114966 L0.000832276622,4.92114966 L0,0.750149651 C0,0.335877654 0.335727994,0 0.75,0 L0.75,0 Z M18,1.5 L1.499,1.5 L1.5,4.434 L1.53494551,4.45111549 C2.66762222,5.06416875 3.42518183,6.23061576 3.49476194,7.55085986 L3.49476194,7.55085986 L3.5,7.75 C3.5,9.15135606 2.72425606,10.4051786 1.53494551,11.0488845 L1.53494551,11.0488845 L1.5,11.065 L1.499,20 L18,20 L18,11.067 L17.9659875,11.0493902 C16.8328296,10.4364919 16.0748591,9.26979791 16.0052409,7.9491948 L16.0052409,7.9491948 L16,7.75 C16,6.34825597 16.7761717,5.09415305 17.9659875,4.45060985 L17.9659875,4.45060985 L18,4.432 L18,1.5 Z M6.25,7 C6.66421356,7 7,7.33578644 7,7.75 C7,8.12969577 6.71784612,8.44349096 6.35177056,8.49315338 L6.25,8.5 L5.25,8.5 C4.83578644,8.5 4.5,8.16421356 4.5,7.75 C4.5,7.37030423 4.78215388,7.05650904 5.14822944,7.00684662 L5.25,7 L6.25,7 Z M10.25,7 C10.6642136,7 11,7.33578644 11,7.75 C11,8.12969577 10.7178461,8.44349096 10.3517706,8.49315338 L10.25,8.5 L9.25,8.5 C8.83578644,8.5 8.5,8.16421356 8.5,7.75 C8.5,7.37030423 8.78215388,7.05650904 9.14822944,7.00684662 L9.25,7 L10.25,7 Z M14.25,7 C14.6642136,7 15,7.33578644 15,7.75 C15,8.12969577 14.7178461,8.44349096 14.3517706,8.49315338 L14.25,8.5 L13.25,8.5 C12.8357864,8.5 12.5,8.16421356 12.5,7.75 C12.5,7.37030423 12.7821539,7.05650904 13.1482294,7.00684662 L13.25,7 L14.25,7 Z"/>
  </defs>
  <g fill="none" fill-rule="evenodd" transform="translate(4.25 3.25)">
    <mask id="my-discount-b" fill="#fff">
      <use xlink:href="#my-discount-a"/>
    </mask>
    <use fill="#000" fill-rule="nonzero" xlink:href="#my-discount-a"/>
    <g fill="#BE0E31" mask="url(#my-discount-b)">
      <rect width="28" height="28" transform="translate(-4.25 -3.25)"/>
    </g>
  </g>
</svg>
