<svg xmlns="http://www.w3.org/2000/svg" xmlns:xlink="http://www.w3.org/1999/xlink" width="28" height="28" viewBox="0 0 28 28">
  <defs>
    <path id="my-order-a" d="M10.141,13.911 C10.141,14.325 9.805,14.661 9.391,14.661 L4.607,14.661 C4.193,14.661 3.857,14.325 3.857,13.911 C3.857,13.497 4.193,13.161 4.607,13.161 L9.391,13.161 C9.805,13.161 10.141,13.497 10.141,13.911 L10.141,13.911 Z M10.141,10.323 C10.141,10.737 9.805,11.073 9.391,11.073 L4.607,11.073 C4.193,11.073 3.857,10.737 3.857,10.323 C3.857,9.909 4.193,9.573 4.607,9.573 L9.391,9.573 C9.805,9.573 10.141,9.909 10.141,10.323 L10.141,10.323 Z M10.141,6.735 C10.141,7.149 9.805,7.485 9.391,7.485 L4.607,7.485 C4.193,7.485 3.857,7.149 3.857,6.735 C3.857,6.321 4.193,5.985 4.607,5.985 L9.391,5.985 C9.805,5.985 10.141,6.321 10.141,6.735 L10.141,6.735 Z M1.5,19.138 L1.5,1.5 L11.96,1.5 L11.96,6.731 C11.96,7.145 12.296,7.481 12.71,7.481 L17.941,7.481 L17.941,19.138 L1.5,19.138 Z M16.88,5.981 L13.46,5.981 L13.46,2.561 L16.88,5.981 Z M19.432,6.683 C19.427,6.618 19.414,6.554 19.393,6.491 C19.385,6.467 19.378,6.443 19.368,6.42 C19.331,6.341 19.286,6.265 19.221,6.201 L13.241,0.22 C13.177,0.156 13.101,0.11 13.021,0.074 C12.997,0.063 12.974,0.056 12.949,0.048 C12.887,0.027 12.824,0.015 12.759,0.01 C12.742,0.009 12.727,0 12.71,0 L0.75,0 C0.336,0 0,0.336 0,0.75 L0,19.888 C0,20.302 0.336,20.638 0.75,20.638 L18.691,20.638 C19.105,20.638 19.441,20.302 19.441,19.888 L19.441,6.731 C19.441,6.714 19.433,6.7 19.432,6.683 L19.432,6.683 Z"/>
  </defs>
  <g fill="none" fill-rule="evenodd" transform="translate(4 4)">
    <mask id="my-order-b" fill="#fff">
      <use xlink:href="#my-order-a"/>
    </mask>
    <use fill="#666" xlink:href="#my-order-a"/>
    <g fill="#BE0E31" mask="url(#my-order-b)">
      <rect width="28" height="28" transform="translate(-4 -4)"/>
    </g>
  </g>
</svg>
