<svg xmlns="http://www.w3.org/2000/svg" xmlns:xlink="http://www.w3.org/1999/xlink" width="28" height="28" viewBox="0 0 28 28">
  <defs>
    <path id="user-info-a" d="M5.94075253,10.4013436 C6.27138135,10.650858 6.33713755,11.121157 6.08762311,11.4517859 C5.62192988,12.0688708 5.06952095,12.5640481 4.4195537,12.9859409 C4.14176499,13.1662532 3.86111012,13.3249236 3.53472316,13.4907392 L2.38270559,14.0518627 C2.1116118,14.1944701 1.96962338,14.2997441 1.92337824,14.3685159 C1.74735653,14.6302805 1.62385722,15.0575879 1.55912516,15.6167459 C1.54709846,15.7206331 1.53738978,15.8208406 1.52959179,15.9230721 L1.51152252,16.2415423 L1.50247328,16.6063783 L1.5,16.924 L1.62291382,17.0160098 L1.70797768,17.0694236 C2.02283682,17.2568402 2.51415826,17.4496812 3.13509637,17.6207954 C4.46296956,17.9867222 6.21832765,18.2155991 8.15134609,18.2464288 L8.60046729,18.25 C10.7100223,18.25 12.6358209,18.0148704 14.0658382,17.6207954 C14.6867763,17.4496812 15.1780978,17.2568402 15.4929569,17.0694236 L15.4929569,17.0694236 L15.5780208,17.0160098 L15.6474963,16.9669334 L15.7004019,16.923 L15.6984613,16.6063783 L15.6894121,16.2415423 C15.6872201,16.1855508 15.6846523,16.1314911 15.6816577,16.0786504 L15.6816577,16.0786504 L15.6581619,15.7705299 L15.6418094,15.6167459 C15.5770774,15.0575879 15.453578,14.6302805 15.2775563,14.3685159 C15.2313112,14.2997441 15.0893228,14.1944701 14.818229,14.0518627 L14.818229,14.0518627 L14.7695975,14.0269386 L13.6662114,13.4907392 C13.3398245,13.3249236 13.0591696,13.1662532 12.7813809,12.9859409 C12.1314136,12.5640481 11.5790047,12.0688708 11.1133115,11.4517859 C10.863797,11.121157 10.9295532,10.650858 11.260182,10.4013436 C11.5908109,10.1518291 12.0611099,10.2175853 12.3106244,10.5482141 C12.6646116,11.0172788 13.0874821,11.3963383 13.5980659,11.7277575 C13.8858837,11.9145796 14.1871554,12.078679 14.5763741,12.2680035 L14.5763741,12.2680035 L15.4652145,12.6979211 L15.7098595,12.8303667 C16.0775771,13.0416412 16.3344151,13.252083 16.5223035,13.5314947 C16.8575115,14.0299877 17.0420513,14.6684948 17.1318578,15.4442475 L17.1318578,15.4442475 L17.1665985,15.8012258 C17.1757353,15.9187732 17.182596,16.0370204 17.1876828,16.1624028 L17.1876828,16.1624028 L17.1981238,16.5663907 L17.2009346,17.0518017 C17.2009346,18.0772587 15.6553957,18.8821417 13.3324258,19.337 L13.3324258,19.337 L12.8409703,19.4260717 C12.7572962,19.4400704 12.6727607,19.4536423 12.5873953,19.4667821 L12.5873953,19.4667821 L12.0654954,19.5403929 C11.888377,19.5631731 11.7081909,19.5841822 11.5251889,19.603378 L11.5251889,19.603378 L10.9679876,19.6554825 C10.7796059,19.671009 10.5886604,19.6846795 10.395403,19.6964518 L10.395403,19.6964518 L9.80894696,19.7260309 C9.71013231,19.7299975 9.61080267,19.7334788 9.51098954,19.7364696 L9.51098954,19.7364696 L8.90656074,19.748486 L8.60046729,19.75 L8.60046729,19.75 L8.29437384,19.748486 L7.68994504,19.7364696 L7.39198762,19.7260309 L7.39198762,19.7260309 L6.80553158,19.6964518 C6.61227416,19.6846795 6.42132865,19.671009 6.23294701,19.6554825 L5.67574564,19.603378 C5.49274368,19.5841822 5.31255754,19.5631731 5.13543917,19.5403929 L4.61353932,19.4667821 C1.88184525,19.0463088 0,18.1833405 0,17.0518017 L0.00281075061,16.5663907 C0.00383136448,16.4933467 0.00516990457,16.4236953 0.00688914362,16.3566321 L0.0222751475,15.9788762 C0.0327545252,15.7990921 0.0477901031,15.6281223 0.0690767454,15.4442475 C0.158883319,14.6684948 0.343423042,14.0299877 0.678631126,13.5314947 C0.897834241,13.2055144 1.2108854,12.9734098 1.68436802,12.7243369 L2.18757554,12.4767753 L2.62682974,12.2667735 C3.01377917,12.078679 3.31505084,11.9145796 3.60286868,11.7277575 C4.1134525,11.3963383 4.53632295,11.0172788 4.89031023,10.5482141 C5.13982467,10.2175853 5.61012371,10.1518291 5.94075253,10.4013436 Z M8.60046729,0 C10.768314,0 12.5257009,1.75738696 12.5257009,3.92523364 L12.5257009,5.91093291 C12.5257009,7.40334046 11.7918906,8.8003387 10.5630841,9.64728311 C9.38141726,10.4617369 7.81951732,10.4617369 6.63785047,9.64728311 C5.40904394,8.8003387 4.67523364,7.40334046 4.67523364,5.91093291 L4.67523364,3.92523364 C4.67523364,1.75738696 6.43262061,0 8.60046729,0 Z M8.60046729,1.5 C7.31462452,1.5 6.26250454,2.50068626 6.18039229,3.76577387 L6.17523364,3.92523364 L6.17523364,5.91093291 C6.17523364,6.9100222 6.6664815,7.84523992 7.4891036,8.41222518 C8.15824167,8.87342288 9.04269291,8.87342288 9.71183098,8.41222518 C10.4796116,7.88303893 10.9587284,7.03308131 11.0191983,6.10980896 L11.0257009,5.91093291 L11.0257009,3.92523364 C11.0257009,2.58581409 9.93988685,1.5 8.60046729,1.5 Z M18.8060748,6.75 C19.2202883,6.75 19.5560748,7.08578644 19.5560748,7.5 C19.5560748,7.87969577 19.2739209,8.19349096 18.9078453,8.24315338 L18.8060748,8.25 L14.8808411,8.25 C14.4666276,8.25 14.1308411,7.91421356 14.1308411,7.5 C14.1308411,7.12030423 14.412995,6.80650904 14.7790706,6.75684662 L14.8808411,6.75 L18.8060748,6.75 Z M21.75,3.75 C22.1642136,3.75 22.5,4.08578644 22.5,4.5 C22.5,4.87969577 22.2178461,5.19349096 21.8517706,5.24315338 L21.75,5.25 L14.8808411,5.25 C14.4666276,5.25 14.1308411,4.91421356 14.1308411,4.5 C14.1308411,4.12030423 14.412995,3.80650904 14.7790706,3.75684662 L14.8808411,3.75 L21.75,3.75 Z M21.75,0.75 C22.1642136,0.75 22.5,1.08578644 22.5,1.5 C22.5,1.87969577 22.2178461,2.19349096 21.8517706,2.24315338 L21.75,2.25 L14.8808411,2.25 C14.4666276,2.25 14.1308411,1.91421356 14.1308411,1.5 C14.1308411,1.12030423 14.412995,0.806509039 14.7790706,0.756846616 L14.8808411,0.75 L21.75,0.75 Z"/>
  </defs>
  <g fill="none" fill-rule="evenodd" transform="translate(3 4)">
    <mask id="user-info-b" fill="#fff">
      <use xlink:href="#user-info-a"/>
    </mask>
    <use fill="#000" fill-rule="nonzero" xlink:href="#user-info-a"/>
    <g fill="#666" mask="url(#user-info-b)">
      <rect width="28" height="28" transform="translate(-2.75 -5)"/>
    </g>
  </g>
</svg>
