<svg xmlns="http://www.w3.org/2000/svg" xmlns:xlink="http://www.w3.org/1999/xlink" width="28" height="28" viewBox="0 0 28 28">
  <defs>
    <path id="notice-a" d="M6.409,6.87329269 L14.022,1.79029269 C15.843,4.45029269 16.813,7.54629269 16.813,10.7992927 C16.813,14.0512927 15.843,17.1462927 14.022,19.8082927 L6.409,14.7252927 L6.409,6.87329269 Z M1.5,14.3752927 L4.909,14.3752927 L4.909,7.22229269 L1.5,7.22229269 L1.5,14.3752927 Z M18.313,10.7992927 C18.313,7.01129269 17.121,3.41129269 14.87,0.379292688 C14.862,0.364292688 14.862,0.348292688 14.852,0.333292688 C14.621,-0.0107073117 14.156,-0.103707312 13.812,0.126292688 L5.432,5.72229269 L0.75,5.72229269 C0.336,5.72229269 0,6.05829269 0,6.47229269 L0,15.1252927 C0,15.5402927 0.336,15.8752927 0.75,15.8752927 L5.432,15.8752927 L13.812,21.4712927 C13.94,21.5562927 14.084,21.5972927 14.228,21.5972927 C14.47,21.5972927 14.707,21.4802927 14.852,21.2642927 C14.861,21.2502927 14.862,21.2352927 14.869,21.2212927 C17.121,18.1882927 18.313,14.5872927 18.313,10.7992927 L18.313,10.7992927 Z"/>
  </defs>
  <g fill="none" fill-rule="evenodd" transform="translate(5 3)">
    <mask id="notice-b" fill="#fff">
      <use xlink:href="#notice-a"/>
    </mask>
    <use fill="#666" xlink:href="#notice-a"/>
    <g fill="#BE0E31" mask="url(#notice-b)">
      <rect width="28" height="28" transform="translate(-5 -3)"/>
    </g>
  </g>
</svg>
