<svg xmlns="http://www.w3.org/2000/svg" xmlns:xlink="http://www.w3.org/1999/xlink" width="28" height="28" viewBox="0 0 28 28">
  <defs>
    <path id="address-a" d="M10.85775,10.855625 C9.81975,11.894625 8.12875,11.895625 7.08875,10.855625 C6.05075,9.81762501 6.05075,8.12762501 7.08875,7.08962501 C7.60775,6.57062501 8.29075,6.31162501 8.97275,6.31162501 C9.65575,6.31162501 10.33775,6.57062501 10.85775,7.08962501 C11.89475,8.12862501 11.89475,9.81762501 10.85775,10.855625 M11.91875,6.02862501 C10.29375,4.40662501 7.65175,4.40562501 6.02875,6.02862501 C4.40575,7.65162501 4.40575,10.293625 6.02875,11.916625 C6.83975,12.728625 7.90575,13.133625 8.97275,13.133625 C10.03975,13.133625 11.10675,12.728625 11.91875,11.916625 C13.53975,10.293625 13.53975,7.65262501 11.91875,6.02962501 C11.91875,6.02862501 11.91875,6.02862501 11.91875,6.02862501 M14.26075,14.260625 L8.97275,19.546625 L3.68575,14.260625 C0.77075,11.345625 0.77075,6.60062501 3.68575,3.68562501 C5.14375,2.22762501 7.05875,1.49862501 8.97375,1.49862501 C10.88775,1.49862501 12.80275,2.22762501 14.26075,3.68562501 C17.17475,6.60062501 17.17475,11.345625 14.26075,14.260625 M15.32175,2.62462501 C11.82075,-0.875374987 6.12575,-0.874374987 2.62575,2.62462501 C-0.87525,6.12562501 -0.87525,11.820625 2.62575,15.321625 L8.44175,21.137625 C8.58875,21.284625 8.78075,21.357625 8.97275,21.357625 C9.16475,21.357625 9.35675,21.284625 9.50275,21.137625 L15.32175,15.321625 C18.82075,11.820625 18.82075,6.12562501 15.32175,2.62462501"/>
  </defs>
  <g fill="none" fill-rule="evenodd" transform="translate(5 3)">
    <mask id="address-b" fill="#fff">
      <use xlink:href="#address-a"/>
    </mask>
    <use fill="#666" xlink:href="#address-a"/>
    <g fill="#BE0E31" mask="url(#address-b)">
      <rect width="28" height="28" transform="translate(-5 -3)"/>
    </g>
  </g>
</svg>
