<?xml version="1.0" encoding="utf-8"?>
<!-- Generator: Adobe Illustrator 25.2.1, SVG Export Plug-In . SVG Version: 6.00 Build 0)  -->
<svg version="1.1" id="Layer_1" xmlns="http://www.w3.org/2000/svg" xmlns:xlink="http://www.w3.org/1999/xlink" x="0px" y="0px"
	 viewBox="0 0 30 30" style="enable-background:new 0 0 30 30;" xml:space="preserve">
<style type="text/css">
	.st0{fill:#BE0E31;}
</style>
<path class="st0" d="M10.8,15.4c0.3-0.2,0.9-0.1,1.1,0.2s0.1,0.8-0.2,1.2L11.5,17l-0.3,0.2L11,17.3c-0.6,0.4-1.1,0.6-1.7,1
	c-0.9,0.5-1.8,0.8-2.7,1.1c-1.1,0.4-1.3,1.3-1.5,3.3V23v0.2v0.5v0.4v0.5c0.8,0.5,1.9,1,3.3,1.4c2,0.6,4.2,1,6.6,1s4.6-0.4,6.6-1
	c1.3-0.5,2.5-1,3.3-1.3c0.1-0.4,0.1-1.2,0.1-1.8v-0.1c0-1.9-0.3-2.8-1.5-3.3c-1.2-0.4-2.5-0.8-3.6-1.4c-0.1,0-0.1-0.1-0.2-0.1
	l-0.3-0.5L19,17.2L18.6,17c0,0-0.1,0-0.1-0.1h-0.1c-0.3-0.2-0.4-0.8-0.2-1.2c0.2-0.4,0.8-0.5,1.1-0.2c0.8,0.6,2.7,1.7,4.6,2.2
	l0.2,0.1c1,0.5,1.7,1.3,2,2.4c0.2,0.7,0.2,1.3,0.3,2.3v0.1v0.6c0,0.8-0.1,1.7-0.2,2.2c-0.1,0.1-0.1,0.2-0.3,0.4
	c-0.3,0.2-0.7,0.4-1.1,0.6l-0.4,0.2c-0.4,0-0.8,0.3-1.4,0.4c-2.4,0.8-5,1.4-8,1.4S9.4,28,7.2,27.1c-0.3-0.1-0.8-0.2-1-0.4l-0.4-0.2
	l-0.4-0.2C5.2,26.2,5.1,26.2,5,26l-0.4-0.1c-0.1-0.1-0.2-0.1-0.3-0.2S4.1,25.5,4,25.3c-0.2-0.5-0.3-1.4-0.3-2.4v-0.2v-0.1
	c0-1,0.1-1.6,0.3-2.3c0.2-1.3,1-2.1,2.1-2.6l0.3-0.1c0.9-0.2,1.9-0.7,2.7-1.1l0.4-0.2c0.1,0,0.1-0.1,0.2-0.1L10,16l0.3-0.2
	C10.6,15.5,10.6,15.5,10.8,15.4z M15.1,1.7c1,0,1.9,0.2,2.7,0.7c1.3,0.8,2.2,2.4,2.4,4.8c0.1,0.6,0.1,1.6,0,2.7
	c-0.2,1.7-0.7,3-1.5,4.1c-0.8,1-1.9,1.6-3.3,1.7h-0.2h-0.1c-1.5,0-2.6-0.6-3.5-1.7c-0.8-1.1-1.3-2.4-1.5-4.1C10,8.8,10,8,10.1,7.2
	c0.1-2.4,1-4,2.5-4.9c0.8-0.5,1.6-0.7,2.4-0.7L15.1,1.7z M15.1,3.4H15c-1.9,0-3.3,1.1-3.5,3.9v0.4v0.1V8v0.2v0.4V9v0.4v0.4
	c0.1,1.4,0.4,2.7,1.1,3.4c0.6,0.7,1.2,1.1,2.2,1.1H15c1,0,1.8-0.4,2.5-1.1c0.7-0.8,1-2.1,1.1-3.4c0-0.1,0-0.2,0-0.4V8.9V8.5V8.4V8.2
	V7.9V7.8C18.5,4.6,17.1,3.4,15.1,3.4z"/>
</svg>
