<?xml version="1.0" encoding="utf-8"?>
<!-- Generator: Adobe Illustrator 24.3.0, SVG Export Plug-In . SVG Version: 6.00 Build 0)  -->
<svg version="1.1" id="圖層_1" xmlns="http://www.w3.org/2000/svg" xmlns:xlink="http://www.w3.org/1999/xlink" x="0px" y="0px"
	 viewBox="0 0 20 20" style="enable-background:new 0 0 20 20;" xml:space="preserve">
<style type="text/css">
	.st0{filter:url(#Adobe_OpacityMaskFilter);}
	.st1{fill-rule:evenodd;clip-rule:evenodd;fill:#FFFFFF;}
	.st2{mask:url(#kxtjp7d4nb_1_);}
	.st3{fill-rule:evenodd;clip-rule:evenodd;fill:#BE0E31;}
</style>
<g transform="translate(-425.000000, -342.000000) translate(425.000000, 342.000000) translate(1.428571, 1.428571)">
	<g>
		<path id="strlvil9ga_1_" d="M8.6,0c4.7,0,8.6,3.8,8.6,8.6c0,4.7-3.8,8.6-8.6,8.6C3.8,17.1,0,13.3,0,8.6C0,3.8,3.8,0,8.6,0z
			 M8.6,1.1c-4.1,0-7.5,3.4-7.5,7.5c0,4.1,3.4,7.5,7.5,7.5c4.1,0,7.5-3.4,7.5-7.5C16.1,4.4,12.7,1.1,8.6,1.1z M8.6,11.4
			c0.4,0,0.7,0.3,0.7,0.6l0,0.1v0.4c0,0.4-0.3,0.7-0.7,0.7c-0.4,0-0.7-0.3-0.7-0.6l0-0.1v-0.4C7.9,11.7,8.2,11.4,8.6,11.4z M8.6,3.6
			c0.4,0,0.7,0.3,0.7,0.6l0,0.1v5C9.3,9.7,9,10,8.6,10c-0.4,0-0.7-0.3-0.7-0.6l0-0.1v-5C7.9,3.9,8.2,3.6,8.6,3.6z"/>
	</g>
	<defs>
		<filter id="Adobe_OpacityMaskFilter" filterUnits="userSpaceOnUse" x="-10.7" y="-10.7" width="38.6" height="38.6">
			<feColorMatrix  type="matrix" values="1 0 0 0 0  0 1 0 0 0  0 0 1 0 0  0 0 0 1 0"/>
		</filter>
	</defs>
	<mask maskUnits="userSpaceOnUse" x="-10.7" y="-10.7" width="38.6" height="38.6" id="kxtjp7d4nb_1_">
		<g class="st0">
			<path id="strlvil9ga_2_" class="st1" d="M8.6,0c4.7,0,8.6,3.8,8.6,8.6c0,4.7-3.8,8.6-8.6,8.6C3.8,17.1,0,13.3,0,8.6
				C0,3.8,3.8,0,8.6,0z M8.6,1.1c-4.1,0-7.5,3.4-7.5,7.5c0,4.1,3.4,7.5,7.5,7.5c4.1,0,7.5-3.4,7.5-7.5C16.1,4.4,12.7,1.1,8.6,1.1z
				 M8.6,11.4c0.4,0,0.7,0.3,0.7,0.6l0,0.1v0.4c0,0.4-0.3,0.7-0.7,0.7c-0.4,0-0.7-0.3-0.7-0.6l0-0.1v-0.4
				C7.9,11.7,8.2,11.4,8.6,11.4z M8.6,3.6c0.4,0,0.7,0.3,0.7,0.6l0,0.1v5C9.3,9.7,9,10,8.6,10c-0.4,0-0.7-0.3-0.7-0.6l0-0.1v-5
				C7.9,3.9,8.2,3.6,8.6,3.6z"/>
		</g>
	</mask>
	<g class="st2">
		<path class="st3" d="M-10.7-10.7h38.6v38.6h-38.6V-10.7z"/>
	</g>
</g>
</svg>
