<svg xmlns="http://www.w3.org/2000/svg" width="25" height="25" viewBox="0 0 25 25">
  <path fill="#999" fill-rule="evenodd" d="M3.90840983,7.5610709 C5.41212903,7.5610709 6.63442593,8.77555423 6.63442593,10.2673359 C6.63442593,11.7591176 5.41212903,12.9736009 3.90840983,12.9736009 C2.40469063,12.9736009 1.18134365,11.7591176 1.18134365,10.2673359 C1.18134365,8.77555423 2.40469063,7.5610709 3.90840983,7.5610709 M15.7354974,1.17278433 C17.2381665,1.17278433 18.4615135,2.38622519 18.4615135,3.87800686 C18.4615135,5.36978853 17.2381665,6.58427186 15.7354974,6.58427186 C14.2328283,6.58427186 13.0094813,5.36978853 13.0094813,3.87800686 C13.0094813,2.38622519 14.2328283,1.17278433 15.7354974,1.17278433 M15.7354974,13.9503999 C17.2381665,13.9503999 18.4615135,15.1648833 18.4615135,16.6577074 C18.4615135,18.1484466 17.2381665,19.36293 15.7354974,19.36293 C14.2328283,19.36293 13.0094813,18.1484466 13.0094813,16.6577074 C13.0094813,15.1648833 14.2328283,13.9503999 15.7354974,13.9503999 M3.90840983,14.1463852 C5.17376014,14.1463852 6.29839929,13.5417498 7.01350598,12.6118621 L12.0644064,15.3410615 C11.9142445,15.7528392 11.8281376,16.1948485 11.8281376,16.6577074 C11.8281376,18.7958236 13.5807266,20.5357143 15.7354974,20.5357143 C17.8892181,20.5357143 19.6428571,18.7958236 19.6428571,16.6577074 C19.6428571,14.5175063 17.8892181,12.7776156 15.7354974,12.7776156 C14.469097,12.7776156 13.3434078,13.3812086 12.6304012,14.3121388 L7.57845076,11.5829393 C7.72966275,11.1711617 7.81576958,10.7301948 7.81576958,10.2673359 C7.81576958,9.8055195 7.72966275,9.36351011 7.57950085,8.9517325 L12.6304012,6.22357553 C13.3444579,7.15346319 14.469097,7.7570562 15.7354974,7.7570562 C17.8892181,7.7570562 19.6428571,6.01716548 19.6428571,3.87800686 C19.6428571,1.73989071 17.8892181,0 15.7354974,0 C13.5807266,0 11.8281376,1.73989071 11.8281376,3.87800686 C11.8281376,4.34086574 11.9142445,4.78183265 12.0644064,5.19361026 L7.01350598,7.92280971 C6.29839929,6.99292205 5.17376014,6.38828657 3.90840983,6.38828657 C1.75363902,6.38828657 0,8.12817728 0,10.2673359 C0,12.4054521 1.75363902,14.1463852 3.90840983,14.1463852" transform="translate(2.679 2.679)"/>
</svg>
