<?xml version="1.0" encoding="utf-8"?>
<!-- Generator: Adobe Illustrator 24.3.0, SVG Export Plug-In . SVG Version: 6.00 Build 0)  -->
<svg version="1.1" id="圖層_1" xmlns="http://www.w3.org/2000/svg" xmlns:xlink="http://www.w3.org/1999/xlink" x="0px" y="0px"
	 viewBox="0 0 25 25" style="enable-background:new 0 0 25 25;" xml:space="preserve">
<style type="text/css">
	.st0{fill-rule:evenodd;clip-rule:evenodd;fill:#BE0E31;}
</style>
<path class="st0" d="M6.6,10.2c1.5,0,2.7,1.2,2.7,2.7s-1.2,2.7-2.7,2.7s-2.7-1.2-2.7-2.7S5.1,10.2,6.6,10.2 M18.4,3.9
	c1.5,0,2.7,1.2,2.7,2.7s-1.2,2.7-2.7,2.7S15.7,8,15.7,6.6S16.9,3.9,18.4,3.9 M18.4,16.6c1.5,0,2.7,1.2,2.7,2.7
	c0,1.5-1.2,2.7-2.7,2.7s-2.7-1.2-2.7-2.7C15.7,17.8,16.9,16.6,18.4,16.6 M6.6,16.8c1.3,0,2.4-0.6,3.1-1.5l5.1,2.7
	c-0.2,0.4-0.2,0.9-0.2,1.3c0,2.1,1.8,3.9,3.9,3.9c2.2,0,3.9-1.7,3.9-3.9c0-2.1-1.8-3.9-3.9-3.9c-1.3,0-2.4,0.6-3.1,1.5l-5.1-2.7
	c0.2-0.4,0.2-0.9,0.2-1.3c0-0.5-0.1-0.9-0.2-1.3l5.1-2.7c0.7,0.9,1.8,1.5,3.1,1.5c2.2,0,3.9-1.7,3.9-3.9c0-2.1-1.8-3.9-3.9-3.9
	c-2.2,0-3.9,1.7-3.9,3.9c0,0.5,0.1,0.9,0.2,1.3l-5.1,2.7C9,9.7,7.9,9.1,6.6,9.1c-2.2,0-3.9,1.7-3.9,3.9C2.7,15.1,4.4,16.8,6.6,16.8"
	/>
</svg>
