<?xml version="1.0" encoding="utf-8"?>
<!-- Generator: Adobe Illustrator 24.3.0, SVG Export Plug-In . SVG Version: 6.00 Build 0)  -->
<svg version="1.1" id="Layer_1" xmlns="http://www.w3.org/2000/svg" xmlns:xlink="http://www.w3.org/1999/xlink" x="0px" y="0px"
	 viewBox="0 0 30 30" style="enable-background:new 0 0 30 30;" xml:space="preserve">
<style type="text/css">
	.st0{fill:#BE0E31;}
</style>
<g>
	<path class="st0" d="M14.9,15.9h0.2c1.6,0,3-0.6,3.9-1.7c2.2-2.4,1.8-6.5,1.8-6.9c-0.1-3-1.5-4.4-2.7-5c-0.9-0.5-1.9-0.8-3-0.8H15
		c-0.6,0-1.8,0.1-3,0.8S9.4,4.4,9.3,7.4c0,0.4-0.4,4.5,1.8,6.9C11.9,15.3,13.3,15.9,14.9,15.9z M10.7,7.5
		C10.7,7.4,10.7,7.4,10.7,7.5c0.2-4,3-4.5,4.3-4.5c1.5,0,4.1,0.6,4.2,4.4s0.4,3.8-1.4,5.8c-0.7,0.8-1.6,1.2-2.9,1.2H15
		c-1.2,0-2.2-0.4-2.9-1.2C10.3,11.3,10.7,7.5,10.7,7.5z"/>
	<path class="st0" d="M25.2,17.2h-3.1v-3.1c0-0.4-0.3-0.7-0.7-0.7h-0.2c-0.4,0-0.7,0.3-0.7,0.7v3.1h-3.1c-0.4,0-0.7,0.3-0.7,0.7v0.2
		c0,0.4,0.3,0.7,0.7,0.7h3.1v3.1c0,0.4,0.3,0.7,0.7,0.7h0.2c0.4,0,0.7-0.3,0.7-0.7v-3.1h3.1c0.4,0,0.7-0.3,0.7-0.7v-0.2
		C25.9,17.5,25.6,17.2,25.2,17.2z"/>
	<path class="st0" d="M26.5,22.9c0-0.1,0-0.1,0-0.2c0-0.7-0.1-1.9-0.6-3h-2.1c1,0.6,1.2,1.8,1.2,3v0.1c0,0.5,0,1.3-0.1,1.7
		C24,25.2,20.4,27,15,27s-9-1.8-9.9-2.3C5,24.2,5,23.5,5,22.9v-0.1c0-1.3,0.2-2.7,1.5-3.1c2.8-0.7,5-2.3,5.1-2.3
		c0.3-0.2,0.4-0.7,0.2-1.1c-0.2-0.3-0.7-0.4-1.1-0.2c0,0-2.1,1.5-4.6,2.1c0,0,0,0-0.1,0c-2.4,0.8-2.5,3.4-2.5,4.5v0.1
		c0,0.3,0,1.8,0.3,2.5c0.1,0.1,0.2,0.3,0.3,0.4c0.2,0.1,4.2,2.7,10.9,2.7s10.8-2.6,10.9-2.7s0.2-0.2,0.3-0.4
		C26.5,24.7,26.5,23.2,26.5,22.9z"/>
</g>
</svg>
