<svg height="24" viewBox="0 0 27 24" width="27" xmlns="http://www.w3.org/2000/svg" xmlns:xlink="http://www.w3.org/1999/xlink"><defs><path id="a" d="m3.45764716 0c.38223556 0 .70572283.26787061.78503323.63158473l.01628238.11181751.26503723 3.54159776 10.2081429.00071429c.4438002 0 .8035714.35977118.8035714.80357142 0 .4068169-.3023077.74302603-.6945316.79623577l-.1090398.00733566-10.0871429-.00085714.602 8.016 16.3669286-1.0347857.2395445-.9610103c.1069148-.4307295.5427616-.6932332.9734911-.5863184.3948353.0980052.6483143.4724046.6054673.8658953l-.0191489.1075957-.3805058 1.5329503c-.0750407.3023179-.3165315.5304233-.6148971.5928998l-.114339.0154863-16.6459321 1.0519582c.51760905.9354332 1.48840138 1.5781951 2.60650082 1.6445161l.19166924.0056698h10.56207844c1.6272676 0 2.9464286 1.319161 2.9464286 2.9464286s-1.319161 2.9464286-2.9464286 2.9464286c-1.6272675 0-2.9464285-1.319161-2.9464285-2.9464286 0-.4826915.1160697-.9382734.3218213-1.3403578h-6.53649977c.20575157.4020844.32182127.8576663.32182127 1.3403578 0 1.6272676-1.31916098 2.9464286-2.94642854 2.9464286-1.62726757 0-2.94642857-1.319161-2.94642857-2.9464286 0-.9722158.47087453-1.8344529 1.19700528-2.3710931-.96686548-.7610674-1.63625128-1.889435-1.79472485-3.1858406l-.02230272-.2262454-.95390629-12.69896374h-1.90821428c-.40681689 0-.74302603-.30230773-.79623577-.69453155l-.00733566-.10903988c0-.40681689.30230773-.74302603.69453155-.79623577l.10903988-.00733566zm15.56020994 18.75c-.739667 0-1.3392857.5996186-1.3392857 1.3392857s.5996187 1.3392857 1.3392857 1.3392857c.7396671 0 1.3392858-.5996186 1.3392858-1.3392857s-.5996187-1.3392857-1.3392858-1.3392857zm-11.78571424 0c-.73966708 0-1.33928572.5996186-1.33928572 1.3392857s.59961864 1.3392857 1.33928572 1.3392857c.73966707 0 1.33928571-.5996186 1.33928571-1.3392857s-.59961864-1.3392857-1.33928571-1.3392857zm14.46428574-17.67857143c.4068169 0 .743026.30230773.7962357.69453155l.0073357.10903988-.001 2.41 2.4117143.00071429c.4438002 0 .8035714.35977118.8035714.80357142 0 .4068169-.3023077.74302603-.6945315.79623577l-.1090399.00733566-2.4117143-.00085714.001 2.41157143c0 .44380024-.3597712.80357143-.8035714.80357143-.4068169 0-.7430261-.30230773-.7962358-.69453155l-.0073357-.10903988-.0008571-2.41157143-2.4098571.00085714c-.4438003 0-.8035715-.35977118-.8035715-.80357143 0-.40681689.3023078-.74302603.6945316-.79623576l.1090399-.00733566 2.4098571-.00071429.0008571-2.41c0-.44380025.3597712-.80357143.8035715-.80357143z"/><mask id="b" fill="#fff"><use fill="#fff" fill-rule="evenodd" xlink:href="#a"/></mask></defs><g fill="none" fill-rule="evenodd" transform="translate(.410714 .482143)"><use fill="#000" fill-rule="nonzero" xlink:href="#a"/><g fill="#fff" mask="url(#b)"><path d="m0 0h57.857143v57.857143h-57.857143z" transform="translate(-16.071429 -17.142857)"/></g></g></svg>