<?xml version="1.0" encoding="utf-8"?>
<!-- Generator: Adobe Illustrator 25.2.1, SVG Export Plug-In . SVG Version: 6.00 Build 0)  -->
<svg version="1.1" id="Layer_1" xmlns="http://www.w3.org/2000/svg" xmlns:xlink="http://www.w3.org/1999/xlink" x="0px" y="0px"
	 viewBox="0 0 38 38" style="enable-background:new 0 0 38 38;" xml:space="preserve">
<style type="text/css">
	.st0{fill:#666666;}
	.st1{opacity:0;fill:#FFFFFF;}
</style>
<g>
	<path class="st0" d="M7.9,36.5h24.5c0.4,0,0.7-0.3,0.7-0.7V6.3c0-0.4-0.3-0.7-0.7-0.7h-1.3V2.2c0-0.4-0.3-0.7-0.7-0.7H7.9
		c-1.7,0-3,1.4-3,3.1v28.8C4.9,35.1,6.2,36.5,7.9,36.5z M6.9,33.4V7.5c0.3,0.1,0.7,0.2,1,0.2h1v26.8h-1C7.4,34.4,6.9,34,6.9,33.4z
		 M31.1,34.4H10.9V7.7H21v9.9c0,0.4,0.3,0.7,0.7,0.7c0.1,0,0.3,0,0.4-0.1l2.6-1.8c0.2-0.2,0.5-0.2,0.8,0l2.6,1.8
		c0.3,0.2,0.7,0.1,0.9-0.2c0.1-0.1,0.1-0.2,0.1-0.4V7.7h2V34.4z M23,7.7h4v6.8c0,0.1-0.1,0.3-0.3,0.3c-0.1,0-0.1,0-0.2,0l-1.4-1
		c-0.1-0.1-0.2-0.1-0.3,0l-1.4,1c-0.1,0.1-0.3,0.1-0.4-0.1c0,0,0-0.1,0-0.2C23,14.5,23,7.7,23,7.7z M7.9,3.6H28c0.6,0,1,0.5,1,1
		c0,0.6-0.5,1-1,1H7.9c-0.6,0-1-0.5-1-1S7.4,3.6,7.9,3.6z"/>
	<rect class="st1" width="38" height="38"/>
</g>
</svg>
