<svg height="62" viewBox="0 0 62 62" width="62" xmlns="http://www.w3.org/2000/svg" xmlns:xlink="http://www.w3.org/1999/xlink"><defs><path id="a" d="m3.688 0c.408 0 .753.286.838.674l.017.119.283 3.778h10.888c.474 0 .857.384.857.858 0 .434-.322.792-.74.849l-.117.008-10.759-.001.642 8.549 17.458-1.103.255-1.025c.114-.46.58-.74 1.039-.625.42.104.691.504.646.924l-.02.114-.407 1.635c-.08.323-.337.566-.656.633l-.122.016-17.755 1.122c.552.998 1.587 1.684 2.78 1.755l.204.006h11.267c1.735 0 3.143 1.407 3.143 3.143 0 1.735-1.408 3.142-3.143 3.142-1.736 0-3.143-1.407-3.143-3.142 0-.515.123-1 .342-1.429h-6.97c.219.429.342.914.342 1.429 0 1.735-1.407 3.142-3.143 3.142-1.735 0-3.143-1.407-3.143-3.142 0-1.037.503-1.957 1.277-2.53-1.031-.812-1.745-2.015-1.914-3.398l-.024-.241-1.017-13.546h-2.036c-.434 0-.792-.322-.85-.74l-.007-.118c0-.433.322-.791.74-.849l.118-.007h2.831zm16.603 19.999-.005.001h-.02c-.78.011-1.409.646-1.409 1.429 0 .789.64 1.428 1.429 1.428s1.428-.64 1.428-1.428c0-.743-.566-1.353-1.29-1.422zm-12.577.001c-.789 0-1.428.64-1.428 1.429s.64 1.428 1.428 1.428c.79 0 1.429-.64 1.429-1.428 0-.79-.64-1.429-1.429-1.429zm15.429-18.857c.434 0 .792.322.85.74l.007.117-.001 2.571h2.572c.474 0 .858.384.858.858 0 .434-.323.792-.741.849l-.117.008-2.571-.001v2.572c0 .474-.384.857-.857.857-.434 0-.793-.322-.85-.74l-.007-.117-.001-2.572h-2.57c-.474 0-.858-.383-.858-.856 0-.434.323-.793.741-.85l.116-.008h2.571v-2.571c0-.473.384-.857.858-.857z"/><mask id="b" fill="#fff"><circle cx="30" cy="30" fill="#fff" fill-rule="evenodd" r="30"/></mask><mask id="c" fill="#fff"><use fill="#fff" fill-rule="evenodd" xlink:href="#a"/></mask></defs><g fill="none" fill-rule="evenodd" transform="translate(1 1)"><g fill="#df032e" mask="url(#b)"><path d="m0 0h60v60h-60z"/></g><g mask="url(#b)"><g transform="translate(16.571429 17.714286)"><use fill="#000" fill-rule="nonzero" xlink:href="#a"/><g fill="#fff" mask="url(#c)"><path d="m0 0h61.714v61.714h-61.714z" transform="translate(-17.142857 -18.285714)"/></g></g></g></g></svg>