<svg height="62" viewBox="0 0 62 62" width="62" xmlns="http://www.w3.org/2000/svg"><g fill="none" fill-rule="evenodd"><circle cx="30" cy="30" fill="#f7f7f7" r="30" transform="translate(1 1)"/><g stroke="#666" transform="translate(19 18)"><path d="m12 2.665c2.057 0 3.919.818 5.267 2.143 1.347 1.325 2.18 3.157 2.173 5.18l.215 4.155c.09 1.76.773 3.435 1.932 4.755l.94.993c.435.456.615 1.099.48 1.714-.045.202-.152.376-.299.504-.14.122-.315.202-.506.225l-20.294.006c-.22 0-.425-.077-.587-.207-.161-.13-.28-.313-.327-.528-.136-.615.044-1.258.48-1.714l.715-.75c1.295-1.353 2.06-3.127 2.156-4.998l.217-4.224c.012-2.008.85-3.822 2.196-5.134s3.199-2.12 5.243-2.12z" stroke-width="1.899"/><path d="m12 26c2.32 0 4.2-1.61 4.2-3.596h-8.4c0 1.986 1.88 3.596 4.2 3.596z" stroke-width="1.994"/><path d="m14.4 2.397c0-1.324-1.075-2.397-2.4-2.397s-2.4 1.073-2.4 2.397m-5.657-.5c-2.105 1.76-3.442 4.389-3.442 7.327m19.539-7.327c2.105 1.76 3.442 4.389 3.442 7.327" stroke-linecap="round" stroke-linejoin="round" stroke-width="1.8"/></g></g></svg>