<svg enable-background="new 0 0 54 54" viewBox="0 0 54 54" xmlns="http://www.w3.org/2000/svg"><path d="m24.5 28.6c.5 0 .9.4.9.9v10c0 .5-.4.9-.9.9h-10c-.5 0-.9-.4-.9-.9v-10c0-.5.4-.9.9-.9zm15 0c.5 0 .9.4.9.9v10c0 .5-.4.9-.9.9h-10c-.5 0-.9-.4-.9-.9v-10c0-.5.4-.9.9-.9zm-15.9 1.8h-8.1v8.1h8.1zm15 0h-8.1v8.1h8.1zm-14.1-16.8c.5 0 .9.4.9.9v10c0 .5-.4.9-.9.9h-10c-.5 0-.9-.4-.9-.9v-10c0-.5.4-.9.9-.9zm15 0c.5 0 .9.4.9.9v10c0 .5-.4.9-.9.9h-10c-.5 0-.9-.4-.9-.9v-10c0-.5.4-.9.9-.9zm-15.9 1.8h-8.1v8.1h8.1zm15 0h-8.1v8.1h8.1z" fill="#be0e31"/></svg>