<svg enable-background="new 0 0 54 54" viewBox="0 0 54 54" xmlns="http://www.w3.org/2000/svg" xmlns:xlink="http://www.w3.org/1999/xlink"><mask id="a" height="54" maskUnits="userSpaceOnUse" width="54" x="-13.6" y="-13.2"><ellipse clip-rule="evenodd" cx="13.9" cy="4" fill="#fff" fill-rule="evenodd" rx="14.9" ry="4"/></mask><mask id="b" height="54" maskUnits="userSpaceOnUse" width="54" x="-8" y="-10"><path clip-rule="evenodd" d="m19.5 0h.8.8c.5 0 1.1 0 1.6.1l.8.1.8.1c.3 0 .5 0 .8.1l.8.1h.4.7c.1 0 .2 0 .4.1l.7.1c.2 0 .5.1.7.1l.7.2.7.1c.9.2 1.7.4 2.5.7l.6.2.6.2c3.7 1.4 6.1 3.3 6.1 5.4v19c0 3.1-3 5.7-7.6 7.3l-.6.2-.6.2c-.6.2-1.3.4-1.9.5l-.7.2c-.6.1-1.2.2-1.8.3l-.7.1c-.1 0-.2 0-.4.1l-.7.2c-.4 0-.8.1-1.1.1l-.8.1c-1.2.1-2.4.1-3.6.1s-2.4 0-3.6-.1l-.8-.1c-.4 0-.8-.1-1.1-.1l-.7-.1c-.1 0-.2 0-.4-.1l-.7-.1c-.6-.1-1.2-.2-1.8-.3l-.7-.2c-.7-.2-1.3-.3-1.9-.5l-.6-.2-.6-.2c-4.5-1.6-7.4-4.2-7.6-7.1v-.2-19-.1c.1-2.1 2.5-4 6.1-5.3l.6-.3.6-.2c.8-.3 1.6-.5 2.5-.7l.7-.1.7-.1c.1 0 .2 0 .4-.1l.7-.1c.2 0 .5-.1.7-.1l.7-.1h.4l.8-.1c.3 0 .5-.1.8-.1l.8-.1.8-.1c.5 0 1.1-.1 1.6-.1h.8.4zm-18.5 27.2v.2c.5 2 3.1 3.8 7 5.1l.6.2c3 .9 6.7 1.4 10.8 1.4s7.7-.5 10.8-1.4l.6-.2c4-1.3 6.7-3.2 7.1-5.2-1.8 1.9-4.7 3.4-8.2 4.4l-.7.2-.7.2c-.3.1-.7.2-1 .2l-.7.1c-2.2.4-4.6.6-7.2.6s-4.9-.2-7.2-.6l-.7-.1c-.3-.1-.7-.1-1-.2l-.7-.2-.7-.2c-3.4-1.2-6.2-2.7-8.1-4.5zm33-11-.6.2c-.1 0-.2.1-.3.1l-.6.2c-.3.1-.6.2-.9.2l-.6.1-.7.1c-.1 0-.2 0-.3.1l-.7.1-.7.1c-.1 0-.2 0-.4.1l-.7.1-.7.1c-.1 0-.3 0-.4 0l-.8.1-.8.1-.8.1c-.3 0-.5 0-.8.1h-.8-.8-.8-.8-.4-.8c-.1 0-.3 0-.4 0h-.8-.8-.8c-.1 0-.3 0-.4 0l-1-.1h-.4l-.8-.1-.8-.1c-.1 0-.3 0-.4 0l-.7-.1-.7-.1-.7-.1c-.1 0-.2 0-.4-.1l-.7-.2c-.1 0-.2 0-.3-.1l-.7-.1-.6-.2c-.3-.1-.6-.2-.9-.2l-.6-.2c-.1 0-.2-.1-.3-.1l-.6-.1c-1.6-.6-3-1.2-4-2v8.4c0 3 3.8 5.7 9.5 7.2l.7.2c2.5.6 5.3.9 8.4.9s5.9-.3 8.4-.9l.7-.2c5.6-1.4 9.3-4.1 9.5-7v-.2-8.4c-1.2.8-2.6 1.4-4.2 2zm-14.1 4.5c4.1 0 7.5 1.6 7.5 3.5s-3.4 3.5-7.5 3.5-7.5-1.6-7.5-3.5 3.4-3.5 7.5-3.5zm-12.9 4.6c.6 0 1 .5 1 1s-.4 1-1 1-1-.5-1-1 .4-1 1-1zm25 0c.6 0 1 .5 1 1s-.4 1-1 1-1-.5-1-1 .4-1 1-1zm-12.1-2.6c-1.7 0-3.3.3-4.5.8-.3.2-.6.3-.7.4l-.1.1-.1.1-.1.1.1.1.1.1s0 0 .1.1l.2.1c.2.1.4.2.6.4 1.1.5 2.7.8 4.5.8 1.7 0 3.3-.3 4.5-.8.3-.1.5-.3.6-.4l.2-.1.1-.1.1-.1-.1-.1-.1-.1-.2-.1c-.2-.1-.4-.3-.7-.4-1.2-.6-2.8-.9-4.5-.9zm-12.9-.9c.6 0 1 .5 1 1 0 .6-.4 1-1 1s-1-.5-1-1c0-.6.4-1 1-1zm25 0c.6 0 1 .5 1 1 0 .6-.4 1-1 1s-1-.5-1-1c0-.6.4-1 1-1zm0-3.6c.6 0 1 .5 1 1s-.4 1-1 1-1-.5-1-1 .4-1 1-1zm-25 0c.6 0 1 .5 1 1s-.4 1-1 1-1-.5-1-1 .4-1 1-1zm28.2-5.5-.5.2c-.2.1-.4.1-.5.2l-.6.2-.6.2c-.1 0-.2.1-.3.1l-.6.2c-.1 0-.2.1-.3.1l-.6.2-.6.2-.7.2c-.3.1-.7.1-1 .2l-.7.1c-.1 0-.2 0-.4.1h-.8c-.1 0-.2 0-.4.1h-.7-.4l-.8.1-.7.1-.8.1c-.1 0-.3 0-.4 0h-.8c-.5 0-1.1 0-1.6 0h-.8-.8c-.6 0-1.1 0-1.6 0h-.8c-.1 0-.3 0-.4 0l-1-.1-.8-.1-.8-.1h-.7c-.1 0-.2 0-.4-.1l-.7-.1c-.2 0-.5-.1-.7-.1l-.7-.1c-.3-.1-.7-.1-1-.2l-.7-.2-.6-.2-.6-.2c-.1 0-.2-.1-.3-.1l-.6-.2c-.1 0-.2-.1-.3-.1l-.6-.2-.6-.2c-.2 0-.4 0-.6-.1l-.5-.2c-1.1-.5-2.1-1-2.8-1.6v-.1c0 .8.9 1.7 2.5 2.5l.4.2c.3.1.6.2.9.4l.5.2.5.2.5.2h.7c.3.1.6.2.9.2l.6.1c.2 0 .4.1.6.1l.7.1.3.1.7.1.7.1.7.1.7.1.8.1h.4l.9.2.8.1h.8 1.2.8.8.8.8 1.2.8l1-.1.8-.1h.4l.8-.1.7-.1.7-.1.7-.1.7-.1.7-.1c.3-.1.7-.1 1-.2l.6-.1c.2 0 .4-.1.6-.1l.6-.2c.1 0 .2-.1.3-.1l.5-.2.5-.2.5-.2c.3-.1.6-.2.9-.4l.4-.2c1.5-.7 2.5-1.6 2.5-2.4v-.1c-.7.7-1.6 1.3-2.7 1.8zm-15.7-10.7c-.8 0-1.7 0-2.5.1h-.8l-.8.1-.8.1c-.3 0-.5.1-.8.1l-.8.1c-.1 0-.2 0-.4 0l-.6.1c-.1 0-.2 0-.4.1l-.7.1-.7.1c-.1 0-.2 0-.3.1l-.7.1c-.2 0-.4.1-.6.1l-.6.2c-.1 0-.2.1-.3.1l-.6.2-.6.1c-.1 0-.2.1-.3.1l-.5.2c-.1.1-.3.1-.5.2l-.5.2-.4.2c-2.1.9-3.3 2-3.3 3s1.1 2 3.1 2.9l.4.2c.4.2.8.3 1.2.5l.5.2c.2.1.4.1.6.2l.6.2c.1 0 .2.1.3.1l.6.2c.4.1.8.2 1.3.3l.7.1c.2 0 .5.1.7.1l.7.1c.2 0 .5.1.7.1l.7.1.8.1h.4l.8.1.8.1.8.1h.8 2.1s1.4 0 2.1 0h.8l.8-.1.8-.1.8-.1h.4l.8-.1.7-.1c.1 0 .2 0 .4-.1l.7-.1c.4-.1.7-.1 1-.2l.7-.1c.4-.1.9-.2 1.3-.3l.6-.2c.1 0 .2-.1.3-.1l.6-.2c.2-.1.4-.1.6-.2l.5-.2c.4-.2.8-.3 1.2-.5l.4-.2c1.9-.9 3.1-2 3.1-2.9 0-1-1.2-2.1-3.3-3l-.5-.2-.5-.2c-.2-.1-.3-.1-.5-.2l-.5-.2-.6-.2c-.1 0-.2-.1-.3-.1l-.6-.2c-.1 0-.2-.1-.3-.1l-.6-.2c-.2-.1-.4-.1-.6-.2l-.7-.1c-.1 0-.2 0-.3-.1l-.7-.1-.7-.1-.7-.1c-.2 0-.5-.1-.7-.1l-.8-.1c-.3 0-.5-.1-.8-.1l-.8-.1-.8-.1h-.8c-.8.2-1.5.2-2.2.2zm5.9 4.2c.6-1.2 2-1.9 3.4-1.6l2.5.6 4.1.4c1.1.1 1.8 1 1.8 2.1v.1.3c-.3 1.1-1.2 1.9-2.3 2l-4.4.3-3 .5c-1.3.2-2.6-.7-2.8-2-.1-.5 0-1 .2-1.5zm2.9.3c-.4-.1-.9.1-1.1.5l-.6 1.2c0 .1-.1.2 0 .3 0 .3.3.4.5.4l3.1-.5 4.4-.4c.3 0 .5-.2.5-.4l-4.1-.4h-.1zm.1.3c.2.1.3.4.3.6v.1l-.3.7c-.1.2-.4.3-.7.2-.2-.1-.3-.4-.3-.6v-.1l.3-.7c.2-.2.5-.3.7-.2z" fill="#fff" fill-rule="evenodd"/></mask><path d="m-1 0h54v54h-54z" fill="none"/><g mask="url(#a)" transform="translate(12.622546 13.244681)"><path clip-rule="evenodd" d="m-1 0h54v54h-54z" fill="#df032e" fill-opacity=".3" fill-rule="evenodd" transform="translate(-12.622546 -13.244681)"/></g><g mask="url(#b)" transform="translate(7 10)"><path clip-rule="evenodd" d="m-1 0h54v54h-54z" fill="#be0e31" fill-rule="evenodd" transform="translate(-7 -10)"/></g></svg>