<?xml version="1.0" encoding="utf-8"?>
<!-- Generator: Adobe Illustrator 25.2.1, SVG Export Plug-In . SVG Version: 6.00 Build 0)  -->
<svg version="1.1" id="Layer_1" xmlns="http://www.w3.org/2000/svg" xmlns:xlink="http://www.w3.org/1999/xlink" x="0px" y="0px"
	 viewBox="0 0 24 24" style="enable-background:new 0 0 24 24;" xml:space="preserve">
<style type="text/css">
	.st0{fill:#333333;}
</style>
<path class="st0" d="M10.3,17.2l-2.4,2.4c-1,1-2.6,1-3.5,0s-1-2.6,0-3.5l4.7-4.7c1-1,2.6-1,3.5,0c0.3,0.3,0.9,0.3,1.2,0
	c0.3-0.3,0.3-0.9,0-1.2c-1.6-1.6-4.3-1.6-5.9,0l-4.7,4.7c-1.6,1.6-1.6,4.3,0,5.9c1.6,1.6,4.3,1.6,5.9,0l2.4-2.4
	c0.3-0.3,0.3-0.9,0-1.2C11.1,16.9,10.6,16.9,10.3,17.2z"/>
<path class="st0" d="M20.8,3.2c-1.6-1.6-4.3-1.6-5.9,0L12.1,6c-0.3,0.3-0.3,0.9,0,1.2c0.3,0.3,0.9,0.3,1.2,0l2.8-2.8
	c1-1,2.6-1,3.5,0s1,2.6,0,3.5l-5.2,5.2c-1,1-2.6,1-3.5,0c-0.3-0.3-0.9-0.3-1.2,0c-0.3,0.3-0.3,0.9,0,1.2c1.6,1.6,4.3,1.6,5.9,0
	l5.2-5.2C22.4,7.5,22.4,4.8,20.8,3.2L20.8,3.2z"/>
</svg>
