<?xml version="1.0" encoding="UTF-8"?>
<svg width="36px" height="34px" viewBox="0 0 36 34" version="1.1" xmlns="http://www.w3.org/2000/svg" xmlns:xlink="http://www.w3.org/1999/xlink">
    <!-- Generator: Sketch 61.2 (89653) - https://sketch.com -->
    <title>icon / heart / empty</title>
    <desc>Created with Sketch.</desc>
    <defs>
        <filter x="-37.5%" y="-37.5%" width="175.0%" height="175.0%" filterUnits="objectBoundingBox" id="filter-1">
            <feOffset dx="0" dy="0" in="SourceAlpha" result="shadowOffsetOuter1"></feOffset>
            <feGaussianBlur stdDeviation="2.5" in="shadowOffsetOuter1" result="shadowBlurOuter1"></feGaussianBlur>
            <feColorMatrix values="0 0 0 0 0   0 0 0 0 0   0 0 0 0 0  0 0 0 0.25 0" type="matrix" in="shadowBlurOuter1" result="shadowMatrixOuter1"></feColorMatrix>
            <feMerge>
                <feMergeNode in="shadowMatrixOuter1"></feMergeNode>
                <feMergeNode in="SourceGraphic"></feMergeNode>
            </feMerge>
        </filter>
        <path d="M19.3167434,2.18683978 C17.2570035,2.26366649 15.34533,3.21809645 14.0437689,4.77854975 L14,4.832 L13.9562311,4.77854975 C12.5980804,3.15025066 10.5756106,2.18181818 8.4137931,2.18181818 C4.47533597,2.18181818 1.18181818,5.7801567 1.18181818,9.8490566 C1.18181818,14.0335999 3.54860062,17.9019495 7.45580381,21.3821863 C8.80272116,22.5819169 10.24258,23.6502651 11.6825802,24.5759255 L11.9809077,24.7655967 L12.5498566,25.1153783 C12.6414169,25.1703653 12.7312829,25.2236888 12.8193615,25.2753361 L13.4079101,25.6105454 L13.6231769,25.7262409 C13.8594372,25.8488288 14.1405628,25.8488288 14.3768231,25.7262409 L14.6897217,25.5564498 L14.9218575,25.4252369 C15.0906795,25.3286724 15.2670229,25.2253523 15.4501434,25.1153783 L16.0190923,24.7655967 C16.1170576,24.7040067 16.2165311,24.6407788 16.3174198,24.5759255 C17.75742,23.6502651 19.1972788,22.5819169 20.5441962,21.3821863 C24.4513994,17.9019495 26.8181818,14.0335999 26.8181818,9.8490566 C26.8181818,5.7801567 23.524664,2.18181818 19.5862069,2.18181818 L19.3167434,2.18683978 Z M19.5862069,3.81818182 C22.5870057,3.81818182 25.1818182,6.65314866 25.1818182,9.8490566 C25.1818182,13.4734756 23.0486006,16.9600788 19.4558038,20.1602665 C18.1777212,21.2986845 16.80508,22.3171583 15.4325802,23.1994282 L14.8741859,23.5505957 L14.3538615,23.8632004 L14,24.067 L13.6461385,23.8632004 L13.1258141,23.5505957 L12.5674198,23.1994282 C11.19492,22.3171583 9.82227884,21.2986845 8.54419619,20.1602665 C4.95139938,16.9600788 2.81818182,13.4734756 2.81818182,9.8490566 C2.81818182,6.65314866 5.4129943,3.81818182 8.4137931,3.81818182 C10.4333109,3.81818182 12.2962692,4.91177618 13.2861716,6.67904283 C13.5986085,7.23683449 14.4013915,7.23683449 14.7138284,6.67904283 C15.7037308,4.91177618 17.5666891,3.81818182 19.5862069,3.81818182 Z" id="path-2"></path>
    </defs>
    <g id="扶뒬매" stroke="none" stroke-width="1" fill="none" fill-rule="evenodd">
        <g id="扶뒬매-pc" transform="translate(-995.000000, -1007.000000)">
            <g id="icon-/-heart-/-fill" transform="translate(999.000000, 1010.000000)">
                <path d="M19.5862069,3 C17.2703394,3 15.1344962,4.25379567 14,6.27920476 C12.8655038,4.25379567 10.7296606,3 8.4137931,3 C4.87169988,3 2,6.29582472 2,9.8490566 C2,18.7735849 14,25 14,25 C14,25 26,18.7735849 26,9.8490566 C26,6.29582472 23.1283001,3 19.5862069,3 Z" id="Path-Copy-7" fill="#DF032E"></path>
                <g id="Group" filter="url(#filter-1)" stroke-width="1">
                    <mask id="mask-3" fill="white">
                        <use xlink:href="#path-2"></use>
                    </mask>
                    <use id="Path-Copy-7" fill="#000000" fill-rule="nonzero" xlink:href="#path-2"></use>
                    <g id="color-/-fill" mask="url(#mask-3)" fill="#FFFFFF">
                        <rect id="Rectangle" x="0" y="0" width="28" height="28"></rect>
                    </g>
                </g>
            </g>
        </g>
    </g>
</svg>