<svg enable-background="new 0 0 54 54" viewBox="0 0 54 54" xmlns="http://www.w3.org/2000/svg" xmlns:xlink="http://www.w3.org/1999/xlink"><mask id="a" height="54" maskUnits="userSpaceOnUse" width="54" x="-38.2" y="-28.8"><path clip-rule="evenodd" d="m-15.3-12.9c-11.9-1.8-19.5 14.8-3.8 18 4.1.6 10.8-4.1 14.7-4.1 6.5.3 11.5-3.3 8.6-7.4-3.1-4.4-7.6-4.6-19.5-6.5z" fill="#fff" fill-rule="evenodd"/></mask><mask id="b" height="54" maskUnits="userSpaceOnUse" width="54" x="-33" y="-24"><path clip-rule="evenodd" d="m-3.9-12.4.9.2 1 .2 1.4.3 1.3.3c.1 0 .3.1.4.1l.9.2.8.2.7.2.7.2.7.2.7.2c.1 0 .2.1.3.1l.6.2c.1 0 .2.1.3.1l.6.2c.1 0 .2.1.3.1l.5.2c1.5.6 2.8 1.3 3.8 2.1l.3.3.3.3.2.1.3.3.3.3.3.3c.1.1.2.2.3.3l.3.4c0 .1.1.1.1.2l.3.4.2.4c0 .1.1.2.1.4.8 1.3 1.1 2.9.9 4.5v.6.8.8.7.3.7.3.6c0 .5-.1.9-.1 1.3l-.1.4c0 .1 0 .3-.1.4-.8 3.9-5.3 8-11.3 8.2h-.3c-1.9 0-3.7.4-6.2 1.3l-.7.5-2 .8-.9.4c-.1.1-.3.1-.4.2l-.8.2c-3.3 1.2-5.6 1.6-8.5 1.3-8.3-1.2-11.4-5.9-12.2-14.5l-.1-.9-.1-1.1v-1.4c-.1-.5-.1-1-.1-1.5v-.2c0-.1 0-.2 0-.3 0-.5.1-.9.1-1.4 1.5-9.9 11.1-14.4 24-12zm-22 12.3c-1.1 7.8 5.8 14.1 12.5 14.1 2.4 0 4.6-.6 7.6-1.8l1.1-.5 2.2-.9c1-.4 1.8-.7 2.5-.8l.4-.1.4-.1h.2.4.2.5.5l1.7-.1h.3.1c.5 0 .9-.1 1.3-.2.5-.1 1.1.2 1.2.8.1.5-.2 1.1-.8 1.2-.4.1-.8.1-1.2.2h-.5-.8-1-.5c-.1 0-.2 0-.2 0h-.4c-.1 0-.1 0-.2 0h-.4l-.4.1c-.1 0-.1 0-.2 0l-.4.1c-.5.1-1.1.3-1.9.6l-.7.3-2.4 1c-3.4 1.5-6 2.2-8.9 2.2-4.4 0-8.9-2.4-11.7-6.1 1.2 5.4 4 8.2 9.9 9 2.5.2 4.4-.1 7.3-1.1l.7-.3.8-.3.8-.3 1.6-.6.9-.3.8-.3c2.4-.9 4.1-1.3 6.1-1.3h.3c5.1 0 9-3.5 9.7-6.6v-.2l.1-.4c0-.1 0-.1 0-.2v-.4c-.4.5-.8 1.1-1.3 1.5-.4.4-1 .4-1.4 0s-.4-1 0-1.4c1.9-1.6 2.9-3.7 3.1-5.7v-.1-.9c0-.1 0-.2 0-.3-.1-.8-.3-1.5-.6-2.1l-.2-.4c0-.1-.1-.1-.1-.2l-.2-.3-.2-.3-.2-.3-.2-.3-.2-.3-.1-.1-.3-.3c-.9-.8-1.9-1.6-3.3-2.2l-.7-.2-.4-.2-.5-.2c-.2 0-.4-.1-.5-.2l-.6-.1-.6-.2c-.1-.1-.3-.1-.6-.2l-.6-.2-.6-.2-.7-.1-.8-.2-.7-.2-.8-.2-.8-.2-1.3-.3-1.4-.3-.5-.1c-12.2-2.3-20.9 1.6-22.2 10.3zm34.5 8.6c.6 0 1 .4 1 1 0 .5-.4.9-.9 1h-.1-.2c-.6 0-1-.4-1-1 0-.5.4-.9.9-1h.1zm-26.6-9.5c0-2.8 3-4.4 6.2-3.9 2.6.5 3.8 2 3.8 4.2 0 1.9-2.4 3.7-4.8 3.7-2.9 0-5.2-1.4-5.2-4zm5.8-1.9c-2.1-.4-3.8.6-3.8 1.9 0 1.2 1.2 2 3.2 2 1.5 0 2.8-1 2.8-1.8 0-1.1-.5-1.8-2.2-2.1z" fill="#fff" fill-rule="evenodd"/></mask><path d="m0 0h54v54h-54z" fill="none"/><g mask="url(#a)" transform="translate(38.172788 28.842558)"><path clip-rule="evenodd" d="m-28-13h54v54h-54z" fill="#df032e" fill-opacity=".3" fill-rule="evenodd" transform="translate(-10.172788 -15.842558)"/></g><g mask="url(#b)" transform="translate(32.999976 23.997444)"><path clip-rule="evenodd" d="m-28-13h54v54h-54z" fill="#be0e31" fill-rule="evenodd" transform="translate(-4.999976 -10.997444)"/></g></svg>