<?xml version="1.0" encoding="utf-8"?>
<!-- Generator: Adobe Illustrator 25.2.1, SVG Export Plug-In . SVG Version: 6.00 Build 0)  -->
<svg version="1.1" id="Layer_1" xmlns="http://www.w3.org/2000/svg" xmlns:xlink="http://www.w3.org/1999/xlink" x="0px" y="0px"
	 viewBox="0 0 30 30" style="enable-background:new 0 0 30 30;" xml:space="preserve">
<style type="text/css">
	.st0{fill:#CCCCCC;}
</style>
<path class="st0" d="M24.7,5.3C25,5.6,25,6.1,24.8,6.4l-0.1,0.1L16.2,15l8.5,8.5c0.3,0.3,0.3,0.8,0.1,1.1l-0.1,0.1
	c-0.3,0.3-0.8,0.3-1.1,0.1l-0.1-0.1L15,16.2l-8.5,8.5c-0.3,0.3-0.9,0.3-1.2,0S5,23.9,5.2,23.6l0.1-0.1l8.5-8.5L5.3,6.5
	C4.9,6.2,4.9,5.7,5.2,5.3l0.1-0.1c0.3-0.3,0.7-0.3,1.1,0l0.1,0.1l8.5,8.5l8.5-8.5C23.9,4.9,24.4,4.9,24.7,5.3z"/>
</svg>
