<svg enable-background="new 0 0 54 54" viewBox="0 0 54 54" xmlns="http://www.w3.org/2000/svg" xmlns:xlink="http://www.w3.org/1999/xlink"><mask id="a" height="54" maskUnits="userSpaceOnUse" width="54" x="-28" y="-13"><path clip-rule="evenodd" d="m-.6 22.3c5.3-1 9.7-5.1 11.8-5.5 3.5-.6 1.5-5.6-2.8-7.3s-6.1-5-13.7-5c-2.3 0-4.9.3-7.5.8 2 2.2 3.1 4.8 3.3 7.6.2 2.9-5.1 7.8-7.3 9 3.5 1.8 8.9 1.9 16.2.4z" fill="#fff" fill-rule="evenodd"/></mask><mask id="b" height="54" maskUnits="userSpaceOnUse" width="54" x="-28" y="-13"><path clip-rule="evenodd" d="m22.8 11c2.1.4 2.8 1.8 1.8 3.4-.2.4-.5.8-1 1.3l-.3.3-.4.4-.6.6-1.5 1.4-.4.4-.4.4c-.1.1-.1.1-.2.2l-.3.3-.3.3s-.1.1-.1.1l-.2.3c-.2.3-.4.6-.5.8-.3.7-.4 1.7-.4 3.1v1.2 1 .7.4.3.3.3.1.3c-.2 1.2-.9 2-2 2.1h-.2-.2l-.1-.1c-2-.8-3-2.1-3.8-4.4l-.4-1.2-.2-.5c-.5-1.4-.9-1.9-1.7-2.2l-.3-.1h-.1-.1-.1-.1-.2l-.5.1-1.8.4c-2.9.7-5.7.8-9.3.1 0 .6-.2 1.1-.3 1.6-.5 1.3-1.4 2.1-2.6 1.7-2.1-.8-3.8-2.4-3.6-4.8 0-.6.5-1 1.1-.9.5 0 .9.4.9.9v.1c-.1 1.2.8 2.1 2 2.7l.2.1v-.1c0-.1.1-.1.1-.2v-.1c.2-.5.3-1.2.2-1.8v-.2c-.1-.5.3-1.1.8-1.2h.3.1c4 .9 6.7.9 9.6.1l1.3-.2.3-.1.3-.1h.1c.8-.1 1.4-.1 2 .1 1.6.5 2.3 1.5 3 3.5l.2.5.3 1c.6 1.7 1.2 2.6 2.2 3.2l.2.1v-.1-.1-.1-.2-.1-.2-.3-.3-.3-.6-1.8c0-1.9.2-3.1.6-4.1.2-.6.7-1.3 1.4-2.1l.4-.4c.1-.1.1-.1.2-.2l.4-.4.5-.4 1.4-1.4.6-.6.4-.4.3-.3.3-.3.1-.2.1-.2.1-.2.2-.4c0-.1 0-.1 0-.1h-.1v-.2h-.1c-1.2-.2-2.3.1-4.2 1.3l-.5.3-.7.4-.7.4-.3.2-.3.1-.2.1-.2.2-.3.1-.2.1c-1.9.7-3.6.4-5.2-1.1-.4-.4-.4-1 0-1.4s1-.4 1.4 0c1 1 1.9 1.1 3.1.7l.2-.1.2-.1.2-.1.2-.1.2-.1.3-.2.6-.4.6-.4.6-.4c2.3-1.4 3.7-1.9 5.6-1.5zm-33.4-10.5c2.8-3.6 7.8-4.6 12-2.2 5.1 3 8.6 8.3 7.5 13.2l-.4 1.5-1.2-1c-.3-.2-.6-.5-.9-.8l-.4-.4-.9-1-.5-.6c-.1-.1-.2-.2-.3-.3-1-1-2.3-2-3.9-2.9s-3.2-1.5-5-2.1c-.4-.1-.7-.1-1.1-.2l-.8-.2-.4-.1-1.8-.4-.7-.2-.5-.1-.4-.1-.2-.1c-.2.1-.4.1-.6.1-.4-.1-.8-.1-1.2-.2l-.7-.1-.7-.1c-.1 0-.2 0-.4 0l-.7-.1c-.5 0-.9 0-1.4-.1h-.7c-.1 0-.2 0-.3 0h-.6c-2.8.1-4.9.6-5.7 1.6-1.5 1.6 1.4 7.3 6 11.2h.2c3.7.8 8-2.4 8.2-6.9 0-.6.5-1 1-1 .6 0 1 .5 1 1 0 .6-.1 1.3-.3 1.9.9.1 2.1.5 3.1 1 2.1 1 3.3 2.4 2.3 4-1.5 2.5-6.2 2.8-9.2.4-1.9 1.4-4.3 1.9-6.6 1.4-.2 0-.3-.1-.5-.2-.2 0-.4-.1-.6-.2-1.1-.9-2.2-2-3.1-3.1l-.4-.5c-.3-.4-.7-.8-.9-1.3l-.3-.5c-2.3-3.5-3.1-6.9-1.4-8.8 1.6-1.8 5.5-2.5 10.3-2.2l.8.1c1 .1 2.1.2 3.2.4-.1.2 0 .2.1.2zm2.5 11.4h-.1c-.4.8-.9 1.5-1.5 2.1 2.2 1.4 5.2 1.2 5.9-.1.1-.1-.4-.6-1.5-1.2-.5-.2-1-.4-1.5-.6l-.3-.1c-.5-.1-.9-.2-1-.1zm8.5-11.9c-3-1.8-6.5-1.3-8.7.9l2.3.6.8.2.8.2.3.1c1.9.6 3.7 1.3 5.4 2.2 1.8 1 3.2 2 4.3 3.2l.3.3.3.3.3.4.5.5v-.1c-.4-3.2-2.9-6.5-6.4-8.6zm-17 6.1c.3-.8 1.1-1.1 1.9-.9s1.1 1.1.8 1.9-1.1 1.1-1.9.9-1.1-1.1-.8-1.9z" fill="#fff" fill-rule="evenodd"/></mask><path d="m0 0h54v54h-54z" fill="none"/><g transform="translate(28 13)"><g mask="url(#a)"><path clip-rule="evenodd" d="m-28-13h54v54h-54z" fill="#df032e" fill-opacity=".3" fill-rule="evenodd"/></g><path d="m22.8 11c2.1.4 2.8 1.8 1.8 3.4-.2.4-.5.8-1 1.3l-.3.3-.4.4-.6.6-1.5 1.4-.4.4-.4.4c-.1.1-.1.1-.2.2l-.3.3-.3.3s-.1.1-.1.1l-.2.3c-.2.3-.4.6-.5.8-.3.7-.4 1.7-.4 3.1v1.2 1 .7.4.3.3.3.1.3c-.2 1.2-.9 2-2 2.1h-.2-.2l-.1-.1c-2-.8-3-2.1-3.8-4.4l-.4-1.2-.2-.5c-.5-1.4-.9-1.9-1.7-2.2l-.3-.1h-.1-.1-.1-.1-.2l-.5.1-1.8.4c-2.9.7-5.7.8-9.3.1 0 .6-.2 1.1-.3 1.6-.5 1.3-1.4 2.1-2.6 1.7-2.1-.8-3.8-2.4-3.6-4.8 0-.6.5-1 1.1-.9.5 0 .9.4.9.9v.1c-.1 1.2.8 2.1 2 2.7l.2.1v-.1c0-.1.1-.1.1-.2v-.1c.2-.5.3-1.2.2-1.8v-.2c-.1-.5.3-1.1.8-1.2h.3.1c4 .9 6.7.9 9.6.1l1.3-.2.3-.1.3-.1h.1c.8-.1 1.4-.1 2 .1 1.6.5 2.3 1.5 3 3.5l.2.5.3 1c.6 1.7 1.2 2.6 2.2 3.2l.2.1v-.1-.1-.1-.2-.1-.2-.3-.3-.3-.6-1.8c0-1.9.2-3.1.6-4.1.2-.6.7-1.3 1.4-2.1l.4-.4c.1-.1.1-.1.2-.2l.4-.4.5-.4 1.4-1.4.6-.6.4-.4.3-.3.3-.3.1-.2.1-.2.1-.2.2-.4c0-.1 0-.1 0-.1h-.1v-.2h-.1c-1.2-.2-2.3.1-4.2 1.3l-.5.3-.7.4-.7.4-.3.2-.3.1-.2.1-.2.2-.3.1-.2.1c-1.9.7-3.6.4-5.2-1.1-.4-.4-.4-1 0-1.4s1-.4 1.4 0c1 1 1.9 1.1 3.1.7l.2-.1.2-.1.2-.1.2-.1.2-.1.3-.2.6-.4.6-.4.6-.4c2.3-1.4 3.7-1.9 5.6-1.5zm-33.4-10.5c2.8-3.6 7.8-4.6 12-2.2 5.1 3 8.6 8.3 7.5 13.2l-.4 1.5-1.2-1c-.3-.2-.6-.5-.9-.8l-.4-.4-.9-1-.5-.6c-.1-.1-.2-.2-.3-.3-1-1-2.3-2-3.9-2.9s-3.2-1.5-5-2.1c-.4-.1-.7-.1-1.1-.2l-.8-.2-.4-.1-1.8-.4-.7-.2-.5-.1-.4-.1-.2-.1c-.2.1-.4.1-.6.1-.4-.1-.8-.1-1.2-.2l-.7-.1-.7-.1c-.1 0-.2 0-.4 0l-.7-.1c-.5 0-.9 0-1.4-.1h-.7c-.1 0-.2 0-.3 0h-.6c-2.8.1-4.9.6-5.7 1.6-1.5 1.6 1.4 7.3 6 11.2h.2c3.7.8 8-2.4 8.2-6.9 0-.6.5-1 1-1 .6 0 1 .5 1 1 0 .6-.1 1.3-.3 1.9.9.1 2.1.5 3.1 1 2.1 1 3.3 2.4 2.3 4-1.5 2.5-6.2 2.8-9.2.4-1.9 1.4-4.3 1.9-6.6 1.4-.2 0-.3-.1-.5-.2-.2 0-.4-.1-.6-.2-1.1-.9-2.2-2-3.1-3.1l-.4-.5c-.3-.4-.7-.8-.9-1.3l-.3-.5c-2.3-3.5-3.1-6.9-1.4-8.8 1.6-1.8 5.5-2.5 10.3-2.2l.8.1c1 .1 2.1.2 3.2.4-.1.2 0 .2.1.2zm2.5 11.4h-.1c-.4.8-.9 1.5-1.5 2.1 2.2 1.4 5.2 1.2 5.9-.1.1-.1-.4-.6-1.5-1.2-.5-.2-1-.4-1.5-.6l-.3-.1c-.5-.1-.9-.2-1-.1zm8.5-11.9c-3-1.8-6.5-1.3-8.7.9l2.3.6.8.2.8.2.3.1c1.9.6 3.7 1.3 5.4 2.2 1.8 1 3.2 2 4.3 3.2l.3.3.3.3.3.4.5.5v-.1c-.4-3.2-2.9-6.5-6.4-8.6zm-17 6.1c.3-.8 1.1-1.1 1.9-.9s1.1 1.1.8 1.9-1.1 1.1-1.9.9-1.1-1.1-.8-1.9z" fill="#be0e31"/><g mask="url(#b)"><path clip-rule="evenodd" d="m-28-13h54v54h-54z" fill="#be0e31" fill-rule="evenodd"/></g></g></svg>