<svg enable-background="new 0 0 54 54" viewBox="0 0 54 54" xmlns="http://www.w3.org/2000/svg" xmlns:xlink="http://www.w3.org/1999/xlink"><mask id="a" height="54" maskUnits="userSpaceOnUse" width="54" x="0" y="0"><path clip-rule="evenodd" d="m30 23.3h15.9v21c0 1.7-1.3 3-3 3h-12l2.5-4.6c2.1-3.8 2.9-6.4 2.4-8-.2-.6-1.2-.8-3-.4l-.6-4.5-2.9-2z" fill="#fff" fill-rule="evenodd"/></mask><mask id="b" height="54" maskUnits="userSpaceOnUse" width="54" x="-5.8" y="-5.1"><path clip-rule="evenodd" d="m20.9 19c.9.1 1.6.5 2.2 1.1l.1.2.1.1 1.7 2.9c.8 0 1.5.2 2.1.8s1 1.4 1 2.2v1.9h2c.5 0 .9.4 1 .9v.1c0 4.9-2.1 9.3-6.3 13-1.4 1.3-3.2 2-5 2h-8.5c-1.8 0-3.5-.6-4.9-1.8-4.3-3.5-6.4-8-6.4-13.2 0-.6.4-1 1-1h1.2l.7-5c.2-1.6 1.7-2.8 3.4-2.6.9.1 1.7.6 2.2 1.4l.1.2.9 1.7c.1 0 .2 0 .3.1l1.5-2.7c.8-1.4 2.6-2 4.1-1.2.5.3.8.6 1.1 1.1l.1.2.7 1.4.1-.6c.1-1.9 1.7-3.3 3.5-3.2zm17.1-19 .8 1.8-6.3 2.9c-.8.4-1.2 1.2-1.2 2v.2l.2 1.3h8.3c.5 0 .9.4 1 .9v.1 31c0 1.6-1.2 2.9-2.8 3h-.2-10.8c-.6 0-1-.4-1-1 0-.5.4-.9.9-1h.1 11c.5 0 .9-.4 1-.9v-.1-21.5h-5.4l2.3 12.3-2 .4-2.3-12.7h-6.4v.3c0 .5-.4.9-.9 1h-.1c-.5 0-.9-.4-1-.9v-.1-9.8c0-.5.4-.9.9-1h.1 5.5l-.2-1c-.4-1.7.5-3.4 2-4.2l.2-.1zm-9 30.2h-27v.2c.3 4 2 7.3 5.2 10.2l.3.3c1 .8 2.3 1.3 3.6 1.3h8.5c1.4 0 2.7-.5 3.7-1.4 3.4-3.1 5.3-6.6 5.6-10.4zm4 3c.6 0 1 .4 1 1s-.4 1-1 1-1-.4-1-1 .4-1 1-1zm-23.3-7c-.4-.4-1-.4-1.4 0l-2.2 2.1h3.9v-1.4c0-.2-.1-.4-.3-.7zm8 0c-.4-.4-1-.4-1.4 0l-2.2 2.1h3.9v-1.4c0-.2-.1-.4-.3-.7zm8-.6c-.4-.4-1-.4-1.4.1l-2.4 2.6h4.1v-1.9c0-.3-.1-.5-.3-.8zm-12.7-3.4-1.6 2.8c.4.5.6 1.2.6 1.8v.6l2.9-2.8c.2-.2.5-.4.7-.5l-1-1.9c-.1-.2-.2-.3-.4-.4-.4-.2-.9 0-1.2.4zm6.3 0v.1l-.3 2.3.2.2c.5.6.8 1.3.8 2.1v.4l2.8-3c.1-.1.2-.2.2-.2l-1.5-2.6-.1-.1c-.2-.2-.4-.3-.7-.4h-.1c-.5 0-1.2.5-1.3 1.2zm10.7 3c.6 0 1 .4 1 1s-.4 1-1 1-1-.4-1-1c0-.5.4-1 1-1zm-25.1-1.8v.1l-.5 3.7 2.6-2.5c.1-.1.3-.2.4-.3l-.6-1.2c-.2-.3-.4-.5-.8-.5-.5-.1-1 .2-1.1.7zm32.1-2.2c.6 0 1 .4 1 1s-.4 1-1 1-1-.4-1-1c0-.5.4-1 1-1zm-7-11h-4.8v6.5h6zm9 0h-7l1.2 6.5h5.8z" fill="#fff" fill-rule="evenodd"/></mask><text fill="#666" font-family="NotoSansTC-Regular-83pv-RKSJ-H" font-size="16" transform="translate(-6 81)">茶飲零食</text><path d="m0 0h54v54h-54z" fill="none"/><g mask="url(#a)"><path clip-rule="evenodd" d="m0 0h54v54h-54z" fill="#df032e" fill-opacity=".3" fill-rule="evenodd"/></g><g transform="translate(5.805367 5.091664)"><path d="m20.9 19c.9.1 1.6.5 2.2 1.1l.1.2.1.1 1.7 2.9c.8 0 1.5.2 2.1.8s1 1.4 1 2.2v1.9h2c.5 0 .9.4 1 .9v.1c0 4.9-2.1 9.3-6.3 13-1.4 1.3-3.2 2-5 2h-8.5c-1.8 0-3.5-.6-4.9-1.8-4.3-3.5-6.4-8-6.4-13.2 0-.6.4-1 1-1h1.2l.7-5c.2-1.6 1.7-2.8 3.4-2.6.9.1 1.7.6 2.2 1.4l.1.2.9 1.7c.1 0 .2 0 .3.1l1.5-2.7c.8-1.4 2.6-2 4.1-1.2.5.3.8.6 1.1 1.1l.1.2.7 1.4.1-.6c.1-1.9 1.7-3.3 3.5-3.2zm17.1-19 .8 1.8-6.3 2.9c-.8.4-1.2 1.2-1.2 2v.2l.2 1.3h8.3c.5 0 .9.4 1 .9v.1 31c0 1.6-1.2 2.9-2.8 3h-.2-10.8c-.6 0-1-.4-1-1 0-.5.4-.9.9-1h.1 11c.5 0 .9-.4 1-.9v-.1-21.5h-5.4l2.3 12.3-2 .4-2.3-12.7h-6.4v.3c0 .5-.4.9-.9 1h-.1c-.5 0-.9-.4-1-.9v-.1-9.8c0-.5.4-.9.9-1h.1 5.5l-.2-1c-.4-1.7.5-3.4 2-4.2l.2-.1zm-9 30.2h-27v.2c.3 4 2 7.3 5.2 10.2l.3.3c1 .8 2.3 1.3 3.6 1.3h8.5c1.4 0 2.7-.5 3.7-1.4 3.4-3.1 5.3-6.6 5.6-10.4zm4 3c.6 0 1 .4 1 1s-.4 1-1 1-1-.4-1-1 .4-1 1-1zm-23.3-7c-.4-.4-1-.4-1.4 0l-2.2 2.1h3.9v-1.4c0-.2-.1-.4-.3-.7zm8 0c-.4-.4-1-.4-1.4 0l-2.2 2.1h3.9v-1.4c0-.2-.1-.4-.3-.7zm8-.6c-.4-.4-1-.4-1.4.1l-2.4 2.6h4.1v-1.9c0-.3-.1-.5-.3-.8zm-12.7-3.4-1.6 2.8c.4.5.6 1.2.6 1.8v.6l2.9-2.8c.2-.2.5-.4.7-.5l-1-1.9c-.1-.2-.2-.3-.4-.4-.4-.2-.9 0-1.2.4zm6.3 0v.1l-.3 2.3.2.2c.5.6.8 1.3.8 2.1v.4l2.8-3c.1-.1.2-.2.2-.2l-1.5-2.6-.1-.1c-.2-.2-.4-.3-.7-.4h-.1c-.5 0-1.2.5-1.3 1.2zm10.7 3c.6 0 1 .4 1 1s-.4 1-1 1-1-.4-1-1c0-.5.4-1 1-1zm-25.1-1.8v.1l-.5 3.7 2.6-2.5c.1-.1.3-.2.4-.3l-.6-1.2c-.2-.3-.4-.5-.8-.5-.5-.1-1 .2-1.1.7zm32.1-2.2c.6 0 1 .4 1 1s-.4 1-1 1-1-.4-1-1c0-.5.4-1 1-1zm-7-11h-4.8v6.5h6zm9 0h-7l1.2 6.5h5.8z" fill="#be0e31"/><g mask="url(#b)"><path clip-rule="evenodd" d="m0 0h54v54h-54z" fill="#be0e31" fill-rule="evenodd" transform="translate(-5.805367 -5.091664)"/></g></g></svg>