<?xml version="1.0" encoding="utf-8"?>
<!-- Generator: Adobe Illustrator 25.2.1, SVG Export Plug-In . SVG Version: 6.00 Build 0)  -->
<svg version="1.1" id="Layer_1" xmlns="http://www.w3.org/2000/svg" xmlns:xlink="http://www.w3.org/1999/xlink" x="0px" y="0px"
	 viewBox="0 0 35 35" style="enable-background:new 0 0 35 35;" xml:space="preserve">
<style type="text/css">
	.st0{opacity:0;fill:#FFFFFF;}
	.st1{fill:#FFFFFF;}
</style>
<g>
	<rect class="st0" width="35" height="35"/>
	<path id="b6in41seoa_1_" class="st1" d="M9.9,8.9L9.9,8.9l7.6,7.5L25,9c0.3-0.3,0.8-0.3,1.1,0c0.3,0.3,0.3,0.7,0.1,1H26l-7.5,7.5
		L26,25c0.3,0.3,0.3,0.7,0.1,1H26c-0.3,0.3-0.7,0.3-1,0.1V26l-7.5-7.5L10,26c-0.3,0.3-0.8,0.3-1.1,0s-0.3-0.7-0.1-1H9l7.5-7.5L9,10
		C8.7,9.7,8.7,9.3,8.9,9H9C9.2,8.7,9.7,8.7,9.9,8.9z"/>
</g>
</svg>
