<?xml version="1.0" encoding="utf-8"?>
<!-- Generator: Adobe Illustrator 25.2.1, SVG Export Plug-In . SVG Version: 6.00 Build 0)  -->
<svg version="1.1" id="Layer_1" xmlns="http://www.w3.org/2000/svg" xmlns:xlink="http://www.w3.org/1999/xlink" x="0px" y="0px"
	 viewBox="0 0 35 35" style="enable-background:new 0 0 35 35;" xml:space="preserve">
<style type="text/css">
	.st0{fill:#DF032E;}
</style>
<g>
	<path class="st0" d="M27.6,22.6c-1-1.2-1.6-2.5-1.6-4l-0.1-4c0-2.2-0.9-4.2-2.4-5.7c-0.7-0.7-1.5-1.2-2.4-1.6c0,0,0,0,0-0.1
		c0-1.9-1.6-3.4-3.4-3.4s-3.6,1.5-3.6,3.4v0.1c-0.9,0.4-1.8,0.9-2.4,1.6c-1.6,1.5-2.5,3.4-2.5,5.5L9,18.6c-0.1,1.6-0.7,3.1-1.9,4.3
		l-0.7,0.7c-0.6,0.6-1,1.8,0.1,3.4l0.3,0.4l5.4-0.1c0.4,2.2,2.5,3.9,5.2,3.9s5.1-1.8,5.2-4.2L29,27l0.1-0.9c0.1-0.9,0-1.8-0.7-2.5
		L27.6,22.6z M17.5,6.1c0.4,0,0.9,0.3,1,0.6c-0.3,0-0.7-0.1-1-0.1s-0.7,0-1,0.1C16.6,6.2,17.1,6.1,17.5,6.1z M17.5,29.1
		c-1.2,0-2.2-0.4-2.7-1.3h5.4C19.7,28.6,18.7,29.1,17.5,29.1z M8,25.3l0.6-0.9c1.5-1.5,2.4-3.6,2.5-5.8l0.1-4.2c0-1.5,0.6-3,1.8-4
		c1.3-1,2.8-1.6,4.5-1.6s3.1,0.6,4.3,1.8c1.2,1,1.8,2.5,1.8,4.2l0.1,4c0.1,1.9,0.9,3.9,2.2,5.5l0.6,0.6L8,25.3z"/>
	<path class="st0" d="M7.2,13.8c0-2.4,1-4.8,3-6.3c0.4-0.4,0.6-1,0.1-1.6c-0.4-0.4-1-0.4-1.5,0C6.3,7.9,5,10.9,5,13.8
		C5,14.4,5.4,15,6.2,15S7.2,14.4,7.2,13.8z"/>
	<path class="st0" d="M26.1,5.9c-0.4-0.4-1.2-0.3-1.6,0.1c-0.4,0.4-0.3,1.2,0.1,1.6c1.9,1.6,3,3.9,3,6.3c0,0.6,0.4,1.2,1.2,1.2
		c0.7,0,1.2-0.4,1.2-1.2C30,10.9,28.7,7.9,26.1,5.9z"/>
</g>
</svg>
