<svg enable-background="new 0 0 54 54" viewBox="0 0 54 54" xmlns="http://www.w3.org/2000/svg" xmlns:xlink="http://www.w3.org/1999/xlink"><mask id="a" height="54" maskUnits="userSpaceOnUse" width="54" x="-28" y="-13"><path clip-rule="evenodd" d="m12.4 7.7c-8.3-11.7-28.1-6.9-28.1 10.6 2.7 24.9 45.1 13.6 28.1-10.6z" fill="#fff" fill-rule="evenodd"/></mask><mask id="b" height="54" maskUnits="userSpaceOnUse" width="54" x="-28" y="-13"><path clip-rule="evenodd" d="m1.6-7.3c.6 0 1 .4 1 1 0 .5-.4.9-.9 1h-.2c-.5.1-1.3.5-1.8 1 .5 0 1 .1 1.5.3 1.8.5 3 1.4 3.8 2.7.2.3.3.6.5 1l.1.3.3.7v.1c.1.1.1.1.2.2.3.5.1 1.1-.4 1.4s-1.2 0-1.4-.5c0-.1-.1-.2-.1-.3l-.4-.9c-.2-.3-.3-.6-.5-.9-.6-.9-1.4-1.5-2.7-1.9-1.2-.4-2.2-.2-3.4.4l-.3.2-1 .5h-.1c-.4.4-.8.5-1.2.5-.2 0-.3 0-.5-.1l-.7-.2c-1.1-.2-2-.2-3.3.2-.7.3-1.1.6-1.5.9-.2.2-.3.4-.5.6l-.4.6c-.3.5-.6.8-1.1.9-.1 0-.2 0-.3.1h-.2-.3-.2c-1.4 0-2.1.2-3 .7-.7.4-1.4 1.1-2 2.1-1.1 1.8-.9 3.4-.1 5.2l.1.2.4.8c.2.4.3.7.4 1v.8.2l-.1.3-.1.5-.1.2c-.4 1.5-.4 2.4.4 3.5 1.9-.8 4-.4 5.5 1.3l.1.1.3.1c3.4 1.2 5.1 2.9 5.9 6.3l.5.2.5.2c1.9.7 2.9 1.5 4.1 3.2l.2.2c.1.2.3.4.4.7l.1.1c.5-1.5.8-3.6.8-5.9-1.4-1.2-4.6-2.2-6-2h-.2c-.5.1-1.1-.2-1.2-.8-.1-.5.2-1.1.8-1.2 1.5-.3 4.3.3 6.4 1.4-.1-.7-.2-1.4-.4-2.1 0-.1 0-.2-.1-.2-.1-.3-.2-.7-.3-1-2.3-2.4-6.1-2.9-10.6-2.3-.5.1-1.1-.3-1.1-.8-.1-.5.3-1.1.8-1.1 3.6-.5 6.9-.4 9.5.9-.7-1.3-1.5-2.5-2.4-3.7l.1.1c-1.1-.9-3.9-.8-5.4-.3-.5.2-1.1-.1-1.3-.6s.1-1.1.6-1.3c1-.3 2.2-.6 3.5-.5-.6-.6-1.3-1.1-2-1.7-.4-.3-.5-1-.2-1.4s1-.5 1.4-.2c1.8 1.4 3.3 2.8 4.6 4.4.1.1.2.2.3.3s.1.2.2.3c.4-1.2 1-2.3 1.9-3.5.7-.2.9-.5 1.2-.8l.9-1.1c.3-.4 1-.5 1.4-.1.4.3.5 1 .1 1.4l-.6.8-.4.5c-.1 0-.1.1-.2.2l-.3.4c-1.2 1.6-1.8 3.1-1.9 4.7.6.9 1 1.9 1.4 2.8 1.5-3.6 4.5-6.8 7.1-7.4.5-.1 1.1.2 1.2.7s-.2 1.1-.7 1.2c-2.6.6-6.1 5-6.4 9 .2.9.4 1.8.5 2.8.1.6.1 1.1.1 1.7v.3c0 .8 0 1.6-.1 2.4.7-.7 1.6-1.3 2.7-1.8l.5-.2.5-.2.5-.2.5-.2c-.3-3.4.2-5.8 2.5-8.2l.1-.1c-1.4-3.1 0-7.4 2.4-8.5l.2-.3v-.2c.4-1.5 1.3-2.6 2.5-3.3v-.5c-.1-.5-.2-.8-.4-1.2-.2-.5-.5-.9-.9-1.3-.2-.2-.3-.3-.5-.4-.5-.3-1-.5-1.5-.7-.1 0-.3-.1-.4-.1l-.3-.1-.5.1c-.5-.1-.7-.2-1-.5-.1-.2-.2-.5-.3-.8l-.2-.3-.1-.4-.1-.3c0-.1-.1-.2-.1-.3-.2-.5-.5-.8-.9-1-.5-.3-.6-.9-.3-1.4s.9-.6 1.4-.3c.8.5 1.3 1.1 1.7 2 .1.2.1.3.2.5l.2.5.1.3v.1l.4.1c.3 0 .6.1.8.2.7.2 1.4.5 2.1 1 .3.2.5.4.7.6.6.5 1 1.2 1.3 1.9.2.4.3.7.4 1.2l.1.3.1.4h.1c2.5-.4 4.4 1.1 4.4 3.7 0 1.4-.8 2.5-2.3 3.2.1.3.3.7.4 1.2l.1.3c0 .1.1.3.1.4.3 1.4.4 2.8.5 4.6.1 2.5-.2 5.1-.9 7.5-.9 3-3.4 6.5-6.6 8.8-3.9 2.8-8.4 3.7-13 2l.2.1h-.2c-6 .7-9.8-1-12.4-4.5l-.2-.2-.2-.2-.2-.3-.2-.3-.2-.3-.3-.6-.4-.8-.9-1.8v-.1-.1h-.4c-3-.1-4.5-.6-5.1-2.8l-.1-.2c-.3-1.2.3-2.5 1.3-3.4-1.1-1.5-1.2-2.9-.8-4.8l.2-.7.1-.2v-.2-.1s0 0 0-.1v-.1-.1l-.2-.4-.4-.8-.1-.1c-1.2-2.4-1.3-4.6.1-7.1.7-1.3 1.6-2.2 2.7-2.8 1.2-.7 2.2-.9 3.7-1h.7l.3-.5.1-.1c.2-.4.5-.7.8-1 .5-.5 1.3-.9 2.2-1.3 1.6-.9 2.9-1 4.2-.7l.4.1.6.2h.1l.1-.1.2-.1 1-.6c.5-.3.9-.5 1.4-.6.2-1.6 2.5-3.4 4.2-3.4zm15.8 20.5v.3c0 1.6 0 2.7-.2 3.9-.6 3.3-2.5 5.8-6.1 7.1l-.7.3-1.4.5-.9.3-.8.3c-.1.1-.2.1-.2.1l-.5.2-.4.2c-.1 0-.1.1-.2.1l-.4.2c-.3.2-.5.3-.6.4l-.3.2c-1 .7-1.7 1.4-2.4 2.4l-.3.4c-.1.1-.1.2-.2.4l-.2.4-.2.4-.2.4v.1c-.2.5-.4.9-.6 1.2l.3.1c3.5 1 6.8.2 9.8-1.8l.3-.2c2.8-2 5.1-5.2 5.8-7.8.6-2.2.9-4.5.8-6.9 0-1.1-.1-2-.2-2.9zm-31.4 7.7c-1-1.3-2.3-1.6-3.6-1h-.1s0 .1-.1.1c-.1.1-.3.2-.4.2-.8.5-1.2 1.3-1.1 1.8.2.9.8 1.3 2.2 1.4h.4.2.5.5c.6 0 1.1.4 1.5.9v.1l.2.3 1.1 2.1.4.8.2.4.2.3c.1.1.1.2.2.3 2 3.1 5 4.6 10 4.2h.1l-.2-.3c-.2-.5-.4-.9-.7-1.3l-.2-.3c-1.1-1.5-1.8-2.1-3.4-2.8l-.5-.2-.7-.3-.3-.1c-.3-.1-.5-.4-.6-.7-.6-3.3-2-4.6-5.3-5.6-.2 0-.4-.2-.5-.3zm30.7-16c-1.4.2-2.6 1.2-2.7 2.7v.2l-.1.9-.9.1c-1.5.1-2.9 4-1.6 6.3l.1.2.5.7-.6.6c-2.1 2-2.7 3.8-2.6 6.7l.5-.3 1.1-.4c2.9-1 4.3-2.9 4.8-5.6.2-1 .2-1.9.2-3.2v-.7-.8-.8-.4-.2-.1-.2-.2-.2c0-.1 0-.1 0-.2l.1-.2c.3-.8.9-1.4 1.5-1.4 1.4-.3 2-.9 2-1.6 0-1.4-.9-2.1-2.3-1.9zm-12.4-12.4c.6 0 1 .4 1 1 0 .5-.4.9-.9 1h-.1-.3c-.6 0-1-.4-1-1 0-.5.4-.9.9-1h.1z" fill="#fff" fill-rule="evenodd"/></mask><path d="m0 0h54v54h-54z" fill="none"/><g transform="translate(28 13)"><g mask="url(#a)"><path clip-rule="evenodd" d="m-28-13h54v54h-54z" fill="#df032e" fill-opacity=".3" fill-rule="evenodd"/></g><path d="m1.6-7.3c.6 0 1 .4 1 1 0 .5-.4.9-.9 1h-.2c-.5.1-1.3.5-1.8 1 .5 0 1 .1 1.5.3 1.8.5 3 1.4 3.8 2.7.2.3.3.6.5 1l.1.3.3.7v.1c.1.1.1.1.2.2.3.5.1 1.1-.4 1.4s-1.2 0-1.4-.5c0-.1-.1-.2-.1-.3l-.4-.9c-.2-.3-.3-.6-.5-.9-.6-.9-1.4-1.5-2.7-1.9-1.2-.4-2.2-.2-3.4.4l-.3.2-1 .5h-.1c-.4.4-.8.5-1.2.5-.2 0-.3 0-.5-.1l-.7-.2c-1.1-.2-2-.2-3.3.2-.7.3-1.1.6-1.5.9-.2.2-.3.4-.5.6l-.4.6c-.3.5-.6.8-1.1.9-.1 0-.2 0-.3.1h-.2-.3-.2c-1.4 0-2.1.2-3 .7-.7.4-1.4 1.1-2 2.1-1.1 1.8-.9 3.4-.1 5.2l.1.2.4.8c.2.4.3.7.4 1v.8.2l-.1.3-.1.5-.1.2c-.4 1.5-.4 2.4.4 3.5 1.9-.8 4-.4 5.5 1.3l.1.1.3.1c3.4 1.2 5.1 2.9 5.9 6.3l.5.2.5.2c1.9.7 2.9 1.5 4.1 3.2l.2.2c.1.2.3.4.4.7l.1.1c.5-1.5.8-3.6.8-5.9-1.4-1.2-4.6-2.2-6-2h-.2c-.5.1-1.1-.2-1.2-.8-.1-.5.2-1.1.8-1.2 1.5-.3 4.3.3 6.4 1.4-.1-.7-.2-1.4-.4-2.1 0-.1 0-.2-.1-.2-.1-.3-.2-.7-.3-1-2.3-2.4-6.1-2.9-10.6-2.3-.5.1-1.1-.3-1.1-.8-.1-.5.3-1.1.8-1.1 3.6-.5 6.9-.4 9.5.9-.7-1.3-1.5-2.5-2.4-3.7l.1.1c-1.1-.9-3.9-.8-5.4-.3-.5.2-1.1-.1-1.3-.6s.1-1.1.6-1.3c1-.3 2.2-.6 3.5-.5-.6-.6-1.3-1.1-2-1.7-.4-.3-.5-1-.2-1.4s1-.5 1.4-.2c1.8 1.4 3.3 2.8 4.6 4.4.1.1.2.2.3.3s.1.2.2.3c.4-1.2 1-2.3 1.9-3.5.7-.2.9-.5 1.2-.8l.9-1.1c.3-.4 1-.5 1.4-.1.4.3.5 1 .1 1.4l-.6.8-.4.5c-.1 0-.1.1-.2.2l-.3.4c-1.2 1.6-1.8 3.1-1.9 4.7.6.9 1 1.9 1.4 2.8 1.5-3.6 4.5-6.8 7.1-7.4.5-.1 1.1.2 1.2.7s-.2 1.1-.7 1.2c-2.6.6-6.1 5-6.4 9 .2.9.4 1.8.5 2.8.1.6.1 1.1.1 1.7v.3c0 .8 0 1.6-.1 2.4.7-.7 1.6-1.3 2.7-1.8l.5-.2.5-.2.5-.2.5-.2c-.3-3.4.2-5.8 2.5-8.2l.1-.1c-1.4-3.1 0-7.4 2.4-8.5l.2-.3v-.2c.4-1.5 1.3-2.6 2.5-3.3v-.5c-.1-.5-.2-.8-.4-1.2-.2-.5-.5-.9-.9-1.3-.2-.2-.3-.3-.5-.4-.5-.3-1-.5-1.5-.7-.1 0-.3-.1-.4-.1l-.3-.1-.5.1c-.5-.1-.7-.2-1-.5-.1-.2-.2-.5-.3-.8l-.2-.3-.1-.4-.1-.3c0-.1-.1-.2-.1-.3-.2-.5-.5-.8-.9-1-.5-.3-.6-.9-.3-1.4s.9-.6 1.4-.3c.8.5 1.3 1.1 1.7 2 .1.2.1.3.2.5l.2.5.1.3v.1l.4.1c.3 0 .6.1.8.2.7.2 1.4.5 2.1 1 .3.2.5.4.7.6.6.5 1 1.2 1.3 1.9.2.4.3.7.4 1.2l.1.3.1.4h.1c2.5-.4 4.4 1.1 4.4 3.7 0 1.4-.8 2.5-2.3 3.2.1.3.3.7.4 1.2l.1.3c0 .1.1.3.1.4.3 1.4.4 2.8.5 4.6.1 2.5-.2 5.1-.9 7.5-.9 3-3.4 6.5-6.6 8.8-3.9 2.8-8.4 3.7-13 2l.2.1h-.2c-6 .7-9.8-1-12.4-4.5l-.2-.2-.2-.2-.2-.3-.2-.3-.2-.3-.3-.6-.4-.8-.9-1.8v-.1-.1h-.4c-3-.1-4.5-.6-5.1-2.8l-.1-.2c-.3-1.2.3-2.5 1.3-3.4-1.1-1.5-1.2-2.9-.8-4.8l.2-.7.1-.2v-.2-.1s0 0 0-.1v-.1-.1l-.2-.4-.4-.8-.1-.1c-1.2-2.4-1.3-4.6.1-7.1.7-1.3 1.6-2.2 2.7-2.8 1.2-.7 2.2-.9 3.7-1h.7l.3-.5.1-.1c.2-.4.5-.7.8-1 .5-.5 1.3-.9 2.2-1.3 1.6-.9 2.9-1 4.2-.7l.4.1.6.2h.1l.1-.1.2-.1 1-.6c.5-.3.9-.5 1.4-.6.2-1.6 2.5-3.4 4.2-3.4zm15.8 20.5v.3c0 1.6 0 2.7-.2 3.9-.6 3.3-2.5 5.8-6.1 7.1l-.7.3-1.4.5-.9.3-.8.3c-.1.1-.2.1-.2.1l-.5.2-.4.2c-.1 0-.1.1-.2.1l-.4.2c-.3.2-.5.3-.6.4l-.3.2c-1 .7-1.7 1.4-2.4 2.4l-.3.4c-.1.1-.1.2-.2.4l-.2.4-.2.4-.2.4v.1c-.2.5-.4.9-.6 1.2l.3.1c3.5 1 6.8.2 9.8-1.8l.3-.2c2.8-2 5.1-5.2 5.8-7.8.6-2.2.9-4.5.8-6.9 0-1.1-.1-2-.2-2.9zm-31.4 7.7c-1-1.3-2.3-1.6-3.6-1h-.1s0 .1-.1.1c-.1.1-.3.2-.4.2-.8.5-1.2 1.3-1.1 1.8.2.9.8 1.3 2.2 1.4h.4.2.5.5c.6 0 1.1.4 1.5.9v.1l.2.3 1.1 2.1.4.8.2.4.2.3c.1.1.1.2.2.3 2 3.1 5 4.6 10 4.2h.1l-.2-.3c-.2-.5-.4-.9-.7-1.3l-.2-.3c-1.1-1.5-1.8-2.1-3.4-2.8l-.5-.2-.7-.3-.3-.1c-.3-.1-.5-.4-.6-.7-.6-3.3-2-4.6-5.3-5.6-.2 0-.4-.2-.5-.3zm30.7-16c-1.4.2-2.6 1.2-2.7 2.7v.2l-.1.9-.9.1c-1.5.1-2.9 4-1.6 6.3l.1.2.5.7-.6.6c-2.1 2-2.7 3.8-2.6 6.7l.5-.3 1.1-.4c2.9-1 4.3-2.9 4.8-5.6.2-1 .2-1.9.2-3.2v-.7-.8-.8-.4-.2-.1-.2-.2-.2c0-.1 0-.1 0-.2l.1-.2c.3-.8.9-1.4 1.5-1.4 1.4-.3 2-.9 2-1.6 0-1.4-.9-2.1-2.3-1.9zm-12.4-12.4c.6 0 1 .4 1 1 0 .5-.4.9-.9 1h-.1-.3c-.6 0-1-.4-1-1 0-.5.4-.9.9-1h.1z" fill="#be0e31"/><g mask="url(#b)"><path clip-rule="evenodd" d="m-28-13h54v54h-54z" fill="#be0e31" fill-rule="evenodd"/></g></g></svg>