<svg enable-background="new 0 0 45 45" viewBox="0 0 45 45" xmlns="http://www.w3.org/2000/svg"><path d="m19.4 24.5c.7 0 1.2.5 1.2 1.2v12.6c0 .7-.5 1.2-1.2 1.2h-12.6c-.7 0-1.2-.5-1.2-1.2v-12.7c0-.7.5-1.2 1.2-1.2h12.6zm18.8 0c.7 0 1.2.5 1.2 1.2v12.6c0 .7-.5 1.2-1.2 1.2h-12.6c-.7 0-1.2-.5-1.2-1.2v-12.7c0-.7.5-1.2 1.2-1.2h12.6zm-20 2.3h-10.2v10.2h10.2zm18.8 0h-10.2v10.2h10.2zm-17.6-21.2c.7 0 1.2.5 1.2 1.2v12.6c0 .7-.5 1.2-1.2 1.2h-12.6c-.7 0-1.2-.5-1.2-1.2v-12.6c0-.7.5-1.2 1.2-1.2zm18.8 0c.7 0 1.2.5 1.2 1.2v12.6c0 .7-.5 1.2-1.2 1.2h-12.6c-.7 0-1.2-.5-1.2-1.2v-12.6c0-.7.5-1.2 1.2-1.2zm-20 2.4h-10.2v10.2h10.2zm18.8 0h-10.2v10.2h10.2z" fill="#333"/></svg>