<svg enable-background="new 0 0 45 45" viewBox="0 0 45 45" xmlns="http://www.w3.org/2000/svg"><path d="m36.5 5.2c.6 0 1.1.5 1.1 1.1s-.4 1-1 1.1h-.2-16.4v2.3h.1.2 16.5c.6 0 1.1.5 1.1 1.1s-.4 1-1 1.1h-.2-16.5c-.1 0-.2 0-.3 0l-.1 9h17.6c.6 0 1.1.4 1.1 1v.1 3c0 5-3.1 9.2-7.5 10.9v1.1c0 1.4-1.2 2.6-2.6 2.6h-12c-1.4 0-2.6-1.2-2.6-2.6v-1.1c-4.4-1.7-7.5-5.9-7.5-10.9v-3c0-.6.5-1.1 1.1-1.1h4.1l.1-9h-3.1c-.6 0-1.1-.5-1.1-1.1s.4-1 1-1.1h.2 3.2v-2.2h-3.3c-.6 0-1.1-.5-1.1-1.1s.4-1 1-1.1h.2 27.9zm-7.6 31.6h-12.8v.4c0 .2.1.3.3.4h.1 12c.2 0 .4-.2.4-.4zm7.5-13.6h-27.8v1.9c0 5.1 4 9.2 9 9.4h.3 9c5.2 0 9.4-4.2 9.4-9.4v-1.9zm-18.8-2.2.1-13.5h-.7l-.1 13.5zm-2.8-13.5h-.8l-.1 13.5h.8z" fill="#be0e31"/></svg>