<svg enable-background="new 0 0 150 150" viewBox="0 0 150 150" xmlns="http://www.w3.org/2000/svg"><path d="m75 9c36.5 0 66 29.5 66 66s-29.5 66-66 66-66-29.5-66-66 29.5-66 66-66zm0 8.2c-31.9 0-57.8 25.9-57.8 57.8s25.9 57.8 57.8 57.8 57.8-25.9 57.8-57.8-25.9-57.8-57.8-57.8zm17.4 32.9c2.2-1.7 5.3-1.6 7.3.4 2.1 2.1 2.1 5.6 0 7.8l-17.2 17.2 19.5 19.5c2.1 2.1 2.1 5.6 0 7.8-2 2-5.1 2.1-7.3.4l-.5-.4-19.5-19.5-19.5 19.5-.5.4c-2.2 1.7-5.3 1.6-7.3-.4-2.1-2.1-2.1-5.6 0-7.8l19.5-19.5-17.2-17.2c-2.1-2.1-2.1-5.6 0-7.8 2-2 5.1-2.1 7.3-.4l.5.4 17.2 17.2 17.2-17.2z" fill="#df032e"/></svg>