<svg height="49" viewBox="0 0 80 49" width="80" xmlns="http://www.w3.org/2000/svg"><g fill="none" fill-rule="evenodd"><g fill="#fff"><path d="m2.11431229 47.7783544c0 .197755.0151495.3401068.04571429.4273205.030299.0874788.0895681.1465932.17700996.1768131.08770765.0307501.2304319.045595.42870432.045595h.38857143c.59401994 0 1.10857143-.1577268 1.54285715-.4729155.43428571-.3151886.72372093-.7427742.86830564-1.2824916 0-.01511.01541529-.0227975.04598007-.0227975.0151495 0 .03215947.0058319.05156146.0172307.01887043.0113987.02843854.0209418.02843854.0283643-.06857143.7523173-.10285714 1.3792484-.10285714 1.8810584 0 .060705-.01355482.1041793-.04013289.1309531-.02684386.0265087-.0704319.0397631-.13129568.0397631h-5.39428572c-.01541528 0-.02285714-.0227975-.02285714-.0683925 0-.0453299.00744186-.0681274.02285714-.0681274.24372093 0 .42099668-.0190863.53129568-.0572589.11056479-.0379074.18657808-.1118667.22857143-.222143.04172758-.1100112.06299003-.2794019.06299003-.5073768v-5.2773551c0-.22824-.02126245-.3952449-.06299003-.50181-.04199335-.1062999-.11986711-.1805243-.2344186-.222143-.11401994-.0416187-.28943522-.0628257-.52544851-.0628257-.01541528 0-.02285714-.0227974-.02285714-.0683924s.00744186-.0683925.02285714-.0683925l.58285714.0113987c.35029901.0153751.63973422.0227975.86857143.0227975.22857143 0 .51800665-.0074224.86830565-.0227975l.58312292-.0113987c.02285715 0 .03428572.0227975.03428572.0683925s-.01142857.0683924-.03428572.0683924c-.23627907 0-.41142857.021207-.52571428.0628257-.11428572.0416187-.19056479.1179638-.22857143.227975-.03827243.1102762-.05714286.2791367-.05714286.5073768z"/><path d="m17.2625116 48.2287905c.3388705-.2470612.6035881-.6081099.7941529-1.082881.1905647-.4750362.2857142-1.043118.2857142-1.7042453 0-.6990349-.106578-1.3241104-.32-1.8752266-.2131561-.5508511-.5217275-.9818828-.9254485-1.2936253-.4042525-.3114774-.876279-.4670836-1.4171428-.4670836-.693422 0-1.2268439.2600505-1.6002658.7806817s-.5597342 1.2480303-.5597342 2.1827276c0 .7369423.1121594 1.3964792.3370099 1.9775502.2245848.5816012.5331562 1.0354304.9257143 1.3622829.3925582.3268525.8358804.4901462 1.3315615.4901462.4263123 0 .8093023-.1232656 1.1484385-.3703268m-3.4171428.1595825c-.5525582-.3308288-.9791362-.7790912-1.28-1.3453173-.3011296-.565696-.4512957-1.1836142-.4512957-1.852164 0-.7825373.1980066-1.4532078.5940199-2.0120115.3960133-.5582735.9049834-.9781716 1.5258472-1.2594291.6208638-.2809923 1.2550166-.4217536 1.90299-.4217536.7234552 0 1.36.1691256 1.9083057.5071117.5488372.3385163.9695681.784658 1.26299 1.3394854.2931562.5548274.4401329 1.1438511.4401329 1.7668059 0 .6916124-.1831229 1.326231-.5488372 1.9035908-.3657143.5776249-.8552824 1.0335748-1.4684385 1.3678497-.613422.33454-1.2781396.5015449-1.9941529.5015449-.7085714 0-1.3392691-.1651493-1.8915614-.4957129"/><path d="m28.5023787 48.3085287c.0531562.1102763.1544186.1879468.3029901.2335418.1483056.0458601.3867109.0686576.7141528.0686576.0228571 0 .0342857.0227975.0342857.0681274 0 .045595-.0114286.0683925-.0342857.0683925-.3125581 0-.5562791-.0034462-.7314286-.0113988l-.9942857-.0113987-.8342857.0113987c-.1525581.0079526-.3580066.0113988-.6171429.0113988-.0228571 0-.0342857-.0227975-.0342857-.0683925 0-.0453299.0114286-.0681274.0342857-.0681274.243721 0 .4209967-.0190863.5315615-.0572589.110299-.0379074.1844518-.1118667.2227243-.222143.0380066-.1100112.0571428-.2794019.0571428-.5073768v-5.2773551c0-.22824-.0191362-.3952449-.0571428-.50181-.0382725-.1062999-.1142858-.1805243-.2283057-.222143-.1145515-.0416187-.289701-.0628257-.5259801-.0628257-.0228571 0-.0342857-.0227974-.0342857-.0683924s.0114286-.0683925.0342857-.0683925l.6057143.0113987c.3505648.0153751.6288372.0227975.8342857.0227975.1828572 0 .4-.0113987.6514286-.0341962.0988704-.0074225.2245847-.0148449.3771429-.0227975.1522923-.0074225.3277076-.0113988.5257143-.0113988.7771428 0 1.390299.1617032 1.8402657.4845794.4491695.3228761.6742857.8225654.6742857 1.4988027 0 .471325-.1219933.8702812-.36598 1.1968685-.2437209.3268525-.5581396.5739137-.9427243.7409186-.3848505.16727-.7792691.2510376-1.1827242.2510376-.2059801 0-.3851163-.0190863-.5374087-.0572589-.0154152 0-.0228571-.0185561-.0228571-.0569937 0-.0227975.0058472-.045595.0172757-.0683925.0114286-.0227975.0244519-.0302199.0398672-.0227975.1142857.030485.2437209.045595.3885714.045595.350299 0 .6418604-.1632937.8744186-.4901461.2322923-.3265874.3484385-.7902249.3484385-1.3906473 0-.6001573-.1275747-1.0637947-.3827242-1.3906472-.2554153-.3265873-.626711-.489881-1.1144186-.489881-.213422 0-.3582725.0493062-.4342857.1479186-.0762791.0988775-.1142858.2926562-.1142858.5816012v5.2089626c0 .24335.0265781.4201631.08.5301743"/><path d="m43.3705249 43.2418384c0 .0153751-.0209967.0267738-.0627242.0341962-.0422592.0074225-.066711 0-.0744186-.0227974-.1219934-.44084-.3277077-.7676924-.6171429-.9802923-.289701-.212865-.670299-.319165-1.1428571-.319165h-.3428572c-.2285714 0-.3962791.0493062-.5025913.1479187-.1071097.0988775-.1602658.2510375-.1602658.4562149v2.4621295h.8228571c.4419934 0 .7787376-.0779356 1.0112957-.2338068.2325581-.1556062.3487043-.3703268.3487043-.6441618 0-.0148449.0228572-.0225324.0685714-.0225324.0459801 0 .0688373.0076875.0688373.0225324l-.0114286 1.0375511c0 .24335.0034551.4254649.0114286.5471399l.0114285.6038685c0 .0227975-.0228571.0341963-.0688372.0341963-.0457143 0-.0685714-.0113988-.0685714-.0341963 0-.3037899-.1198671-.5450192-.3601329-.7236879-.2397342-.1784037-.5807309-.2680031-1.0227243-.2680031h-.8114285v2.439332c0 .2359275.030299.4103549.0914285.5246075.0608638.1137223.1751495.1935136.3428572.2391086.1677076.04586.430299.0686575.7888372.0686575.0148837 0 .0228571.0227975.0228571.0683925s-.0079734.0683925-.0228571.0683925c-.3125581 0-.5565449-.0037112-.7314286-.0113987l-1.16598-.0113988-.8571429.0113988c-.1525581.0076875-.3619934.0113987-.6285714.0113987-.0228572 0-.0342857-.0227975-.0342857-.0683925s.0114285-.0683925.0342857-.0683925c.266578 0 .4611295-.0188211.5831229-.0572588.1217276-.0376424.203588-.1118668.2453156-.222143.0419934-.1100112.0632558-.2791368.0632558-.5073768v-5.2773551c0-.227975-.019402-.3949799-.0574086-.50181-.0382724-.1062999-.1142857-.1802593-.2285714-.222143-.1142858-.0416187-.2894353-.0628257-.5257143-.0628257-.0228572 0-.0342857-.0227975-.0342857-.0683925s.0114285-.0681274.0342857-.0681274h4.8457143c.076279 0 .1142857.0339312.1142857.1023237z"/><path d="m52.2388837 45.020043h1.7254485l-.9140199-1.8012672zm5.5425914 3.658998c0 .045595-.0191362.0683925-.0568771.0683925-.1528239 0-.3885714-.0076875-.7085714-.0227975-.3354153-.015375-.5754153-.0227975-.72-.0227975-.1905648 0-.4228572.0074225-.6971429.0227975-.2591362.01511-.4648505.0227975-.6174086.0227975-.030299 0-.0457143-.0227975-.0457143-.0683925s.0154153-.0683925.0457143-.0683925c.1980066 0 .3412624-.0209418.4287043-.0628256.0877076-.0418838.1315615-.1158431.1315615-.222143 0-.1293626-.0762791-.3459388-.2288372-.6497287l-1.1883057-2.3370083h-2.0345515l-.8111628 1.7896034c-.0991362.2205525-.1488372.425995-.1488372.6155323 0 .2738351.0972758.486435.2915615.638595s.4552824.2279749.7827242.2279749c.0382725 0 .0574087.0227975.0574087.0683925s-.0191362.0683925-.0574087.0683925c-.1371428 0-.3354153-.0076875-.5940199-.0227975-.289701-.015375-.5411296-.0227975-.7542857-.0227975-.2059801 0-.4534219.0074225-.7428572.0227975-.259402.01511-.4688372.0227975-.6285714.0227975-.0305648 0-.0457143-.0227975-.0457143-.0683925s.0151495-.0683925.0457143-.0683925c.2128904 0 .3920266-.0437393.5368771-.1312181.1448505-.0872137.289701-.2430849.4345515-.4673487.1445847-.2242637.3157475-.5564179.5142857-.9975229l2.48-5.4369376c.0148837-.0227974.0494352-.0341962.1025914-.0341962.0611295 0 .0954152.0113988.1031229.0341962l2.8571428 5.6081839c.2665781.5394523.4874419.9116347.6625914 1.1170773.1751495.2049123.3582724.3077661.5488372.3077661.0377409 0 .0568771.0227975.0568771.0683925z"/><path d="m66.0099136 48.3369991c.0382724.1062999.1124253.1786687.2229901.2163111.110299.0384376.2875747.0572588.5315614.0572588.0228572 0 .0342857.0227975.0342857.0683925s-.0114285.0683925-.0342857.0683925c-.2514286 0-.4499668-.0037112-.5942857-.0113988l-.8688372-.0113987-.8457143.0113987c-.1522924.0076876-.3580066.0113988-.6171429.0113988-.0154152 0-.0228571-.0227975-.0228571-.0683925s.0074419-.0683925.0228571-.0683925c.243721 0 .423123-.0188212.5374087-.0572588.1140199-.0376424.1921595-.1116017.2341528-.221878.0417276-.1102762.06299-.2794018.06299-.5076419v-5.277355c0-.227975-.0212624-.3949799-.06299-.5015449-.0419933-.1065651-.1201329-.1805244-.2341528-.2221431-.1142857-.0416186-.2936877-.0630907-.5374087-.0630907-.0154152 0-.0228571-.0225324-.0228571-.0681274s.0074419-.0683925.0228571-.0683925l.6171429.0113988c.3505648.0151099.6322924.0227975.8457143.0227975.2362791 0 .5294352-.0076876.8802658-.0227975l.5828571-.0113988c.0228572 0 .0342857.0227975.0342857.0683925s-.0114285.0681274-.0342857.0681274c-.2365448 0-.4116943.0227975-.5259801.0686576-.1140199.045595-.190299.1235306-.2285714.2335418-.0382724.1102762-.0571428.2794018-.0571428.5073768v5.2545575c0 .2359276.0188704.4069088.0571428.5132088"/><path d="m73.4956279 43.6521668c-.0077076.0227975-.0305648.0323406-.0688372.0283643-.0380066-.0037112-.0571429-.0169655-.0571429-.039763.0305648-.3037899.0648505-.6971793.103123-1.179903.0380066-.4821935.0571428-.8453629.0571428-1.0887129 0-.0376424.0207309-.0567287.0627243-.0567287.0417275 0 .06299.0190863.06299.0567287 0 .16727.2171429.2510375.6514286.2510375.6551495.0227975 1.420598.0341963 2.2968771.0341963.449701 0 .92598-.0076876 1.4285714-.0227975l.7774086-.0113988c.2894352 0 .5007309-.0190862.6341528-.0569937.133422-.0381726.2190034-.1139875.2572758-.227975.0074419-.030485.0324252-.045595.0741528-.045595s.0627243.01511.0627243.045595c-.0228572.227975-.047309.5927349-.0741529 1.0940147-.0268438.50181-.0398671.9047425-.0398671 1.2085324 0 .0227975-.019402.0341962-.0571428.0341962-.0382724 0-.0611296-.0113987-.0685715-.0341962-.1145514-.5850474-.3277076-1.0240317-.64-1.3166879-.3125581-.2923912-.6971428-.4387193-1.1542857-.4387193-.2211295 0-.3678405.0474506-.4401329.1423518-.0725581.0951663-.1087043.2754256-.1087043.5415731v5.2545576c0 .2359275.0228572.4066437.0685715.5132087.0457142.1062999.1334219.1786687.2631229.2163111.1294352.0384376.3348837.0572588.6171428.0572588.0228572 0 .0342857.0227975.0342857.0683925s-.0114285.0683925-.0342857.0683925c-.2742857 0-.4916943-.0037112-.6514285-.0113987l-.9488372-.0113988-.9254486.0113988c-.1602657.0076875-.3811295.0113987-.6628571.0113987-.0228571 0-.0342857-.0227975-.0342857-.0683925s.0114286-.0683925.0342857-.0683925c.2742857 0 .4781395-.0188212.6115615-.0572588.1331561-.0376424.2243189-.1118668.2740199-.222143.0494352-.1100112.0744186-.2791368.0744186-.5073768v-5.2773551c0-.25846-.0345515-.4334175-.1031229-.5243424-.0683057-.09119-.2094352-.136785-.4225914-.136785-.9071096 0-1.5582724.5890237-1.9542857 1.7668059"/></g><path d="m29.6236545 18.7583093c-.0002658.0002651-.0002658.0005302-.0005316.0005302-.0042525.0034461-.0077076.0055668-.0122259.0090129-.3837874.2791368-.7569435.5232821-1.2491694.8169986-.4462459.2701239-.8082392.4551547-1.1194685.5707327-.2376079.1023236-.4489036.1068301-.4805315.0983473-.0087708-.0259785-.0007974-.1537505.1485714-.4002816.9257143-1.5809798 3.556412-4.1016935 5.3076412-5.7778396.6455814.0418838 2.0247176.0946361 3.3703654.1404962-2.3922923 1.8723106-5.4256478 4.1433122-5.9646511 4.5420033m9.357608-5.2330855c-.3085715-.0053018-.7510964-.0153751-1.2640532-.0286294.1871096-.1529553.3617276-.2976929.5172093-.4291761.1496346-.1267117.1820598-.3485896.0757475-.5153295-.058206-.0922503-.1520266-.1540156-.2567442-.1699208-.1031229-.0148449-.2083721.0145798-.2883721.0827072-.3346179.283113-.7540199.6242802-1.224186.9991134-1.2696346-.0373772-2.6718937-.0866835-3.5744851-.1343991 1.757608-1.6321417 4.0725582-3.61950005 6.306711-5.4117543 6.7468439-5.47802605 12.2397342-7.81344388 16.3250498-6.94395801 1.7230565.36741079 3.4035881 1.99610627 3.2342857 4.08684866-.3213289 3.74647675-3.7990697 5.27974085-7.3342192 6.52936165-.2344186.0835025-5.8038538 2.0448824-12.5169435 1.9351363m16.7646511-13.29677169c-5.0814618-1.08367629-13.4809302 1.77422832-19.9774086 6.79179798-2.6641861 2.05813667-5.370897 4.45982631-7.0530233 6.05565101l-.2966113-.0315454c-1.152691-.1219401-2.0632558-.2181667-3.3166777-.4283809-6.3351495-1.0637947-10.8831894-.3191649-13.1516279 2.1540983-.7577409.8262766-1.1128239 2.0326883-.9267774 3.148175.1334219.8005632.5985382 1.9216168 2.0563455 2.7168782.996412.5439589 2.7316943 1.0372861 4.5291694 1.0372861.3723588 0 .747907-.021207 1.12-.0675972.9884386-.1232656 2.3324917-.5423684 2.9887043-1.1043531.1477741-.1256513.179402-.3530961.0730897-.5166549-.0587375-.0914551-.1528239-.1526902-.2575415-.1680652-.1028571-.0135195-.2083721.0161703-.2878405.0845628-.516412.4421653-1.450897.751257-2.3813954.7875739-.9679734.0392329-1.8304319-.1139875-2.6320265-.4668185-1.0381396-.4570102-1.6927575-1.1682391-1.945515-2.1143351-.2817276-1.0529262.0209967-2.2137429.4653821-2.8160209 1.8118272-2.457623 5.2438538-2.5273409 10.1940199-1.8426208 1.1750166.1624984 2.0550166.2595203 3.0360133.3578677-.7736877.7305802-1.930897 1.861442-2.747907 2.7489538-1.7092359 1.8667437-2.2793355 2.6514017-2.4393355 3.3591844-.1581396.6990348.2421262 1.2119785 1.0982059 1.4068175 1.6186047.3692664 3.4338871-.1505695 4.4361462-.7899597l.2275083-.1447376c.5671761-.3610487 1.1489701-.7316405 1.4875748-.9893053.0031894-.0021206.0066445-.0029159.0098339-.0050366.5310299-.3915337 4.2219269-3.1537419 6.72-5.1365938 1.2233887.0389678 2.1964119.066802 2.2110299.066802 6.9945515 0 11.9524252-1.6522883 12.8834551-1.9862981 3.8336213-1.3678497 7.4285714-3.18820319 7.7735548-7.21249128.204917-2.46690106-1.8625913-4.4616819-3.8963455-4.89483431" fill="#d39b90"/><path d="m76.3333156 23.0683083c-.0443854-.0840326-.1368771-.31943-.3508306-.3758936-.1219933-.030485-.255681.0010604-.3487043.0842977-.0845182.0760801-.1071096.1860912-.110299.2974278-.024186.9089839-.2612624 1.9179056-.9265116 2.5819489-1.2510299 1.2475002-3.5686379 1.5897277-5.9271761 1.2583687-4.1605315-.584252-8.4603322-2.5281361-12.6190033-4.4078692l-.6960797-.3146584c-1.1314286-.5102928-2.3178738-1.0685663-3.4657808-1.6085489-.9597342-.4514434-1.9106976-.8986454-2.821794-1.3148323-.4127575-.188742-.8249834-.3806651-1.2385382-.5725882-2.3303654-1.0839414-4.2328239-2.1713289-6.8074419-2.8457106-1.0798671-.2831131-2.3941528-.3358654-3.1497674-.2200223.049701-.0498364 3.3961462-3.2467875 4.4380066-4.0425792 2.3330233-1.74639413 3.6784054-2.27603826 5.3374087-2.10426178 2.175681.22824004 2.3643854 1.88609508 2.2798671 2.86585718-.0050498.0217372-.0087708.0426791-.0116944.0604399-.1738206 1.0208506-.5233222 1.4887295-.7843189 1.7000039-.162392.1285673-.2251163.2666777-.1868438.4100899.0342857.1267116.1445847.216046.2934219.2380482.1137541.018291.4138206-.0379074.642392-.1200845 1.6284385-.5816012 1.6616611-2.3213682 1.6600665-2.5188581-.0002658-1.402046-.9956147-3.03577809-3.787907-3.41750359-1.8240532-.24944701-4.7375416.07820071-7.443721 1.74904509-1.4378737.921708-5.1588039 4.2008361-5.6045182 4.6440618-.3720931.3610487-2.3893688 2.4676963-4.3401994 4.504626-1.7847176 1.8632976-3.470299 3.6237414-3.836279 3.9858505-5.6223256 5.8051436-10.1307642 9.2234424-15.2289701 8.3372561-2.31787379-.4103549-4.86963458-2.0830549-4.4321595-5.447541.16877076-1.2983969.68890365-2.3245493 1.59574751-3.1420781.12704319-.1222052.23521594-.1879468.31388704-.2359276.09647841-.0585842.32159469-.1958994.22883721-.4482623l-.03428571-.1121319-.12093024-.0514269c-.20677741-.0880089-.62697674.1192892-.85820598.2513026-1.40704319.8016236-3.00332226 2.2585426-3.26431893 3.9437016-.4648505 3.0037026 1.88119601 5.1978289 6.4374751 6.0203944.6081063.1076254 1.3435216.1617031 2.1469767.1617031 2.3300997 0 5.2257808-.45648 7.1968107-1.3893217 2.7750166-1.3302074 5.5516279-3.5293704 9.001196-7.1308445.3008638-.313333.9049834-.9466262 1.6592691-1.7371161.9283721-.9726048 1.8184717-1.9743691 2.9079069-3.0437307 2.0313622-1.9947809 5.7012625-1.8860951 8.4627243-1.1854698 2.549103.6468127 3.870299 1.1292713 6.3226578 2.0761626 1.801196.6955887 3.9282392 1.5356499 6.0433223 2.4902287 4.4592691 2.0114814 9.1869767 4.0346265 13.6576744 4.7400235.0124917.0021207 1.2829236.1879467 1.6220598.2239986 3.3666445.3570724 5.0955482-.2446754 6.0839867-1.5589776.6213953-.8265417.700598-2.074572.0645847-3.2785979" fill="#d6b98a"/></g></svg>