<svg height="23" viewBox="0 0 147 23" width="147" xmlns="http://www.w3.org/2000/svg"><g fill="#fff" fill-rule="evenodd"><path d="m58.9518562 7.23109405 1.4883751 3.40290215 4.6822-10.63173283h1.426779l-4.8000302 10.89604643-1.6963414.0003677-1.3414776-3.07032341-1.2361607 3.06995571-1.5468874.0003677-4.3761078-10.89641413h.4595688l4.2665067 10.63173283 4.2804902-10.63173283h1.3038753zm-40.2055998 3.66758345v-10.89641413h.9373128v10.89641413zm-8.2429022-10.89641413h1.6817125v10.88943373h-1.3521109v-10.53857647l-4.3894615 10.54555687h-.69839468l-4.39573213-10.56282419v10.55584379h-1.34936749v-10.88943373h1.68719926l4.40748962 10.59037843zm23.9193095.96066558c.8291137.67265101 1.2085515 1.67403845 1.2085515 2.68320006 0 1.00582983-.4145568 1.8854219-1.2490147 2.55733251-.8325492.67376161-1.7834342 1.00990201-2.8507462 1.00990201-.3794379 0-.750096-.04738543-1.1150281-.14178609-.3653139-.09625166-.6722234-.21397484-.9211102-.35390995-.2488868-.1403053-.4744881-.2795-.6756589-.4201755-.1973535-.1414159-.3473727-.25728809-.4462403-.34798676l-.0900878-.09736226v5.27273983h-1.3158172v-10.97268897h1.3158172v3.86561466c.109556.65006889.3706581 1.39935103.8997333 1.95724044.6317602.65932386 1.5013371.87181791 2.348392.87181791.9470676 0 1.7815255-.32429405 2.4006887-1.00879142.6191631-.68634836.8753027-1.30124837.8753027-2.19194641 0-.87774108-.3034739-1.58111858-.9119487-2.27079872-.6088564-.68856956-1.3975069-1.03322453-2.3640427-1.03322453-.6176363 0-1.1890834.10587682-1.7059434.31948146-.0053442.00407219-.0087797.00407219-.0145057.00629338v-.34095299c.6248891-.21434504 1.1982449-.32466424 1.7204491-.32466424 1.0776187 0 2.0620957.28801457 2.8912094.96066558zm-.5307549 10.16184285-1.418502-3.61906237c.4744881-.02369271.8115542-.13586291 1.1535826-.33391921l1.5807365 3.95298158zm51.8115876-.020099v-10.97268897h1.3165806v10.97268897zm9.4866712-8.65494905c.2248379.54086027.3130171 1.17019804.3130171 1.93095633v6.72391872h-1.3169623l.0045807-6.77611673c0-.28727418-.0232854-.57825035-.0671841-.8732987-.0450439-.29504835-.1465837-.63155895-.3000384-1.0132338-.1568903-.38315563-.359588-.71226226-.612292-.99324307-.2538493-.2802404-.6119103-.52086954-1.0776188-.72299803-.4683805-.20027748-1.0066172-.30134172-1.6131834-.30134172-.8955343 0-1.7265566.19953709-2.4965024.59564968v-.35353974c.7512411-.41277154 1.5822634-.66339605 2.4965024-.66339605 0 0 1.5440906-.03924106 2.667135.42609869.5462531.2243404.8688134.42461789 1.174196.70559869.3034739.2817212.6069478.77704704.8283502 1.31494573zm-46.1548337 8.67519605h-1.3142902l-3.7787275-9.47782666c-.5538876-1.22239605-.9386697-.15622385-.9386697-.15622385l-3.879122 9.64145451h-.4622728l4.4158318-10.98009295h1.5944788zm31.2226951-.1499674h-1.3169623l-3.7764371-9.47782675c-.5546511-1.22239605-.9382879-.15622384-.9382879-.15622384l-3.8802673 9.64145449h-.4622728l4.4181222-10.98009293h1.5914249z" transform="translate(51 7)"/><path d="m23.8386077 5.3972886c-.0543525.05806691-.095721.10864195-.1216471.14433694-.3780517.52187427-1.4596136 1.12846419-2.1464178 1.1300809-1.5960463.00388011-3.9723269-.71814297-6.1741222-1.72276711-2.2002484-1.00559416-4.9883021-1.57693978-5.1386565 2.38755863-.0371246 1.04471856-1.97162307 1.50063103-2.20891082 2.07391671-.4176512 1.00333073 1.01380961 1.93778963 4.76833922 1.19830613 1.444145-.2842178 2.1560082.1037928.4287885.4510623-.8634552.1739581-2.7336044.3724902-3.1654867.4720796-.66205447.1503541-2.41340515.4339252-3.03802572.6793419-1.28853128.5076472-2.65811783.8102955-3.85631271.3611732-1.19943236-.4481523-2.73236694-.2085557-2.99254816-.4872767-.61038949-.6550912.36753305-.3948008.93089811-.4623793.56336505-.0675785 1.6984482-.6622047 1.6984482-.6622047.64472969-.3045884 2.18354232-1.60830403 2.54798166-2.00472153 1.04103428-1.12814085 1.51963162-1.25650769 2.34905596-4.01590982.10425811-.3427427.36753305-.50926392.35020826-.84327639-.00556868-.11640318-.01701542-.44168541.55068083-.5496817.28152785-.07986551.36010815-.11801989.47302866-.51185066.10023628-.34435942.29328395-.45009231.45910694-.47725305.16860734-.03362759.47457547-.03362759.63761417-.0659618.3174149-.06499178.8278775-.62049364.9838006-.87722732.663292-1.0870764 1.7742441-1.50806791 2.4793012-1.42238223.6688607.08180557.8619084.5619687.9491511.71846631.5206718.9422191 1.3312245.31493528 1.9874009 1.11229708.1531388.20661565.1772697.75791406.4018733 1.06735252.4003264.55032838.9423448.8471565 1.6214147.87528727.3718643.0145504.7489878.00743687 1.1208521-.00808355.4745755-.01843051.9692601.41743474 1.3955737.36505331 0 0 1.0122628-.1962687 1.6062556-1.14948143.5955397-.95515279 1.4636354-2.02800212 1.8392121-2.2976695.3777423-.26966737.7393973-.44556551.9723539-.4523557.1237485-.00582016.8387054-.10088276 1.063309-.22084271.2242941-.12028328.5237655-.26384721.8900611-.17428143.3644393.09021247.5073688.22342945 1.0370124.52413767.5321186.30038488.9182139.2622305 1.3578305.53448461.3285523.20111884.4467321.49924032.9556478.76147083.4031107.20693899.9500791.32948567 1.3590679.6256671.4052764.29682812.5339748.86623369.981635 1.49675093.445804.63051724.9021266 1.02014456 1.1935543 1.53652202.2196536.38704058.2830747.97681671.8052934 1.56756286.0422323.04806653.0813823.09221512.1178877.13284429.3135115.16128881.6535631.27202445 1.0286112.31649457 0 0 .1936664.15973104 2.2191201-.09247586.3789798-.04720796.6790699-.1425939.9262575-.21017241.3755767-.10249947.5775961.10864297.5824121.26093713.0097245.18301167-.399883.36117321-1.1027745.63342732-.342474.13257029-.8628365.23571645-1.4398139.35599974-.8346836.17492811-1.667511.16817317-1.667511.16817317-2.1690019-.12937211-1.7544444-.91315354-5.1346348-1.47932569-1.2644003-.2130825-4.0261575-.26481724-5.1290661.17460477-2.094134.83163608-4.7534893 1.18989921-4.7534893 1.18989921-1.3367932.09667931-.5160313-.75985411 1.2767752-1.33669656 1.1125936-.35633143 2.2494893-1.22385774 1.7236024-1.79101187zm5.9537237 8.6841497c-.0009281.0025867-.5163406.012287-.7372317.4400687-.09838.1920653-.1129205.7524172-.6388516 1.0540955-.2267691.1303069-.676595.1212533-1.2062385-.5060305-.6026553-.7407769-.6261675-.7204064-1.2325351-1.4104186-1.0320625-1.1734087.6905166-1.8197697 3.1562055-2.0997841.7434192-.086009 1.2068573-.3375692 1.7968283-.599153.3588706-.1642578.8136464-.4956836 1.0286594-.6327807.6085333-.38607051.6834011-.42487157.9992692-.55194505.2880246-.11640318.8080777-.46496604 1.3077123-.29068461.1735572.06078833.4959221.60561986-1.1641641 1.26071116-.7199069.2842178-1.1236364.6793419-2.1071276 2.3309737 0 0-.2360503.8558868-1.2025261 1.0049475zm-3.5644209 3.7880506c-.1373608.1325703-.7056758.7592074-.9652383 1.0993634-.3260773.4264883-.799106.6935689-1.5205597.9794034-.2465689.0979727-.5553215.2463868-.7885874.4245483-.4161043.3207554-.9627633.3873639-1.196648.449769-1.4818883.3941541-1.1344644.988457-2.2642882 1.6044238-.2100631.1134931-.9305888.3634366-1.8098219.4672295-1.5156098.1810716-3.6116-2.3846486-4.1591872-3.3184608-.7663126-1.3098591-1.1654015-1.3955448-1.5716059-1.6522785-.1871696-.1173732-1.0577404-.4407154-1.266566-.5050605-.4532289-.1438872-.7035102-.2266628-1.07661193-.332719-.46034443-.1270735-.88944236-.338216-1.32256212-.5432149-.23295656-.108643-.46189129-.2370098-.68216362-.3692568-.41888869-.2512368-1.05650285-.463026-1.4509512-.8012419-.59058973-.5050605-.07301161-.550005.08414898-.5137907.72361937.1196366 1.95182326.3462995 2.57799068-.0730753 1.15952347-.779578 1.59573691-2.6950571 2.93964571-1.999548 1.3466931.6971257 2.3561715 4.9306448 4.4908331 5.0732387 2.1303305.1451806 1.4512606-2.9834783 7.0731551-1.644195 0 0 2.6395555.4960069 1.2263476-2.2123071-.081674-.1581144-.4055857-.6693183.2212005-.413878.5933741.2389499 1.3590679 1.0369583 1.9502764 1.927766.8823268 1.3263496-.3118462 2.180943-.4888066 2.3532844z"/></g></svg>