<?xml version="1.0" encoding="utf-8"?>
<!-- Generator: Adobe Illustrator 25.2.1, SVG Export Plug-In . SVG Version: 6.00 Build 0)  -->
<svg version="1.1" id="Layer_1" xmlns="http://www.w3.org/2000/svg" xmlns:xlink="http://www.w3.org/1999/xlink" x="0px" y="0px"
	 viewBox="0 0 25 25" style="enable-background:new 0 0 25 25;" xml:space="preserve">
<style type="text/css">
	.st0{fill:#333333;}
</style>
<g>
	<path class="st0" d="M18.2,1.5H6.8c-2.9,0-5.3,2.4-5.3,5.3v11.3c0,2.9,2.4,5.3,5.3,5.3h11.3c2.9,0,5.3-2.4,5.3-5.3V6.8
		C23.5,3.9,21.1,1.5,18.2,1.5z M21.5,18.2c0,1.8-1.5,3.3-3.3,3.3H6.8c-1.8,0-3.3-1.5-3.3-3.3V6.8C3.5,5,5,3.5,6.8,3.5h11.3
		c1.8,0,3.3,1.5,3.3,3.3V18.2z"/>
	<path class="st0" d="M16.8,6.8h-10c-0.6,0-1,0.4-1,1s0.4,1,1,1h10c0.6,0,1-0.4,1-1S17.4,6.8,16.8,6.8z"/>
	<path class="st0" d="M16.8,10.4h-10c-0.6,0-1,0.4-1,1s0.4,1,1,1h10c0.6,0,1-0.4,1-1S17.4,10.4,16.8,10.4z"/>
	<path class="st0" d="M11.3,14H6.8c-0.6,0-1,0.4-1,1s0.4,1,1,1h4.5c0.6,0,1-0.4,1-1S11.9,14,11.3,14z"/>
</g>
</svg>
