<svg xmlns="http://www.w3.org/2000/svg" width="550" height="161" viewBox="0 0 550 161">
  <path fill="#333" stroke="#FFF" stroke-width=".5" d="M36.176,160 L36.176,60.136 L112.1,160 L147.668,160 L147.668,0.628 L112.1,0.628 L112.1,103.228 L33.896,0.628 L0.608,0.628 L0.608,160 L36.176,160 Z M304.304,160 L304.304,128.536 L222.452,128.536 L222.452,95.476 L293.816,95.476 L293.816,65.152 L222.452,65.152 L222.452,32.32 L301.796,32.32 L301.796,0.628 L186.884,0.628 L186.884,160 L304.304,160 Z M397.784,160 L432.44,49.192 L467.324,160 L493.772,160 L549.404,0.628 L510.872,0.628 L479.18,92.284 L451.136,0.628 L413.972,0.628 L385.7,92.284 L354.236,0.628 L315.704,0.628 L371.336,160 L397.784,160 Z" opacity=".204"/>
</svg>
