<?xml version="1.0" encoding="UTF-8"?>
<svg width="1112px" height="172px" viewBox="0 0 1112 172" version="1.1" xmlns="http://www.w3.org/2000/svg" xmlns:xlink="http://www.w3.org/1999/xlink">
    <!-- Generator: Sketch 56.2 (81672) - https://sketch.com -->
    <title>Group 17</title>
    <desc>Created with Sketch.</desc>
    <defs>
        <polygon id="path-1" points="0.355684615 0.455419355 142.429262 0.455419355 142.429262 171.193548 0.355684615 171.193548"></polygon>
        <polygon id="path-3" points="0.18934 0.67082 140.5302 0.67082 140.5302 170.77902 0.18934 170.77902"></polygon>
    </defs>
    <g id="Page-1" stroke="none" stroke-width="1" fill="none" fill-rule="evenodd" opacity="0.148974">
        <g id="index" transform="translate(-805.000000, -823.000000)">
            <g id="Group-17" transform="translate(806.000000, 823.000000)">
                <path d="M141,116.462512 C141,132.622626 134.118114,145.75127 120.342687,155.848444 C106.573088,165.951413 87.8737034,171 64.2445344,171 C50.5798239,171 38.6749184,169.80596 28.5239906,167.41788 C18.3730628,165.035596 8.86312353,161.998329 0,158.335061 L0,118.995499 L4.65590776,118.995499 C13.4374509,125.980054 23.2795388,131.335845 34.170517,135.086058 C45.0614952,138.824679 55.5329173,140.702683 65.5731289,140.702683 C68.1603918,140.702683 71.5576311,140.482424 75.7590197,140.036108 C79.9720627,139.601384 83.4100922,138.865253 86.0614539,137.839306 C89.313014,136.517747 91.9876844,134.865798 94.0971195,132.877664 C96.2007274,130.895325 97.2496177,127.956596 97.2496177,124.067271 C97.2496177,120.467762 95.7170724,117.36094 92.6519817,114.758396 C89.5868909,112.150056 85.1057982,110.150329 79.1970492,108.753418 C72.9969418,107.281155 66.441377,105.90743 59.5420093,104.620649 C52.6309873,103.333868 46.1511758,101.699308 40.0967475,99.7169696 C26.2164318,95.2364213 16.2286647,89.1618876 10.1334463,81.487572 C4.04405505,73.8132565 1.00227301,64.2783252 1.00227301,52.8943708 C1.00227301,37.6152954 7.88415919,25.1474309 21.6595859,15.4849807 C35.4291854,5.83412322 53.1321238,1 74.768401,1 C85.6244162,1 96.3464066,2.04913226 106.940199,4.14160046 C117.533992,6.22827236 126.711782,8.86559378 134.461917,12.0129906 L134.461917,49.8049371 L129.922552,49.8049371 C123.273753,44.5187016 115.139025,40.0961165 105.500889,36.5313853 C95.8627516,32.9724505 86.0264909,31.1871867 75.9862793,31.1871867 C72.4375336,31.1871867 68.9120965,31.4306318 65.404141,31.9059293 C61.9020126,32.3812268 58.5222548,33.2796549 55.2765219,34.6070101 C52.3920734,35.7025129 49.9155267,37.3776467 47.852709,39.6150227 C45.7840641,41.858195 44.7526553,44.4085717 44.7526553,47.2719493 C44.7526553,51.6075898 46.4133984,54.9346722 49.7290573,57.2416039 C53.0563706,59.5601282 59.3322313,61.6699853 68.5624664,63.5769716 C74.6168947,64.8289747 80.432409,66.0404037 86.0090094,67.2170548 C91.5856098,68.3937059 97.5817663,70.0050803 104.003306,72.0627706 C116.630781,76.1781513 125.954251,81.7773876 131.973716,88.8662757 C137.993181,95.9551638 141,105.153909 141,116.462512" id="Fill-1" stroke="#909090"></path>
                <polygon id="Fill-3" stroke="#909090" points="284 169 165 169 165 4 284 4 284 35.9179946 207.206868 35.9179946 207.206868 64.4022542 278.472011 64.4022542 278.472011 96.3085892 207.206868 96.3085892 207.206868 137.087835 284 137.087835"></polygon>
                <g id="Group-7" transform="translate(306.000000, 0.000000)">
                    <mask id="mask-2" fill="white">
                        <use xlink:href="#path-1"></use>
                    </mask>
                    <g id="Clip-6"></g>
                    <path d="M84.2478,171.194129 C72.0342231,171.194129 60.7556846,169.382516 50.4179923,165.782516 C40.0803,162.182516 31.1887231,156.805742 23.7548769,149.675419 C16.3210308,142.533484 10.5656077,133.626387 6.47699231,122.959935 C2.39418462,112.293484 0.355684615,99.9663871 0.355684615,85.9902581 C0.355684615,72.9663871 2.30706923,61.161871 6.20403077,50.5650968 C10.1009923,39.9625161 15.7693,30.8812258 23.2031462,23.298 C30.3408,16.0167097 39.1917231,10.3902581 49.7559154,6.41283871 C60.3143,2.44122581 71.8483769,0.455419355 84.3639538,0.455419355 C91.2809154,0.455419355 97.5125692,0.838645161 103.076338,1.61670968 C108.628492,2.38896774 113.762492,3.39929032 118.478338,4.64767742 C123.403262,6.04703226 127.875185,7.60896774 131.8883,9.33929032 C135.895608,11.0696129 139.415069,12.6663871 142.429262,14.1412258 L142.429262,53.9792903 L137.568223,53.9792903 C135.506492,52.2315484 132.916262,50.1354194 129.785915,47.7199355 C126.655569,45.3044516 123.107069,42.9296129 119.1288,40.5838065 C115.086646,38.2496129 110.707646,36.2696129 106.003415,34.6554194 C101.287569,33.0470323 96.2406846,32.2399355 90.8743769,32.2399355 C84.9098769,32.2399355 79.2415692,33.1747742 73.8694538,35.0502581 C68.5031462,36.9199355 63.5317615,40.0263871 58.9669154,44.3521935 C54.6285692,48.5444516 51.1149154,54.0838065 48.4317615,60.9876774 C45.7428,67.8915484 44.4012231,76.2586452 44.4012231,86.1005806 C44.4012231,96.378 45.8531462,104.971548 48.7569923,111.869613 C51.6666462,118.773484 55.3313,124.208323 59.7451462,128.174129 C64.2344923,132.209613 69.2407231,135.089613 74.7580308,136.819935 C80.2753385,138.544452 85.7229538,139.403806 91.1008769,139.403806 C96.2406846,139.403806 101.339838,138.643161 106.386723,137.104452 C111.4278,135.559935 116.079762,133.481226 120.348415,130.845097 C123.954992,128.719935 127.300223,126.449613 130.395723,124.034129 C133.491223,121.618645 136.023377,119.534129 138.009608,117.774774 L142.429262,117.774774 L142.429262,157.061226 C138.3058,158.907677 134.368185,160.638 130.616415,162.252194 C126.864646,163.872194 122.921223,165.265742 118.803569,166.450258 C113.431454,167.988968 108.390377,169.167677 103.680338,169.974774 C98.9703,170.787677 92.4889154,171.194129 84.2478,171.194129" id="Fill-5" stroke="#909090" mask="url(#mask-2)"></path>
                </g>
                <path d="M567.067808,57.033424 C567.067808,52.3870968 565.816096,48.3937038 563.301027,45.0357559 C560.791781,41.6836378 557.880822,39.3458997 554.562329,38.0108822 C550.137671,36.2502915 545.817808,35.2767198 541.614384,35.0843373 C537.410959,34.9036145 531.79863,34.8103381 524.794863,34.8103381 L517.488356,34.8103381 L517.488356,84.1185387 L529.661986,84.1185387 C536.892808,84.1185387 542.84863,83.6754761 547.535274,82.7951807 C552.216096,81.9090556 556.151712,80.1426351 559.318836,77.4900894 C562.049315,75.1290323 564.022945,72.3074232 565.239726,69.0310921 C566.462329,65.7489312 567.067808,61.7555383 567.067808,57.033424 M611,56.0831714 C611,63.4694909 609.707534,70.6984065 607.122603,77.7524291 C604.543493,84.8064516 600.852397,90.7353284 596.060959,95.5332297 C589.493836,102.039254 582.169863,106.947921 574.094863,110.27089 C566.014041,113.593859 555.959589,115.255344 543.937329,115.255344 L517.488356,115.255344 L517.488356,169 L475,169 L475,4 L544.932877,4 C555.412329,4 564.244178,4.915274 571.434247,6.72250291 C578.630137,8.5355616 584.993493,11.246405 590.524315,14.8666926 C597.167123,19.2273611 602.238014,24.8006218 605.74863,31.5981345 C609.247603,38.3956471 611,46.5573261 611,56.0831714" id="Fill-8" stroke="#909090"></path>
                <path d="M715.668031,105.397202 L695.472194,46.2833269 L675.276356,105.397202 L715.668031,105.397202 Z M781,169 L737.279086,169 L725.841351,135.647882 L665.097236,135.647882 L653.659502,169 L611,169 L671.633913,4 L720.366087,4 L781,169 Z" id="Fill-10" stroke="#909090"></path>
                <path d="M893.668031,105.397202 L873.472194,46.2833269 L853.276356,105.397202 L893.668031,105.397202 Z M959,169 L915.279086,169 L903.841351,135.647882 L843.097236,135.647882 L831.659502,169 L789,169 L849.633913,4 L898.366087,4 L959,169 Z" id="Fill-12" stroke="#909090"></path>
                <g id="Group-16" transform="translate(970.000000, 1.000000)">
                    <mask id="mask-4" fill="white">
                        <use xlink:href="#path-3"></use>
                    </mask>
                    <g id="Clip-15"></g>
                    <path d="M140.53194,116.20682 C140.53194,132.37722 133.67634,145.51422 119.97094,155.61782 C106.25974,165.72722 87.64754,170.77902 64.12854,170.77902 C50.53334,170.77902 38.68394,169.58422 28.57454,167.19462 C18.47674,164.81082 9.01114,161.77162 0.18934,158.10602 L0.18934,118.74142 L4.81774,118.74142 C13.56414,125.73042 23.35454,131.08962 34.20054,134.84222 C45.04654,138.58322 55.46334,140.46242 65.45094,140.46242 C68.03194,140.46242 71.40754,140.24202 75.59514,139.79542 C79.78854,139.36042 83.20474,138.62382 85.84954,137.59722 C89.08014,136.27482 91.74814,134.62182 93.84774,132.63242 C95.93574,130.64882 96.98554,127.70822 96.98554,123.81642 C96.98554,120.21462 95.46014,117.10582 92.41514,114.50162 C89.35854,111.89162 84.89254,109.89062 79.01714,108.49282 C72.84014,107.01962 66.31514,105.64502 59.44794,104.35742 C52.57494,103.06982 46.12534,101.43422 40.09914,99.45062 C26.27774,94.96722 16.34234,88.88882 10.27554,81.20962 C4.20874,73.53042 1.18114,63.98942 1.18114,52.59822 C1.18114,37.30942 8.03094,24.83362 21.74214,15.16502 C35.45334,5.50802 53.06794,0.67082 74.60914,0.67082 C85.40874,0.67082 96.08654,1.72062 106.63094,3.81442 C117.17534,5.90242 126.30454,8.54142 134.02434,11.69082 L134.02434,49.50682 L129.50614,49.50682 C122.89414,44.21722 114.79154,39.79182 105.19834,36.22482 C95.60514,32.66362 85.81474,30.87722 75.81554,30.87722 C72.28334,30.87722 68.78014,31.12082 65.28854,31.59642 C61.79694,32.07202 58.43874,32.97102 55.20234,34.29922 C52.33134,35.39542 49.87214,37.07162 47.81314,39.31042 C45.75414,41.55502 44.72754,44.10702 44.72754,46.97222 C44.72754,51.31062 46.38054,54.63982 49.68654,56.94822 C52.99254,59.26822 59.24494,61.37942 68.43214,63.28762 C74.45254,64.54042 80.24094,65.75262 85.79734,66.93002 C91.34214,68.10742 97.31614,69.71982 103.70774,71.77882 C116.27634,75.89682 125.55054,81.49962 131.54774,88.59302 C137.53914,95.68642 140.53194,104.89102 140.53194,116.20682" id="Fill-14" stroke="#909090" mask="url(#mask-4)"></path>
                </g>
            </g>
        </g>
    </g>
</svg>