<svg id="圖層_1" xmlns="http://www.w3.org/2000/svg" viewBox="0 0 187 207.8"><style>.st0{fill:#332926}</style><path class="st0" d="M48 120c3.5-5.5 6-11.6 7.5-17.9l-18.1-5.2s-1.1 13.8-13.5 34.5c-11 18.4-21.1 18.1-20.3 20.1.7 1.7 18.3.5 33.7-17.1 2.7-3 4.9-5.9 6.8-8.5C52.8 130.6 64.3 138 73 152c4.8-4.6 10.2-10 10.2-10-8.3-12.9-23.4-19.4-35.2-22zm103.9 0c3.5-5.5 6-11.6 7.5-17.9l-18.1-5.2s-1.1 13.8-13.5 34.5c-11 18.4-21.1 18.1-20.3 20.1.7 1.7 18.3.5 33.7-17.1 2.6-3 4.9-5.9 6.8-8.5 8.7 4.8 20.2 12.2 28.9 26.2 4.8-4.6 10.2-10 10.2-10-8.3-13-23.4-19.5-35.2-22.1zm-66-31.6h16.8V157H85.9V88.4zM109.4 24c-2.1 1.8 6.8 18.5 21.2 30.8-14.1 13-27.6 19.4-26.1 21 .5.6 17-3.5 34.2-14.8 9.8 6.8 20.6 12 32 15.4l8.9-12.2-4.5-1.5c-8.8-2.7-17.3-5.9-25.6-9.8 13.4-11.4 25.2-27.7 28.1-50.3h-60.9V8h42.1c-3.4 16.3-11.6 29.1-20.5 39.1C117 34.7 111.7 23.4 109.4 24zM20.5 52.7c0 9.8 8 17.8 17.8 17.8H73V80h16.8V8h.3c13.5 0 21.4-6.4 20-7.7S107 2.7 91 2.7H0V8h20.5v44.7zM73 42.9H37.4V30.3H73v12.6zM46.3 65.3c-4.9 0-8.9-4-8.9-8.9V48H73v17.3H46.3zM73 25.1H37.4V8H73v17.1z"/><path class="st0" d="M152.9 72.3c-10.3 7.4-32.5 12-42.4 12l-99.1 4.4v5.2L63 92.2l16.4-.5c22.4-.7 33.3-1.2 44.1-1.5 12.6-.5 33.9-5 38.5-8.3l-9.1-9.6zM77.7 180.9c.4-.4.8.7 5.3.7h1.2v1.4h-.9c-3.8-.1-6-1.8-5.6-2.1zM8.4 189H.1v1.5h8.3v7.1c0 6.2-5.1 8.6-7.6 9.4-.1 0-.1.1-.1.2s.1.1.2.1c3.3-.3 11.1-1.9 11.1-9.7v-16.9H8.4v8.3zm99.2 18v-1.8H88.3c-1.5 0-4.2-1.8-4.2-5.8v-12h-1.2c-4.4 0-4.9-1-5.3-.7s.9 1.3 3.1 1.8v11.3c0 7.2-1.9 7.6-1.6 7.9s2.4-.8 3.8-3.3c1.2 1.7 3.2 2.7 5.3 2.5l19.4.1zm-87.5-3.5V192c2.9-.1 7.8-1.1 10.4-4.9l-2.7-1.4c-1.9 2.5-4.6 4.4-7.7 5.4v-10.3h-3.5v22.4c0 1.9.8 3.7 4.4 3.7h10V205h-9.2c-1.3-.1-1.7-.7-1.7-1.5zm117.4-16.2zm-6.6 19.9h2.9v-12.6h-2.9v12.6z"/><path class="st0" d="M145 191.8v-10.3h-8.2c-3.2-.2-3.6-1-4-.6s1.7 2 5.2 2.1h3c.7.1 1.2.7 1.1 1.4v7.5h-1.9v-4.4c-.1-2.1-3-2.5-3.3-2.2s.8-.2.8 2.3v4.4h-2.1v-7c-.1-2.2-3.4-2.5-3.6-2.2s.8-.2.8 2.3v6.7H131v1.6h14V207h2.9v-15.2H145zM120.5 205c.3-.3-.8-1-.8-7h-2.4c-.1 5.4 2.9 7.2 3.2 7zm4.7 0c.3.2 3.2-1.6 3.2-7H126c0 6-1.1 6.7-.8 7z"/><path class="st0" d="M123.2 182.5c1.5.9 2.8 2 3.9 3.4l.9 1 1.7-1.1c-.4-.5-.8-.9-.9-1-1.3-1.6-3.2-2.6-5.3-2.9.3-.6.6-1.2.8-1.9h-3.7c-1.5 7.2-5.5 8.9-5.2 9.1l1.9-.8v1.1h4.1v4.4h-4.5v1.4h4.5v10.6h-4.5v1.4h6.1c3.7 0 5.9-1.7 5.5-2.1s-.8.5-4.3.6v-10.6c3-.3 4.6-1.7 4.3-2s-.8.5-4.3.6v-4.4c3-.3 4.6-1.7 4.3-2s-.9.7-5.3.7h-5.4c2.2-1.3 4.1-3.2 5.4-5.5zm11.6 12.2c-.2.2 1.1 1.7 3.4 1.7h1.2c.8 0 1.5.7 1.5 1.5v5c-.1.8-.9 1.4-1.7 1.3-.6-.1-1.1-.6-1.3-1.3V199c0-2-2.9-2.3-3.1-2.1s.6-.2.6 2.1v3.3c0 1.7 1.3 3 3 3h2c1.7 0 3-1.3 3-3v-7.1H138c-2.7-.1-2.9-.7-3.2-.5zm-91.7-12.3h.9V181h-1.2c-4.4 0-4.9-1-5.3-.7s1.9 2.1 5.6 2.1zm1 4.6H43c-4.4 0-4.9-1-5.3-.7-.2.1.1.5.7.9.4.3.8.5 1.2.6l1.2.3v11.4c0 7.2-1.9 7.6-1.5 7.9s4.8-1.8 4.8-7.9V187zm26.1 16.7h-2.8V196.6c2-.5 3-1.5 2.7-1.7s-.6.3-2.7.5v-8H54.8c-4.4 0-4.9-1-5.3-.7s1.8 2.1 5.5 2.1h7.5c.8 0 1.5.7 1.5 1.5v5.2H52.3v-3.3c0-2.2-3.7-2.5-4-2.2s.7-.2.7 2.3v3.2h-2.9v1.4H49v4.1c0 2.2 1.8 4 4 4.1h11v2.1h3.3v-2.1h2.8l.1-1.4zm-17.9-2.4V197h11.8v6.7h-8.7c-1.7 0-3.1-.7-3.1-2.4z"/><path class="st0" d="M61 194.4l1.2-1.4-1.2-.7c-3.9-2.5-6.8-1.3-6.8-1s1.2-.3 5.6 2.4l1.2.7zm0 8.1l1.2-1.4-1.2-.7c-3.9-2.5-6.8-1.3-6.8-1.1s1.2-.3 5.6 2.4l1.2.8zm-10.2-17.7h13.8c3.7 0 5.9-1.7 5.5-2.1s-.8.7-5.3.7H51.6c.5-1.1.8-2.2.8-3.4H49c0 3.2-1.4 6.2-3.8 8.3 2.2-.4 4.2-1.7 5.6-3.5zm52.9 1.5c3.7 0 5.9-1.7 5.5-2.1s-.9.7-5.3.7h-.4c1.1-.4 2.1-1.1 2.1-2.2v-2.4h-2.4v2.4c.1.9-.3 1.7-1 2.2h-9.3c-.7-.5-1.1-1.3-1-2.2v-2.4h-2.4v2.4c0 1.1 1 1.8 2.1 2.2h-5.7v1.4h10.3c-.2 1-.6 2-1.1 2.9h-1.5c-4.4 0-4.9-1-5.3-.7s1.8 2.1 5.5 2.1h9.4c.5.1.4.6.4 1v2.1h-12v-.1c0-2.2-3.7-2.5-4-2.2s.7-.2.7 2.3v6.1c0 2 1.6 3.5 3.5 3.5h11.5c2 0 3.5-1.6 3.5-3.5v-10.5H98c.7-.8 1.3-1.8 1.6-2.9l4.1-.1zm-12 11.3v-2.4h11.9v2.4H91.7zm9.4 4.8h-6.9c-1.4 0-2.5-1.1-2.5-2.5v-.9h11.9v.9c0 1.4-1.1 2.5-2.5 2.5-.1 0-.1 0 0 0zm81.6-14v10.9c0 7.2-1.9 7.6-1.6 7.9s4.9-1.8 4.9-7.9v-10.9h-3.3zm-27.3-6.8v1.3c0 6.4-1.4 6.8-1.1 7.1s3.5-1.6 3.5-7.1v-1.3h-2.4z"/><path class="st0" d="M156 186.6h3.6V207h2.9v-20.4c3-.3 4.6-1.7 4.3-2s-.9.7-5.3.7h-5.4c1.6-1.1-.1 1.3-.1 1.3z"/><path class="st0" d="M159.6 179.8h2.9v10h-2.9v-10zm9.3.2c.3 8.1-3.5 12.6-3.1 12.7 0 0 5.6-3.7 6.8-12.7h-3.7zm12.4 8.9c.1-1.2.2-2.4.1-3.6l-3.4.2c0 1.2 0 2.4-.1 3.6 0 .5-.1 1-.1 1.6-.5 6-3.1 11.7-7.4 16-.2.2 0 .4.2.3 3.2-1.6 5.8-4.1 7.6-7.2l1-2c1-2.3 1.6-4.7 1.9-7.2.1-1.2.2-1.7.2-1.7zm-8.1-3.8c0 .5 0 .9-.1 1.4-.1 5.6-2.2 11-5.9 15.1-.1.2.1.4.2.2 2.8-1.7 5.1-4.2 6.6-7.2l.8-1.9c0-.1.1-.1.1-.2.7-2.1 1.2-4.4 1.3-6.6v-.7l-3-.1z"/><path class="st0" d="M170.6 184.9h11.2l-1.3 1.4h-11.2l1.3-1.4zm-3.4 7.7c-.4-.2-1.4 1.9-10.4 4.2l-1.7.4v3l1.4-.4c8-2 11-7 10.7-7.2z"/><path class="st0" d="M181.2 186.3c.8 0 1.5.7 1.5 1.5v13.4l3.3-2.8v-13.5h-11.2c-4.4 0-3.5 1.4.2 1.4h6.2z"/></svg>