<svg xmlns="http://www.w3.org/2000/svg" width="34" height="27"><path fill="#333" fill-rule="evenodd" d="M34 22.235C34 24.863 31.821 27 29.143 27c-1.916 0-3.658-1.11-4.438-2.826a.788.788 0 0 1 .41-1.049.816.816 0 0 1 1.069.402 3.247 3.247 0 0 0 2.959 1.885c1.785 0 3.238-1.425 3.238-3.177 0-.529-.135-1.052-.39-1.513a.786.786 0 0 1 .324-1.077.818.818 0 0 1 1.098.319A4.7 4.7 0 0 1 34 22.235zM8.095 25.412c-1.506 0-2.775-1.014-3.135-2.383h6.27c-.36 1.369-1.629 2.383-3.135 2.383zM1.62 1.588h11.333v9.53H1.62v-9.53zm23.083 21.328c3.941-2.32 7.94-3.898 7.98-3.914a.802.802 0 0 0 .456-.455.78.78 0 0 0-.033-.637c-.038-.076-.885-1.683-3.204-1.98-.136-1.206-.629-3.711-2.413-6.4h.036c.447 0 .81-.356.81-.795a.802.802 0 0 0-.81-.794h-2.417a.803.803 0 0 1-.81-.794c0-.438.364-.794.81-.794h2.417c.447 0 .81-.356.81-.794a.802.802 0 0 0-.81-.794h-2.417c-.656 0-1.25.256-1.688.672L20.6 4.054a.817.817 0 0 0-1.086.356c-.2.392-.038.869.362 1.065l2.82 1.383c-.01.095-.018.191-.018.289 0 1.314 1.09 2.382 2.429 2.382h.402c2.035 2.633 2.604 5.235 2.763 6.445-1.76.365-2.932 1.715-2.988 1.781a.782.782 0 0 0 .1 1.115c.34.282.85.24 1.14-.093.01-.013 1.15-1.306 2.619-1.306.865 0 1.464.24 1.86.502-1.45.62-4.164 1.85-6.94 3.468H2.491a8.76 8.76 0 0 1 .676-2.457c.933-2.058 2.59-3.102 4.927-3.102 2.299 0 3.947 1.42 4.899 4.222.141.416.6.641 1.024.502a.79.79 0 0 0 .512-1.004c-1.086-3.196-3.058-5.004-5.727-5.272a4.102 4.102 0 0 0-.527-1.25 3.86 3.86 0 0 0-.27-.374h5.756c.678 0 1.117.227 1.381.715.163.3.215.619.23.775-.194.646-.755 2.895.348 4.397.765 1.041 1.998 1.26 2.898 1.26 1.7 0 3.128-.59 4.132-1.705 1.475-1.64 1.99-4.305 1.528-7.923a.806.806 0 0 0-.903-.69.797.797 0 0 0-.703.887c.395 3.102.002 5.41-1.136 6.675-.697.775-1.68 1.168-2.918 1.168-.768 0-1.286-.196-1.583-.599-.634-.86-.27-2.545-.078-3.12a.78.78 0 0 0 .042-.252c0-1.12-.663-2.718-2.429-3.094V.794a.802.802 0 0 0-.81-.794H.81A.802.802 0 0 0 0 .794v11.118c0 .438.362.794.81.794h3.238c2.049 0 2.801.934 3.078 1.64-3.124.34-4.676 2.313-5.437 3.993-.87 1.919-.88 3.816-.88 3.896 0 .439.363.794.81.794h1.688C3.693 25.28 5.693 27 8.095 27c2.403 0 4.402-1.72 4.789-3.97h11.402c.146 0 .29-.04.416-.114z"/></svg>