<svg xmlns="http://www.w3.org/2000/svg" width="25" height="25"><path fill="#FFF" fill-rule="evenodd" d="M17.814 19.717h1.082V18.64h-1.082v1.077zm-.79 1.573h2.662c.436 0 .79-.352.79-.787v-2.65a.788.788 0 0 0-.79-.786h-2.662a.788.788 0 0 0-.79.786v2.65c0 .435.354.787.79.787zm-5.065-1.573h1.082V18.64h-1.082v1.077zm-.79 1.573h2.662c.436 0 .79-.352.79-.787v-2.65a.788.788 0 0 0-.79-.786h-2.662a.788.788 0 0 0-.79.786v2.65c0 .435.354.787.79.787zm-5.065-1.573h1.082V18.64H6.104v1.077zm-.79 1.573h2.662c.436 0 .79-.352.79-.787v-2.65a.788.788 0 0 0-.79-.786H5.314a.788.788 0 0 0-.79.786v2.65c0 .435.354.787.79.787zm12.5-6.874h1.082V13.34h-1.082v1.077zm-.79 1.573h2.662c.436 0 .79-.352.79-.786v-2.65a.788.788 0 0 0-.79-.787h-2.662a.788.788 0 0 0-.79.787v2.65c0 .434.354.786.79.786zm-5.065-1.573h1.082V13.34h-1.082v1.077zm-.79 1.573h2.662c.436 0 .79-.352.79-.786v-2.65a.788.788 0 0 0-.79-.787h-2.662a.788.788 0 0 0-.79.787v2.65c0 .434.354.786.79.786zm-5.065-1.573h1.082V13.34H6.104v1.077zm-.79 1.573h2.662c.436 0 .79-.352.79-.786v-2.65a.788.788 0 0 0-.79-.787H5.314a.788.788 0 0 0-.79.787v2.65c0 .434.354.786.79.786zm18.106 5.044a2.401 2.401 0 0 1-2.404 2.394H3.984a2.401 2.401 0 0 1-2.404-2.394V9.63h21.84v11.404zM1.58 6.193c0-1.27.997-2.311 2.252-2.39v.164c0 1.135.928 2.058 2.068 2.058 1.14 0 2.067-.923 2.067-2.058v-.168h9.066v.168c0 1.135.927 2.058 2.067 2.058 1.14 0 2.068-.923 2.068-2.058v-.163a2.401 2.401 0 0 1 2.252 2.389v1.863H1.58V6.193zm3.832-4.135a.487.487 0 0 1 .975 0V3.967a.487.487 0 0 1-.975 0V2.058zm13.2 0a.487.487 0 0 1 .976 0V3.967a.487.487 0 0 1-.975 0V2.058zm2.556.172v-.172A2.065 2.065 0 0 0 19.1 0c-1.14 0-2.067.923-2.067 2.058v.168H7.967v-.168A2.065 2.065 0 0 0 5.9 0C4.76 0 3.832.923 3.832 2.058v.172C1.706 2.31 0 4.056 0 6.193v14.84C0 23.221 1.787 25 3.984 25h17.032C23.213 25 25 23.22 25 21.033V6.193c0-2.137-1.706-3.884-3.832-3.963z"/></svg>