<svg height="27" viewBox="0 0 34 27" width="34" xmlns="http://www.w3.org/2000/svg"><path d="m57 36.2353294c0 2.6272371-2.1789761 4.7646706-4.8572553 4.7646706-1.9157293 0-3.6578261-1.1092836-4.437949-2.8261259-.1820258-.400608.0013114-.870171.4096891-1.0487335.4083777-.1783911.8871352.0013722 1.0690735.4019802.520286 1.144876 1.6818587 1.8846843 2.9591864 1.8846843 1.7855486 0 3.2380828-1.4249843 3.2380828-3.1764757 0-.5290838-.1349019-1.0524214-.39028-1.5134936-.2134126-.3854276-.0680193-.8675981.3248836-1.0769502.3926406-.2095238.8843375-.0667252 1.0978374.3187024.3838104.6930664.5867315 1.4785874.5867315 2.2717414zm-25.9047494 3.1764757c-1.5060403 0-2.7752372-1.013913-3.1356168-2.3823782h6.2711461c-.3603795 1.3684652-1.629489 2.3823782-3.1355293 2.3823782zm-6.4761655-23.8236102h11.3332459v9.5294269h-8.904662-2.4285839zm23.0830878 21.3281081c3.9410064-2.3195983 7.9395407-3.8986164 7.979408-3.9143113.2101777-.0825059.3755921-.2475176.4560261-.4550688.0804341-.2076368.0685438-.4387733-.0326107-.6373191-.0382936-.0751301-.8852118-1.6824506-3.2043354-1.9799692-.1356888-1.2058548-.6286097-3.7107053-2.4130217-6.4002077h.0361079c.4471084 0 .8095862-.3555814.8095862-.7941832 0-.4385161-.3624778-.7940975-.8095862-.7940975h-2.4167811c-.4463216 0-.8094988-.3562675-.8094988-.7940975 0-.4379157.3631772-.7941832.8094988-.7941832h2.4167811c.4471084 0 .8095862-.3554956.8095862-.7940975 0-.4386018-.3624778-.7940974-.8095862-.7940974h-2.4167811c-.6555376 0-1.250837.2566086-1.6882409.6722255l-2.8186891-1.3825307c-.3997223-.1962301-.8859986-.0371362-1.0860346.3551526s-.0378565.8693133.3620407 1.0654577l2.8207873 1.3834741c-.0117154.0946844-.0184473.1909127-.0184473.2885989 0 1.3136614 1.0895317 2.3823782 2.4285839 2.3823782h.401908c2.0353313 2.6328975 2.6044022 5.2344051 2.7629972 6.4443767-1.7597572.3656159-2.931559 1.715127-2.9878629 1.7812518-.2862403.3353408-.2409524.8333778.0997557 1.1153729.3407956.281995.8508525.2395414 1.1398031-.0936553.0112782-.0131221 1.1495075-1.3061999 2.6191776-1.3061999.8649284 0 1.4645993.2403991 1.8611741.5024109-1.450261.6205951-4.1653475 1.8508072-6.941459 3.4681622h-21.5709275c.0801718-.6257409.2624598-1.5423107.6768701-2.4568221.9325105-2.0582725 2.5901514-3.1019459 4.9268482-3.1019459 2.2986654 0 3.9468641 1.4203529 4.8986088 4.2216928.1414591.4160456.5999332.6410928 1.0239605.5022394.4242023-.1385961.6534393-.5883474.5120677-1.0044788-1.0859472-3.1960301-3.0579804-5.003869-5.7273419-5.2716271-.0851552-.3577255-.2411273-.8027597-.5267556-1.2511388-.0778987-.122215-.1674253-.2476891-.2703284-.3731632h5.7564556c.678094 0 1.117159.2272771 1.3815423.7152795.162879.3006919.2142868.6187082.2302862.7748004-.1950526.646496-.7558179 2.8952524.3472653 4.3966533.7653475 1.0417008 1.9983491 1.2603156 2.8979866 1.2603156 1.6992568 0 3.1280105-.5894624 4.1316002-1.7048353 1.4755277-1.6395681 1.9898686-4.3053136 1.5287716-7.9231355-.0553421-.435257-.4600478-.7440108-.9036591-.6894643-.4436113.054375-.7582659.4512951-.7028363.8864663.3952634 3.1017744.002448 5.4098801-1.1360436 6.6749986-.6972409.7748861-1.6789735 1.1677752-2.9178328 1.1677752-.7679704 0-1.2858084-.1958871-1.5829772-.5987249-.6340302-.8593646-.2705907-2.54516-.077549-3.1208142.02754-.0809621.0416159-.1657836.0416159-.2511197 0-1.1196612-.6634061-2.7178906-2.4286713-3.0945702v-10.4054298c0-.4386019-.3623904-.7940975-.8094988-.7940975h-12.952331c-.4471085 0-.8095863.3554956-.8095863.7940975v11.1176218c0 .4386018.3624778.7941832.8095863.7941832h3.2380827c2.049145 0 2.8016406.9344947 3.0779141 1.6401685-3.1234642.3405725-4.6756667 2.3133374-5.4367302 3.9932151-.8692998 1.9186472-.8792666 3.8161962-.8792666 3.8960433 0 .4386019.3623904.7940975.8094988.7940975h1.6878037c.3866081 2.2504717 2.3860064 3.9705731 4.7883618 3.9705731 2.4024428 0 4.4017537-1.7201014 4.7884492-3.9705731h11.402052c.1466173 0 .2906991-.0391088.4164211-.1131239z" fill="#fff" fill-rule="evenodd" transform="translate(-23 -14)"/></svg>