<svg xmlns="http://www.w3.org/2000/svg" width="25" height="25" viewBox="0 0 25 25">
  <path fill="#F08300" fill-rule="evenodd" d="M16.7296,13.6836 L16.6406,13.7676 L10.6406,18.7676 C10.2156,19.1216 9.5856,19.0646 9.2316,18.6406 C8.9056,18.2486 8.9296,17.6806 9.2686,17.3176 L9.3596,17.2316 L14.4376,12.9996 L9.3596,8.7676 C8.9686,8.4416 8.8896,7.8796 9.1576,7.4606 L9.2316,7.3596 C9.5586,6.9676 10.1206,6.8896 10.5386,7.1576 L10.6406,7.2316 L16.6406,12.2316 C17.0876,12.6046 17.1176,13.2716 16.7296,13.6836 M12.5006,-0.0004 C5.5966,-0.0004 0.0006,5.5966 0.0006,12.4996 C0.0006,19.4036 5.5966,24.9996 12.5006,24.9996 C19.4036,24.9996 25.0006,19.4036 25.0006,12.4996 C25.0006,5.5966 19.4036,-0.0004 12.5006,-0.0004"/>
</svg>
