<svg xmlns="http://www.w3.org/2000/svg" width="31" height="31"><g fill="none" fill-rule="evenodd"><path fill="#00C800" d="M6.345 0h18.31C28.145 0 31 2.855 31 6.345v18.31C31 28.145 28.145 31 24.655 31H6.345C2.855 31 0 28.145 0 24.655V6.345C0 2.855 2.855 0 6.345 0z"/><path fill="#FFF" d="M15.47 5.135c6.281 0 11.373 4.078 11.373 9.107 0 1.757-.622 3.397-1.698 4.789-.053.079-.123.166-.21.263l-.007.007a9.86 9.86 0 0 1-1.237 1.234c-3.145 2.907-8.322 6.368-9.005 5.834-.594-.464.978-2.734-.836-3.112-.126-.014-.252-.03-.378-.048h-.002c-5.327-.757-9.373-4.483-9.373-8.967 0-5.03 5.092-9.107 11.373-9.107z"/><path fill="#00C800" d="M8.871 17.147h2.294a.595.595 0 0 0 .593-.593v-.05a.595.595 0 0 0-.593-.593H9.514v-3.756a.595.595 0 0 0-.593-.594h-.05a.595.595 0 0 0-.593.594v4.399c0 .326.267.593.593.593zm14.214-2.757v-.05a.595.595 0 0 0-.594-.593h-1.65v-.94h1.65a.595.595 0 0 0 .594-.592v-.05a.595.595 0 0 0-.594-.593h-2.293a.595.595 0 0 0-.593.593v4.4c0 .326.266.593.593.593h2.293a.595.595 0 0 0 .594-.594v-.049a.595.595 0 0 0-.594-.593h-1.65v-.94h1.65a.595.595 0 0 0 .594-.592zm-4.412 2.58c.11-.11.172-.26.172-.416v-4.4a.595.595 0 0 0-.593-.592h-.05a.595.595 0 0 0-.593.593v2.582l-2.144-2.875a.594.594 0 0 0-.515-.3h-.05a.595.595 0 0 0-.592.593v4.399c0 .326.266.593.593.593h.05a.595.595 0 0 0 .592-.593v-2.63l2.16 2.949c.013.02.028.04.043.06.06.08.14.136.231.17.07.028.146.044.225.044h.05a.587.587 0 0 0 .277-.07.417.417 0 0 0 .144-.107zm-5.843.177h.05a.595.595 0 0 0 .593-.593v-4.4a.595.595 0 0 0-.594-.592h-.049a.595.595 0 0 0-.593.593v4.399c0 .326.267.593.593.593z"/></g></svg>