<svg viewBox="0 0 211.51 48.42" xmlns="http://www.w3.org/2000/svg"><g fill="#fff"><path d="m126.87 20.34c.32-.28.67.52 4.12.52h.9v1.14h-.72c-2.91 0-4.62-1.39-4.3-1.66z"/><path d="m72.7 26.73h-6.52v1.2h6.52v5.52c0 4.87-4 6.74-6 7.37a.12.12 0 0 0 0 .24c2.62-.24 8.66-1.46 8.66-7.61v-13.22h-2.66z"/><path d="m150.25 40.73v-1.42h-15.09c-1.18 0-3.25-1.41-3.32-4.54v-9.34h-.84c-3.45 0-3.8-.8-4.12-.53s.69 1 2.44 1.43v8.82c0 5.6-1.48 6-1.21 6.18s1.88-.58 2.95-2.58a4.71 4.71 0 0 0 4.15 2h15.09z"/><path d="m81.87 38v-9c2.28-.12 6.1-.87 8.15-3.81l-2.12-1.08a12 12 0 0 1 -6 4.19v-8.07h-2.78s0 16.83 0 17.53c0 1.48.62 2.87 3.44 2.87h7.8v-1.49h-7.2c-1.01-.02-1.29-.46-1.29-1.14z"/><path d="m168.47 40.9h2.24v-9.82h-2.24z"/><path d="m179.43 28.86v-8.08h-6.43c-2.49-.14-2.81-.74-3.09-.5s1.31 1.56 4.1 1.62h2.27a1 1 0 0 1 .9 1.1v5.85h-1.51v-3.46c0-1.68-2.35-1.95-2.58-1.75s.61-.2.61 1.8v3.42h-1.66v-5.31c-.05-1.68-2.62-1.95-2.86-1.75s.61-.2.61 1.8v5.26h-1.33v1.23h11v10.66h2.25v-11.89z"/><path d="m160.28 39.21c.23-.21-.66-.78-.66-5.46h-1.88c0 4.18 2.33 5.63 2.54 5.46z"/><path d="m164 39.21c.2.17 2.54-1.28 2.54-5.46h-1.89c-.02 4.68-.91 5.25-.65 5.46z"/><path d="m162.41 21.61a11.23 11.23 0 0 1 3.07 2.64l.69.78 1.3-.83-.69-.79a6.39 6.39 0 0 0 -4.11-2.27c.24-.46.46-.95.67-1.47-.51 0-2.4 0-2.9 0-1.18 5.64-4.33 7-4.11 7.14l1.49-.6v.91h3.18v3.4h-3.5v1.1h3.5v8.27h-3.5v1.11h4.8c2.9 0 4.61-1.35 4.29-1.63s-.62.4-3.34.51v-8.32c2.32-.24 3.63-1.32 3.34-1.57s-.62.4-3.34.51v-3.44c2.32-.24 3.63-1.33 3.34-1.57s-.67.53-4.12.53h-4.23a12.39 12.39 0 0 0 4.17-4.41z"/><path d="m171.5 31.17c-.2.17.88 1.3 2.68 1.3h.93a1.18 1.18 0 0 1 1.19 1.18v3.89a1.19 1.19 0 0 1 -2.38 0v-3.06c0-1.56-2.23-1.8-2.44-1.62s.48-.18.48 1.62v2.58a2.37 2.37 0 0 0 2.37 2.37h1.56a2.38 2.38 0 0 0 2.38-2.37v-5.56h-4.22c-2.14 0-2.35-.5-2.55-.33z"/><path d="m99.83 21.51h.72v-1.1h-.89c-3.45 0-3.8-.81-4.12-.53s1.38 1.63 4.29 1.63z"/><path d="m100.62 25.13h-.92c-3.45 0-3.8-.8-4.12-.53-.13.12.09.41.58.72a3.09 3.09 0 0 0 1 .46 6.59 6.59 0 0 0 .91.26v8.88c0 5.6-1.48 6-1.21 6.18s3.78-1.43 3.78-6.18z"/><path d="m121 38.2h-2.18c0-.77 0-5.19 0-5.24v-.28c1.52-.41 2.33-1.14 2.1-1.34s-.5.2-2.1.41v-6.25h-9.82c-3.45 0-3.8-.8-4.12-.52s1.39 1.62 4.3 1.62h5.89a1.18 1.18 0 0 1 1.15 1.18v2.8 1.28h-9.22v-2.55c0-1.69-2.86-2-3.1-1.76s.53-.19.53 1.8v2.52h-2.29v1.13h2.27v3.2a3.17 3.17 0 0 0 3.16 3.16h8.6v1.64h2.55v-1.67h2.28zm-14-1.9v-3.3h9.19v5.2h-6.79c-1.3-.01-2.4-.59-2.4-1.9z"/><path d="m113.78 30.89.94-1.08c-.46-.28-.78-.49-.9-.57-3.06-1.92-5.36-1-5.33-.82a11.72 11.72 0 0 1 4.39 1.91z"/><path d="m113.78 37.25.94-1.09-.9-.56c-3.06-1.93-5.36-1-5.33-.83a11.72 11.72 0 0 1 4.39 1.91z"/><path d="m105.81 23.43h10.79c2.91 0 4.62-1.34 4.29-1.62s-.67.53-4.12.53h-10.3a6.22 6.22 0 0 0 .58-2.64h-2.58a8.59 8.59 0 0 1 -3 6.51 7.49 7.49 0 0 0 4.34-2.78z"/><path d="m147.15 24.61c2.91 0 4.62-1.35 4.3-1.63s-.67.53-4.12.53h-.33c.84-.31 1.62-.84 1.62-1.72v-1.85h-1.9v1.85c0 1-.36 1.5-.76 1.72h-7.3a1.76 1.76 0 0 1 -.77-1.72v-1.85h-1.89v1.85c0 .88.78 1.41 1.61 1.72h-4.42v1.1h8a7.18 7.18 0 0 1 -.84 2.26h-1.17c-3.45 0-3.8-.8-4.12-.52s1.44 1.65 4.35 1.65h7.35c.38.1.31.49.31.79v1.63h-9.34v-.12c0-1.68-2.86-1.95-3.1-1.75s.53-.18.53 1.82v4.78a2.77 2.77 0 0 0 2.77 2.76h8.94a2.77 2.77 0 0 0 2.77-2.76v-8.26h-6.89a6.32 6.32 0 0 0 1.25-2.28zm-9.42 8.81v-1.9h9.34v1.9zm7.36 3.79h-5.38a2 2 0 0 1 -2-2v-.69h9.34v.69a2 2 0 0 1 -1.96 2z"/></g><path d="m14.79 37a18.38 18.38 0 0 0 2.32-5.52l-5.58-1.61s-.35 4.25-4.16 10.62c-3.37 5.65-6.5 5.58-6.25 6.18s5.63.14 10.37-5.27c.82-.93 1.51-1.81 2.1-2.62a22.88 22.88 0 0 1 8.9 8.07c1.47-1.41 3.14-3.08 3.14-3.08-2.55-3.97-7.2-5.99-10.84-6.77z" fill="#f08300"/><path d="m46.81 37a18.09 18.09 0 0 0 2.32-5.52l-5.57-1.61s-.36 4.25-4.17 10.62c-3.39 5.67-6.5 5.6-6.25 6.2s5.63.14 10.38-5.27c.81-.93 1.5-1.81 2.09-2.62a22.88 22.88 0 0 1 8.9 8.07c1.48-1.41 3.14-3.08 3.14-3.08-2.55-3.99-7.2-6.01-10.84-6.79z" fill="#f08300"/><path d="m26.48 27.26h5.19v21.15h-5.19z" fill="#f08300"/><path d="m33.73 7.39c-.66.55 2.09 5.71 6.53 9.51-4.35 4-8.51 6-8 6.48.17.17 5.24-1.07 10.55-4.56a35 35 0 0 0 9.87 4.74l2.74-3.75-1.42-.46a59.65 59.65 0 0 1 -7.9-3 24.1 24.1 0 0 0 8.64-15.51h-18.74v1.61h13a26.2 26.2 0 0 1 -6.31 12.06c-6.62-3.82-8.26-7.29-8.96-7.12z" fill="#f08300"/><path d="m6.33 16.25a5.48 5.48 0 0 0 5.49 5.48h10.67v2.92h5.19v-22.2h.1c4.17 0 6.61-2 6.15-2.37s-.93.76-5.93.76h-28v1.61h6.33zm16.16-3h-11v-3.9h11zm-8.23 6.91a2.74 2.74 0 0 1 -2.74-2.74v-2.6h11v5.32zm8.23-12.41h-11v-5.3h11z" fill="#f08300"/><path d="m47.14 22.29c-3.14 2.27-10.01 3.71-13.08 3.71l-30.54 1.33v1.59l15.89-.51 5.05-.16c6.89-.23 10.25-.37 13.6-.47 3.89-.17 10.46-1.55 11.86-2.57z" fill="#f08300"/><path d="m208.94 26.27v8.52c0 5.6-1.49 6-1.21 6.18s3.78-1.43 3.78-6.18v-8.52z" fill="#fff"/><path d="m187.59 20.9v1c0 5-1.07 5.32-.88 5.53s2.73-1.28 2.73-5.53v-1z" fill="#fff"/><path d="m188 24.84h2.84v16h2.24v-16c2.32-.24 3.63-1.33 3.35-1.57s-.67.53-4.12.53h-4.24c1.29-.8-.07 1.04-.07 1.04z" fill="#fff"/><path d="m190.88 19.51h2.24v7.79h-2.24z" fill="#fff"/><path d="m198.11 19.67c.21 6.31-2.76 9.82-2.43 9.94 0 0 4.38-2.87 5.3-9.94z" fill="#fff"/><path d="m207.84 26.59a25.36 25.36 0 0 0 .11-2.83l-2.65.15a25.29 25.29 0 0 1 -.1 2.83 7.78 7.78 0 0 1 -.12 1.22 20 20 0 0 1 -5.83 12.49c-.12.12 0 .3.2.22a14.17 14.17 0 0 0 5.94-5.67l.81-1.61a20.58 20.58 0 0 0 1.49-5.6c.1-.79.15-1.2.15-1.2z" fill="#fff"/><path d="m201.47 23.67a8 8 0 0 1 -.05 1.1 18.65 18.65 0 0 1 -4.62 11.84c-.11.12 0 .28.19.19a13.34 13.34 0 0 0 5.12-5.59l.63-1.47v-.12a19.32 19.32 0 0 0 1-5.18 4.25 4.25 0 0 0 0-.52z" fill="#fff"/><path d="m199.47 23.51h8.77l-1.04 1.1h-8.77z" fill="#fff"/><path d="m196.8 29.49c-.27-.2-1.11 1.49-8.13 3.3l-1.31.34v2.37l1.08-.28c6.29-1.63 8.61-5.54 8.36-5.73z" fill="#fff"/><path d="m207.78 24.59a1.18 1.18 0 0 1 1.15 1.18v10.45l2.59-2.17v-10.57h-8.76c-3.45 0-2.73 1.1.17 1.1z" fill="#fff"/></svg>