<svg height="55" width="239" xmlns="http://www.w3.org/2000/svg"><path d="m229.1 26.685c-.286 0-.538.009-.774.021h-2.292a19.751 19.751 0 0 0 1.069-4.363h-3.25c.244 7.173-3.113 11.162-2.738 11.3 0 0 2.574-1.715 4.399-5.682h2.1c-.004.06-.006.107-.013.173-.393 7.203-3.183 10.975-5.226 13.453-.118.141.056.318.215.221a15.099 15.099 0 0 0 5.791-6.35l.706-1.669c.02-.047.04-.094.057-.143.57-1.601.97-3.492 1.14-5.685h1.702c-.004.873-.047 1.5-.116 2.418 0 0 .012.43-.14 1.386-.91 7.79-4.193 11.657-6.578 14.18-.136.145.04.35.22.26 1.969-1.017 4.677-2.869 6.714-6.424l.917-1.827c.765-1.76 1.356-3.868 1.686-6.366l.159-1.387c.074-.857.121-1.459.132-2.241.63.11 1.11.652 1.11 1.314l-.014 11.23c-.164 5.41-1.642 5.792-1.352 6.038.267.23 4.275-1.626 4.275-7.024v-.84h.001v-12.005zm-6.718 6.82c-.227-.167-.792.808-4.159 2.147v-7.499c2.621-.28 4.101-1.508 3.778-1.788-.331-.287-.7.458-3.778.581v-4.78h-2.532v4.799h-1.826c.122-.608.199-1.281.199-2.042v-1.179h-2.098v1.18c0 5.684-1.208 6.043-.986 6.276.139.149 1.69-.687 2.537-2.986h2.172v8.329c-.745.233-1.572.472-2.499.712l-1.483.384v2.684c.594-.153 1.026-.265 1.226-.315a20.449 20.449 0 0 0 2.756-.931v7.272h2.534v-8.566c3.137-1.943 4.35-4.135 4.16-4.279zm-179.38-1.95c4.396-.188 11.822-1.759 13.403-2.914l-3.142-3.322c-3.581 2.58-11.31 4.199-14.782 4.195l-34.505 1.533v1.805c5.108-.165 11.55-.374 17.961-.58l5.7-.184 2.29-.076v22.988h5.86v-23.19c2.902-.104 5.063-.185 7.215-.255zm-29.986-11.79a3.104 3.104 0 0 0 3.097 3.114h9.3v-6.041h-12.396v2.927zm0-4.736h12.397v-4.412h-12.397v4.412zm0-6.223h12.397v-6.019h-12.397v6.02zm-5.86-6.019h-7.156v-1.832h31.673c5.585 0 6.152-1.309 6.666-.862.523.449-2.24 2.694-6.948 2.694h-.117v25.22h-5.86v-3.318h-12.058c-3.425 0-6.2-2.79-6.2-6.233v-15.669zm30.958 5.607c-.741.632 2.358 6.488 7.376 10.803-4.915 4.563-9.611 6.808-9.089 7.368.187.193 5.919-1.22 11.92-5.181 4.439 3.089 8.85 4.727 11.15 5.378l3.098-4.258-1.559-.524c-3.49-1.083-6.434-2.248-8.934-3.426 4.658-4.001 8.785-9.715 9.784-17.599h-21.227v1.832h14.65c-1.203 5.691-4.024 10.2-7.135 13.698-7.394-4.342-9.241-8.288-10.034-8.09zm14.781 33.613c1.997-3.284 2.37-5.426 2.622-6.264l-6.3-1.832s-.399 4.826-4.708 12.067c-3.832 6.439-7.341 6.353-7.064 7.041.251.602 6.369.16 11.727-5.994a39.733 39.733 0 0 0 2.365-2.972c3.033 1.67 7.044 4.272 10.058 9.168 1.668-1.6 3.544-3.503 3.544-3.503-2.873-4.508-8.129-6.798-12.244-7.711zm-36.182 0c1.989-3.284 2.37-5.426 2.62-6.264l-6.305-1.832s-.392 4.826-4.701 12.067c-3.833 6.439-7.349 6.352-7.067 7.041.25.602 6.37.16 11.721-5.994a38.2 38.2 0 0 0 2.372-2.972c3.027 1.67 7.038 4.272 10.06 9.168 1.66-1.6 3.542-3.503 3.542-3.503-2.88-4.508-8.135-6.798-12.243-7.711zm138.919-4.042h10.548v-2.163h-10.548zm10.548 1.277h-10.548v.779c0 1.24 1 2.245 2.233 2.245h6.08a2.24 2.24 0 0 0 2.235-2.245v-.78zm4.952-13.138c.365.316-1.567 1.849-4.854 1.849h-3.567c-.304.956-.771 1.86-1.41 2.577l7.784.022v9.34c0 1.735-1.401 3.144-3.128 3.144h-10.102a3.137 3.137 0 0 1 -3.13-3.144v-5.429c0-2.264-.902-1.808-.595-2.069.264-.226 3.502.08 3.502 1.995v.136h10.548v-1.854c0-.346.08-.783-.351-.892h-8.298c-3.286 0-5.218-1.533-4.853-1.849.36-.312.756.6 4.655.6h1.332c.398-.623.76-1.686.938-2.577h-9.066v-1.25h4.997c-.946-.343-1.827-.952-1.827-1.948v-2.103h2.139v2.103c0 1.165.415 1.698.865 1.948h8.25c.45-.25.865-.783.865-1.948v-2.103h2.139v2.103c0 .996-.88 1.605-1.827 1.948h.338c3.9 0 4.295-.911 4.656-.6zm-51.572.51.009-.015h12.196c3.286 0 5.218-1.533 4.854-1.849-.361-.312-.757.6-4.657.6h-11.656c.4-.856.658-1.844.658-2.999h-2.917c0 5.08-3.57 7.402-3.376 7.402.541 0 3.204-.898 4.889-3.14zm3.033 12.89c.044.246 1.087-.278 4.953 2.165l1.02.643 1.064-1.229c-.515-.326-.88-.557-1.02-.643-3.46-2.186-6.053-1.155-6.017-.937zm5.973-4.408 1.064-1.228c-.515-.326-.88-.556-1.02-.646-3.46-2.181-6.053-1.15-6.017-.932.044.247 1.087-.278 4.953 2.161zm2.761 8.288-.004-5.912h-10.38v3.76c0 1.49 1.202 2.152 2.68 2.152zm2.886.015h2.466v1.277h-2.466v1.894l-2.89.007v-1.876h-9.71c-1.975 0-3.574-1.61-3.574-3.594v-3.635h-2.568v-.018h-.022v-1.25h2.59v-2.863c0-2.263-.903-1.782-.597-2.042.263-.228 3.502.079 3.502 1.993v2.913h10.379v-1.453h.006v-3.178a1.34 1.34 0 0 0 -1.301-1.34h-6.663c-3.286 0-5.218-1.533-4.854-1.85.361-.311.756.6 4.656.6l11.072-.012v7.1c1.811-.24 2.107-.704 2.38-.467.26.224-.658 1.056-2.38 1.523v.31c-.02.062-.026 5.077-.026 5.961zm-26.211-15.482c-.148.129.102.46.654.809.224.177.602.378 1.107.531.306.11.653.206 1.028.287v10.088c0 6.36-1.674 6.763-1.367 7.024.266.229 4.275-1.626 4.275-7.024v-11.09l-1.04-.025c-3.9 0-4.295-.912-4.657-.6zm4.805-3.485h.816v-1.25h-1.015c-3.898 0-4.294-.91-4.655-.6-.366.317 1.567 1.85 4.854 1.85zm80.982 10.98c-.225.19.992 1.47 3.027 1.47h1.054c.74 0 1.34.603 1.34 1.345v4.416c0 .744-.6 1.348-1.34 1.348-.738 0-1.34-.604-1.34-1.348v-3.479c0-1.762-2.52-2.045-2.762-1.839-.274.234.54-.2.54 1.84v2.934a2.685 2.685 0 0 0 2.679 2.694h1.769c1.48 0 2.68-1.205 2.68-2.694v-6.316h-4.767c-2.412 0-2.654-.565-2.88-.372zm-10.272-10.86c.69.358 1.832 1.127 3.467 2.99l.783.89 1.471-.94c-.396-.45-.677-.77-.783-.894-1.674-1.906-3.51-2.48-4.643-2.586.267-.518.524-1.073.757-1.667-.577-.006-2.716.005-3.28 0-1.333 6.41-4.884 7.914-4.637 8.115l1.681-.683v1.027h3.599v3.864h-3.958v1.25h3.958v9.394h-3.958v1.249h5.416c3.287 0 5.219-1.533 4.854-1.85-.332-.286-.7.458-3.778.581v-9.436c2.62-.28 4.1-1.509 3.778-1.788-.332-.287-.7.458-3.778.581v-3.907c2.62-.28 4.1-1.508 3.778-1.787-.361-.312-.757.6-4.656.6h-4.785c1.407-.869 3.243-2.427 4.714-5.003zm1.77 19.986c.238.202 2.873-1.448 2.873-6.2h-2.134c0 5.316-1.005 5.97-.738 6.2zm-4.178 0c.268-.23-.738-.884-.738-6.2h-2.133c0 4.752 2.635 6.402 2.871 6.2zm21.647-11.751h2.534v13.503h-2.534v-12.11h-12.396v-1.393h1.512v-5.98c0-2.265-.995-1.785-.689-2.045.265-.228 3.173.084 3.225 1.996v6.029h1.876v-3.892c0-2.263-.995-1.781-.688-2.042.265-.226 2.872.083 2.921 1.995v3.939h1.703v-6.645c0-.663-.387-1.19-1.013-1.253h-2.349c-.068 0-.126-.01-.192-.01h-.03l-.003-.003c-3.144-.07-4.984-1.527-4.629-1.836.321-.278.676.412 3.493.568h7.258v9.179zm-12.395 13.67h2.531v-11.154h-2.531v11.156zm-97.852-3.279.022-10.205c2.576-.131 6.897-.985 9.212-4.324l-2.42-1.26c-1.917 2.75-4.83 4.078-6.792 4.758v-9.16h-3.127l.018 19.906c0 1.686.708 3.267 3.889 3.267.035.025 6.417.023 8.812.02v-1.72c-2.014-.007-7.056-.024-8.13-.024-1.169 0-1.484-.494-1.484-1.258zm60.22 1.478c-1.339 0-3.68-1.607-3.75-5.156l.004-10.613h-1.015c-3.899 0-4.295-.912-4.655-.6-.279.241.784 1.186 2.759 1.622v10.023c0 6.36-1.675 6.763-1.368 7.024.184.158 2.126-.666 3.329-2.94.977 1.47 2.598 2.246 4.696 2.246v.012h17.046l-.03-1.618zm-70.581-14.287h-7.362v1.361h7.362v6.271c0 5.536-4.477 7.656-6.747 8.376-.151.05-.105.275.053.262 2.955-.27 9.782-1.654 9.782-8.638v-15.014h-3.088zm61.213-7.267c.362-.312.757.6 4.657.6h1.015v1.25h-.817c-3.287 0-5.219-1.534-4.855-1.85z" fill="#f08300" fill-rule="evenodd"/></svg>