<?xml version="1.0" encoding="utf-8"?>
<!-- Generator: Adobe Illustrator 25.2.1, SVG Export Plug-In . SVG Version: 6.00 Build 0)  -->
<svg version="1.1" id="Layer_1" xmlns="http://www.w3.org/2000/svg" xmlns:xlink="http://www.w3.org/1999/xlink" x="0px" y="0px"
	 viewBox="0 0 22 22" style="enable-background:new 0 0 22 22;" xml:space="preserve">
<style type="text/css">
	.st0{fill:#DF032E;}
</style>
<path class="st0" d="M4.1,2.6c0.3,0,0.5,0.2,0.6,0.5v0.1l0.2,2.6h7.5c0.3,0,0.6,0.3,0.6,0.6c0,0.3-0.2,0.5-0.5,0.6h-0.1H5l0.4,5.9
	l12-0.8l0.2-0.7c0.1-0.3,0.4-0.5,0.7-0.4c0.3,0,0.5,0.3,0.5,0.5v0.1l-0.3,1.1c-0.1,0.2-0.2,0.4-0.5,0.4h-0.1L5.8,14
	c0.3,0.6,1,1.1,1.9,1.2h0.1h7.7c1.2,0,2.2,1,2.2,2.2c0,1.2-1,2.2-2.2,2.2s-2.2-1-2.2-2.2c0-0.4,0.1-0.7,0.2-1H8.8
	C9,16.7,9,17,9,17.4c0,1.2-1,2.2-2.2,2.2s-2.2-1-2.2-2.2c0-0.7,0.3-1.3,0.9-1.7c-0.7-0.6-1.2-1.4-1.3-2.3v-0.2L3.6,3.8H2.2
	c-0.3,0-0.6-0.2-0.6-0.5V3.2c0-0.3,0.2-0.6,0.5-0.6h0.1L4.1,2.6z M15.6,16.3c-0.6,0-1,0.4-1,1c0,0.5,0.4,1,1,1c0.5,0,1-0.4,1-1
	c0-0.5-0.4-0.9-0.9-1H15.6z M6.9,16.4c-0.5,0-1,0.4-1,1c0,0.5,0.4,1,1,1c0.5,0,1-0.4,1-1S7.4,16.4,6.9,16.4z M17.5,3.4
	c0.3,0,0.5,0.2,0.6,0.5V4v1.8h1.8c0.3,0,0.6,0.3,0.6,0.6c0,0.3-0.2,0.5-0.5,0.6h-0.1h-1.8v1.8c0,0.3-0.3,0.6-0.6,0.6
	S17,9.2,16.9,8.9V8.8V6.9h-1.8c-0.3,0-0.6-0.3-0.6-0.6c0-0.3,0.2-0.5,0.5-0.6h0.1h1.8V4C16.9,3.7,17.2,3.4,17.5,3.4z"/>
</svg>
