<svg enable-background="new 0 0 22 22" viewBox="0 0 22 22" xmlns="http://www.w3.org/2000/svg"><path d="m2.3 0c.3 0 .5.2.6.5v.1l.2 2.6h7.5c.3 0 .6.3.6.6s-.2.5-.5.6h-.1-7.4l.4 5.9 12-.8.2-.7c.1-.3.4-.5.7-.4.3 0 .5.3.5.5v.1l-.3 1.1c-.1.2-.2.4-.5.4h-.1l-12.1.9c.3.6 1 1.1 1.9 1.2h.1 7.7c1.2 0 2.2 1 2.2 2.2s-1 2.2-2.2 2.2-2.2-1-2.2-2.2c0-.4.1-.7.2-1h-4.7c.2.3.2.6.2 1 0 1.2-1 2.2-2.2 2.2s-2.2-1-2.2-2.2c0-.7.3-1.3.9-1.7-.7-.6-1.2-1.4-1.3-2.3v-.2l-.6-9.4h-1.4c-.3 0-.6-.2-.6-.5v-.1c0-.3.2-.6.5-.6h.1zm11.5 13.7c-.6 0-1 .4-1 1 0 .5.4 1 1 1 .5 0 1-.4 1-1 0-.5-.4-.9-.9-1zm-8.7.1c-.5 0-1 .4-1 1 0 .5.4 1 1 1 .5 0 1-.4 1-1s-.5-1-1-1zm10.6-13c.3 0 .5.2.6.5v.1 1.8h1.8c.3 0 .6.3.6.6s-.2.5-.5.6h-.1-1.8v1.8c0 .3-.3.6-.6.6s-.5-.2-.6-.5v-.1-1.9h-1.8c-.3 0-.6-.3-.6-.6s.2-.5.5-.6h.1 1.8v-1.7c0-.3.3-.6.6-.6z" fill="#be0e31" transform="translate(1.767857 2.553571)"/></svg>