<svg height="60" viewBox="0 0 60 60" width="60" xmlns="http://www.w3.org/2000/svg" xmlns:xlink="http://www.w3.org/1999/xlink"><defs><path id="a" d="m3.68815697 0c.40771794 0 .75277102.28572866.83736877.67369038l.01736788.11927201.28310638 3.77803761 10.8882857.00042857c.4733869 0 .8571429.38375593.8571429.85714286 0 .43393802-.3224616.7925611-.7408337.84931815l-.1163092.00782471-10.7592857-.00071429.642 8.549 17.4578571-1.1025714.2555142-1.0250777c.1140424-.4594448.5789457-.7394487 1.0383905-.6254063.4211577.1045389.6915352.5038983.6458318.9236217l-.0204255.1147688-.4058728 1.6351469c-.0800435.3224725-.3376337.5657849-.6558902.6324265l-.1219617.0165187-17.7557728 1.1218865c.5520883.997905 1.58765946 1.6836056 2.78037945 1.7543527l.20444718.0060479h11.26621707c1.7357521 0 3.1428571 1.4071051 3.1428571 3.1428571 0 1.7357521-1.407105 3.1428572-3.1428571 3.1428572s-3.1428572-1.4071051-3.1428572-3.1428572c0-.5143412.1235532-.9998251.3425991-1.4283911h-6.9709124c.2190459.428566.3425991.9140499.3425991 1.4283911 0 1.7357521-1.40710511 3.1428572-3.14285719 3.1428572-1.73575207 0-3.14285714-1.4071051-3.14285714-3.1428572 0-1.0370176.50225404-1.9567276 1.27677759-2.5291452-1.03143629-.8120639-1.74532336-2.0155548-1.91434512-3.3982507l-.02378957-.2413284-1.01750004-13.54556139h-2.03542857c-.43393802 0-.7925611-.32246157-.84931816-.74083364l-.0078247-.11630921c0-.43393802.32246158-.7925611.74083365-.84931816l.11630921-.0078247zm16.59755733 20c-.7889782 0-1.4285714.6395932-1.4285714 1.4285714s.6395932 1.4285715 1.4285714 1.4285715 1.4285714-.6395933 1.4285714-1.4285715-.6395932-1.4285714-1.4285714-1.4285714zm-12.57142859 0c-.78897821 0-1.42857142.6395932-1.42857142 1.4285714s.63959321 1.4285715 1.42857142 1.4285715c.78897822 0 1.42857143-.6395933 1.42857143-1.4285715s-.63959321-1.4285714-1.42857143-1.4285714zm15.42857139-18.85714286c.4339381 0 .7925611.32246158.8493182.74083365l.0078247.11630921-.001 2.571 2.5724286.00042857c.4733869 0 .8571428.38375593.8571428.85714286 0 .43393802-.3224616.7925611-.7408336.84931815l-.1163092.00782471-2.5724286-.00071429.001 2.57214286c0 .47338693-.3837559.85714285-.8571429.85714285-.433938 0-.7925611-.32246157-.8493181-.74083364l-.0078247-.11630921-.0007143-2.57214286-2.5707143.00071429c-.4733869 0-.8571428-.38375593-.8571428-.85714286 0-.43393802.3224615-.7925611.7408336-.84931815l.1163092-.00782471 2.5707143-.00042857.0007143-2.571c0-.47338693.3837559-.85714286.8571428-.85714286z"/><mask id="b" fill="#fff"><circle cx="30" cy="30" fill="#fff" fill-rule="evenodd" r="30"/></mask><mask id="c" fill="#fff"><use fill="#fff" fill-rule="evenodd" xlink:href="#a"/></mask></defs><g fill="none" fill-rule="evenodd"><g fill="#df032e" mask="url(#b)"><path d="m0 0h60v60h-60z"/></g><g mask="url(#b)"><g transform="translate(16.571429 17.714286)"><use fill="#000" fill-rule="nonzero" xlink:href="#a"/><g fill="#fff" mask="url(#c)"><path d="m0 0h61.714286v61.714286h-61.714286z" transform="translate(-17.142857 -18.285714)"/></g></g></g></g></svg>