<svg xmlns="http://www.w3.org/2000/svg" xmlns:xlink="http://www.w3.org/1999/xlink" width="45" height="45" viewBox="0 0 45 45">
    <defs>
        <path id="1vwloostja" d="M1.922.236l.136.117 12.004 12.005L26.067.353c.471-.47 1.234-.47 1.705 0 .428.428.467 1.098.117 1.57l-.117.135-12.004 12.005 12.004 12.004c.428.428.467 1.098.117 1.57l-.117.135c-.428.428-1.098.467-1.57.117l-.135-.117-12.005-12.006L2.058 27.772c-.471.47-1.234.47-1.705 0-.428-.428-.467-1.098-.117-1.57l.117-.135 12.004-12.005L.353 2.059C-.075 1.63-.114.96.236.488L.353.353c.428-.428 1.098-.467 1.57-.117z"/>
    </defs>
    <g fill="none" fill-rule="evenodd">
        <g>
            <g>
                <g transform="translate(-1250.000000, -244.000000) translate(1250.000000, 244.000000) translate(8.437500, 8.437500)">
                    <mask id="3r5ssnwy2b" fill="#fff">
                        <use xlink:href="#1vwloostja"/>
                    </mask>
                    <use fill="#000" fill-rule="nonzero" xlink:href="#1vwloostja"/>
                    <g fill="#FFF" mask="url(#3r5ssnwy2b)">
                        <path d="M0 0H45V45H0z" transform="translate(-8.437500, -8.437500)"/>
                    </g>
                </g>
            </g>
        </g>
    </g>
</svg>
