<svg enable-background="new 0 0 54 54" viewBox="0 0 54 54" xmlns="http://www.w3.org/2000/svg" xmlns:xlink="http://www.w3.org/1999/xlink"><mask id="a" height="54" maskUnits="userSpaceOnUse" width="54" x="-40.1" y="-36.9"><path clip-rule="evenodd" d="m-1-13c0 2.8-.2 5.6-.4 8.4-.3 3.1-.8 6.6-2.9 9.2-2.3 2.9-6.4 3.4-10.2 3.4s-7.9-.5-10.2-3.4c-2.1-2.6-2.6-6-2.8-9.2-.3-2.8-.5-5.6-.5-8.4z" fill="#fff" fill-rule="evenodd"/></mask><mask id="b" height="54" maskUnits="userSpaceOnUse" width="54" x="-33" y="-17.2"><path clip-rule="evenodd" d="m-7.1-13c1.9-.2 3.6 1.2 3.8 3.1v.1l-.3 2.8h.1l1-.1 1-.1 1.4-.1h.9.9.8.8.7.7.7.6.6.3.5c.3 0 .7.1 1 .1h.2c1.4.3 2.4 1.3 2.5 2.7l.4 3.9-29.1 3.1h28.6v1 .7c.2 0 .4-.1.5-.1h2c1.4 0 2.5 1.1 2.5 2.5v1c0 1.4-1.1 2.5-2.5 2.5h-2c-.3 0-.5 0-.8-.1-.1 1.1-.2 2.1-.2 3.2-.5 5.1-1.4 8.3-3.6 11-.8 1-1.8 1.8-2.9 2.4l-.7 3.8h6.2c.6 0 1 .4 1 1 0 .5-.4.9-.9 1h-.1-31.5c-.6 0-1-.4-1-1 0-.5.4-.9.9-1h.1 7.2l-.7-3.5c-1.2-.6-2.2-1.4-3.1-2.4l-.2-.2c-2.2-2.7-3.1-6-3.6-11-.1-1.1-.2-2.1-.3-3.2-.3.1-.5.1-.8.1h-2c-1.4 0-2.5-1.1-2.5-2.5v-1c0-1.4 1.1-2.5 2.5-2.5h2c.2 0 .4 0 .6.1v-.7-.5l-1.4.1-.4-3.9c-.2-1.5.6-2.5 2.1-3.3.3-.1.5-.2.9-.3l.5-.2.5-.2.6-.1c.2 0 .4-.1.6-.1l.6-.1c.1 0 .2 0 .3-.1l.7-.1.7-.1.8-.1.8-.1.8-.1.9-.1.9-.1.9-.1 1-.1h.2l-1-2.6v-.3c-.1-1.8 1.3-3.4 3.1-3.6zm5.2 41.4c-1.2.1-2.6.2-4.1.2-1.3 0-2.5-.1-3.6-.2v2h7.7zm-11.4-.6.4 2.1h1.3v-1.7c-.6-.1-1.2-.3-1.7-.4zm15.1-.1-1.7.4v1.7h1.3zm7.2-24.1v1h-29.9v.4c0 2.3.2 4.6.3 6.8l.2 1.8c.4 4.4 1.2 7.2 3.1 9.5 2.2 2.6 5.8 3.6 11.3 3.6s9.2-1 11.3-3.6c1.9-2.3 2.7-5.2 3.1-9.9.4-3.2.5-6.4.6-9.6zm-15 5.5c2.7 0 4.9 2.1 5 4.8v.2 9h-10v-5.1c0-.6.4-1 1-1 .5 0 .9.4 1 .9v.1 3.1h6v-7c0-1.6-1.3-2.9-2.9-3h-.2c-1.6 0-2.9 1.3-3 2.9v.2.9c0 .6-.4 1-1 1-.5 0-.9-.4-1-.9v-.1-.9c.1-2.8 2.3-5.1 5.1-5.1zm.7 7.8c.6 0 1 .4 1 1 0 .5-.4.9-.9 1h-.1-1.4c-.6 0-1-.4-1-1 0-.5.4-.9.9-1h.1zm-18.2-10.7h-2c-.3 0-.5.2-.5.5v1c0 .3.2.5.5.5h2c.3 0 .5-.2.5-.5v-1c0-.2-.2-.5-.5-.5zm37 0h-2c-.3 0-.5.2-.5.5v1c0 .3.2.5.5.5h2c.3 0 .5-.2.5-.5v-1c0-.2-.2-.5-.5-.5zm-9.4-11.6h-.7-.8-.8-.8-.9l-.9.1-1 .1-1 .1-1 .1-1.1.1-1.7.2-1.6.2-1.5.2-1 .1-1.4.2-.9.1-.9.1-.8.1-.8.1-.7.1-.7.1-.7.1c-.1 0-.2 0-.3.1l-.7.2c-.1 0-.2 0-.3.1l-.6.1-.5.1-.5.1-.4.1-.4.1c-.2.1-.4.1-.5.2-.8.4-1 .7-.9 1.3l.2 1.9 31.8-3.2-.2-1.9c-.1-.6-.4-.9-1-1h-.1-.2c-.4-.1-1-.1-1.5-.1h-.6c-.1 0-.2 0-.3 0h-.6zm-10.8-5.6h-.1l-1.7.2c-.9.1-1.5.8-1.4 1.5l1.1 2.8 3.2-.3.4-3c-.2-.7-.8-1.2-1.5-1.2z" fill="#fff" fill-rule="evenodd"/></mask><path d="m0 0h54v54h-54z" fill="none"/><g mask="url(#a)" transform="translate(40.067495 36.867406)"><path clip-rule="evenodd" d="m-28-13h54v54h-54z" fill="#df032e" fill-opacity=".3" fill-rule="evenodd" transform="translate(-12.067495 -23.867406)"/></g><g mask="url(#b)" transform="translate(33 17.247452)"><path clip-rule="evenodd" d="m-28-13h54v54h-54z" fill="#be0e31" fill-rule="evenodd" transform="translate(-5 -4.247452)"/></g></svg>