<?xml version="1.0" encoding="utf-8"?>
<!-- Generator: Adobe Illustrator 25.2.1, SVG Export Plug-In . SVG Version: 6.00 Build 0)  -->
<svg version="1.1" id="Layer_1" xmlns="http://www.w3.org/2000/svg" xmlns:xlink="http://www.w3.org/1999/xlink" x="0px" y="0px"
	 viewBox="0 0 24 24" style="enable-background:new 0 0 24 24;" xml:space="preserve">
<style type="text/css">
	.st0{fill:#4CAF50;}
</style>
<path class="st0" d="M12,1.5c-6.1,0-11,4-11,8.9c0,4.4,3.9,8.1,9.2,8.8c0.4,0.1,0.8,0.2,1,0.5c0.1,0.3,0.1,0.7,0,1l-0.1,0.9
	c0,0.3-0.2,1.1,1,0.6c1.2-0.5,6.3-3.7,8.6-6.4c1.6-1.7,2.3-3.5,2.3-5.5C23,5.5,18.1,1.5,12,1.5z M7.7,13.4H5.5
	c-0.3,0-0.6-0.3-0.6-0.6V8.4c0-0.3,0.3-0.6,0.6-0.6c0.3,0,0.6,0.3,0.6,0.6v3.8h1.6c0.3,0,0.6,0.3,0.6,0.6C8.3,13.1,8,13.4,7.7,13.4z
	 M10,12.8c0,0.3-0.3,0.6-0.6,0.6c-0.3,0-0.6-0.3-0.6-0.6V8.4c0-0.3,0.3-0.6,0.6-0.6c0.3,0,0.6,0.3,0.6,0.6L10,12.8L10,12.8z
	 M15.2,12.8c0,0.2-0.2,0.5-0.4,0.5c-0.1,0-0.1,0-0.2,0c-0.2,0-0.4-0.1-0.5-0.2l-2.2-3v2.7c0,0.3-0.3,0.6-0.6,0.6
	c-0.3,0-0.6-0.3-0.6-0.6V8.4c0-0.2,0.2-0.5,0.4-0.5c0.1,0,0.1,0,0.2,0c0.2,0,0.3,0.1,0.5,0.2l2.3,3.1V8.4c0-0.3,0.3-0.6,0.6-0.6
	c0.3,0,0.6,0.3,0.6,0.6C15.2,8.4,15.2,12.8,15.2,12.8z M18.8,10c0.3,0,0.6,0.3,0.6,0.6c0,0.3-0.3,0.6-0.6,0.6h-1.6v1h1.6
	c0.3,0,0.6,0.3,0.6,0.6c0,0.3-0.3,0.6-0.6,0.6h-2.2c-0.3,0-0.6-0.3-0.6-0.6V8.4c0-0.3,0.3-0.6,0.6-0.6h2.2c0.3,0,0.6,0.3,0.6,0.6
	c0,0.3-0.3,0.6-0.6,0.6h-1.6v1L18.8,10L18.8,10z"/>
</svg>
