<?xml version="1.0" encoding="utf-8"?>
<!-- Generator: Adobe Illustrator 25.2.1, SVG Export Plug-In . SVG Version: 6.00 Build 0)  -->
<svg version="1.1" id="Layer_1" xmlns="http://www.w3.org/2000/svg" xmlns:xlink="http://www.w3.org/1999/xlink" x="0px" y="0px"
	 viewBox="0 0 24 24" style="enable-background:new 0 0 24 24;" xml:space="preserve">
<style type="text/css">
	.st0{fill:#246DFF;}
</style>
<path class="st0" d="M23,12c0-6.1-4.9-11-11-11S1,5.9,1,12s4.9,11,11,11c0.1,0,0.1,0,0.2,0v-8.6H9.8v-2.8h2.4v-2
	c0-2.3,1.4-3.6,3.5-3.6c1,0,1.9,0.1,2.1,0.1v2.5h-1.4c-1.1,0-1.4,0.5-1.4,1.3v1.8h2.7l-0.4,2.8H15v8.1C19.6,21.3,23,17,23,12z"/>
</svg>
