<?xml version="1.0" encoding="utf-8"?>
<!-- Generator: Adobe Illustrator 25.2.1, SVG Export Plug-In . SVG Version: 6.00 Build 0)  -->
<svg version="1.1" id="Layer_1" xmlns="http://www.w3.org/2000/svg" xmlns:xlink="http://www.w3.org/1999/xlink" x="0px" y="0px"
	 viewBox="0 0 38 38" style="enable-background:new 0 0 38 38;" xml:space="preserve">
<style type="text/css">
	.st0{opacity:0;fill:#FFFFFF;}
	.st1{fill:#666666;}
</style>
<rect x="0" class="st0" width="38" height="38"/>
<g>
	<path class="st1" d="M33.9,18.9c-0.1-0.6-0.6-1.1-1.2-1.1c-0.7,0-1.2,0.5-1.2,1.2v8.7v0.2c-0.1,2-1.7,3.5-3.7,3.5H10.3H10
		c-2-0.1-3.5-1.7-3.5-3.7V10.3v-0.2c0.1-2,1.7-3.5,3.7-3.5H19h0.1c0.6-0.1,1.1-0.6,1.1-1.2c0-0.7-0.5-1.2-1.2-1.2h-8.7H10
		c-3.4,0.1-6,2.9-6,6.2v17.4V28c0.1,3.4,2.9,6,6.2,6h17.4h0.2c3.4-0.1,6-2.9,6-6.2V19v-0.1H33.9z"/>
	<path class="st1" d="M24.8,8.1l3.6,2.2c-8.7,0.9-12.9,4.6-12.9,13.4c0,0.7,0.5,1.2,1.2,1.2s1.2-0.5,1.2-1.2c0-7,3-9.9,9.8-10.8
		l0.6-0.1L25,15l-0.1,0.1c-0.5,0.4-0.6,1.1-0.2,1.6c0.4,0.6,1.1,0.7,1.7,0.4l7.1-4.6l0.1-0.1c0.6-0.5,0.6-1.5-0.1-2l-7.1-4.6
		l-0.1-0.1c-0.6-0.2-1.2-0.1-1.6,0.5l-0.1,0.1C24.1,6.9,24.3,7.7,24.8,8.1z"/>
</g>
</svg>
