<?xml version="1.0" encoding="utf-8"?>
<!-- Generator: Adobe Illustrator 25.2.1, SVG Export Plug-In . SVG Version: 6.00 Build 0)  -->
<svg version="1.1" id="Layer_1" xmlns="http://www.w3.org/2000/svg" xmlns:xlink="http://www.w3.org/1999/xlink" x="0px" y="0px"
	 viewBox="0 0 36 36" style="enable-background:new 0 0 36 36;" xml:space="preserve">
<style type="text/css">
	.st0{opacity:0;fill:#FFFFFF;}
	.st1{fill:#BE0E31;}
</style>
<g>
	<rect class="st0" width="36" height="36"/>
	<g>
		<path class="st1" d="M30,17.9c-0.1-0.5-0.5-0.9-1-0.9c-0.6,0-1,0.4-1,1v7v0.2c-0.1,1.6-1.4,2.8-3,2.8H11h-0.2
			C9.2,27.9,8,26.6,8,25V11v-0.2C8.1,9.2,9.4,8,11,8h7h0.1C18.6,7.9,19,7.5,19,7c0-0.6-0.4-1-1-1h-7h-0.2C8.1,6.1,6,8.3,6,11v14v0.2
			c0.1,2.7,2.3,4.8,5,4.8h14h0.2c2.7-0.1,4.8-2.3,4.8-5v-7V17.9z"/>
		<path class="st1" d="M22.7,9.2l2.9,1.8c-7,0.7-10.4,3.7-10.4,10.8c0,0.6,0.4,1,1,1s1-0.4,1-1c0-5.6,2.4-8,7.9-8.7l0.5-0.1
			l-2.8,1.8l-0.1,0.1c-0.4,0.3-0.5,0.9-0.2,1.3c0.3,0.5,0.9,0.6,1.4,0.3l5.7-3.7l0.1-0.1c0.5-0.4,0.5-1.2-0.1-1.6l-5.7-3.7l-0.1-0.1
			c-0.5-0.2-1-0.1-1.3,0.4l-0.1,0.1C22.1,8.3,22.3,8.9,22.7,9.2z"/>
	</g>
</g>
</svg>
