<?xml version="1.0" encoding="utf-8"?>
<!-- Generator: Adobe Illustrator 25.2.1, SVG Export Plug-In . SVG Version: 6.00 Build 0)  -->
<svg version="1.1" id="Layer_1" xmlns="http://www.w3.org/2000/svg" xmlns:xlink="http://www.w3.org/1999/xlink" x="0px" y="0px"
	 viewBox="0 0 36 36" style="enable-background:new 0 0 36 36;" xml:space="preserve">
<style type="text/css">
	.st0{opacity:0;fill:#FFFFFF;}
	.st1{fill-rule:evenodd;clip-rule:evenodd;fill:#F7F7F7;}
	.st2{fill-rule:evenodd;clip-rule:evenodd;fill:#CCCCCC;}
</style>
<g>
	<rect class="st0" width="36" height="36"/>
	<path class="st1" d="M23.6,7c-2.3,0-4.5,1.3-5.6,3.3c-1.1-2-3.3-3.3-5.6-3.3C8.9,7,6,10.3,6,13.9C6,22.8,18,29,18,29
		s12-6.2,12-15.1C30,10.3,27.1,7,23.6,7z"/>
	<g>
		<path id="zqjzcsxzla_2_" class="st2" d="M23.3,6.2c-2.1,0.1-4,1-5.3,2.6v0.1V8.8c-1.4-1.6-3.4-2.6-5.5-2.6c-3.9,0-7.2,3.6-7.2,7.7
			c0,4.2,2.4,8.1,6.3,11.5c1.3,1.2,2.8,2.3,4.2,3.2l0.3,0.2l0.6,0.4l0.3,0.2l0.6,0.3l0.2,0.1c0.2,0.1,0.5,0.1,0.8,0l0.3-0.2l0.2-0.1
			c0.2-0.1,0.3-0.2,0.5-0.3l0.6-0.4l0.3-0.2c1.4-0.9,2.9-2,4.2-3.2c3.9-3.5,6.3-7.3,6.3-11.5c0-4.1-3.3-7.7-7.2-7.7H23.3L23.3,6.2z
			 M23.6,7.8c3,0,5.6,2.8,5.6,6c0,3.6-2.1,7.1-5.7,10.3c-1.3,1.1-2.6,2.2-4,3l-0.6,0.4l-0.5,0.3L18,28.1l-0.4-0.2l-0.5-0.3l-0.6-0.4
			c-1.4-0.9-2.7-1.9-4-3C9,21,6.8,17.5,6.8,13.8c0-3.2,2.6-6,5.6-6c2,0,3.9,1.1,4.9,2.9c0.3,0.6,1.1,0.6,1.4,0
			C19.7,8.9,21.6,7.8,23.6,7.8L23.6,7.8z"/>
	</g>
</g>
</svg>
