<svg height="34" viewBox="0 0 36 34" width="36" xmlns="http://www.w3.org/2000/svg" xmlns:xlink="http://www.w3.org/1999/xlink"><defs><filter id="a" height="175%" width="175%" x="-37.5%" y="-37.5%"><feOffset dx="0" dy="0" in="SourceAlpha" result="shadowOffsetOuter1"/><feGaussianBlur in="shadowOffsetOuter1" result="shadowBlurOuter1" stdDeviation="2.5"/><feColorMatrix in="shadowBlurOuter1" result="shadowMatrixOuter1" type="matrix" values="0 0 0 0 0   0 0 0 0 0   0 0 0 0 0  0 0 0 0.25 0"/><feMerge><feMergeNode in="shadowMatrixOuter1"/><feMergeNode in="SourceGraphic"/></feMerge></filter><path id="b" d="m19.3167434 2.18683978c-2.0597399.07682671-3.9714134 1.03125667-5.2729745 2.59170997l-.0437689.05345025-.0437689-.05345025c-1.3581507-1.62829909-3.3806205-2.59673157-5.542438-2.59673157-3.93845713 0-7.23197492 3.59833852-7.23197492 7.66723842 0 4.1845433 2.36678244 8.0528929 6.27398563 11.5331297 1.34691735 1.1997306 2.78677619 2.2680788 4.22677639 3.1937392l.2983275.1896712.5689489.3497816c.0915603.054987.1814263.1083105.2695049.1599578l.5885486.3352093.2152668.1156955c.2362603.1225879.5173859.1225879.7536462 0l.3128986-.1697911.2321358-.1312129c.168822-.0965645.3451654-.1998846.5282859-.3098586l.5689489-.3497816c.0979653-.06159.1974388-.1248179.2983275-.1896712 1.4400002-.9256604 2.879859-1.9940086 4.2267764-3.1937392 3.9072032-3.4802368 6.2739856-7.3485864 6.2739856-11.5331297 0-4.0688999-3.2935178-7.66723842-7.2319749-7.66723842zm.2694635 1.63134204c3.0007988 0 5.5956113 2.83496684 5.5956113 6.03087478 0 3.624419-2.1332176 7.1110222-5.7260144 10.3112099-1.2780826 1.138418-2.6507238 2.1568918-4.0232236 3.0391617l-.5583943.3511675-.5203244.3126047-.3538615.2037996-.3538615-.2037996-.5203244-.3126047-.5583943-.3511675c-1.3724998-.8822699-2.74514096-1.9007437-4.02322361-3.0391617-3.59279681-3.2001877-5.72601437-6.6867909-5.72601437-10.3112099 0-3.19590794 2.59481248-6.03087478 5.59561128-6.03087478 2.0195178 0 3.8824761 1.09359436 4.8723785 2.86086101.3124369.55779166 1.1152199.55779166 1.4276568 0 .9899024-1.76726665 2.8528607-2.86086101 4.8723785-2.86086101z"/><mask id="c" fill="#fff"><use fill="#fff" fill-rule="evenodd" xlink:href="#b"/></mask></defs><g fill="none" fill-rule="evenodd" transform="translate(4 3)"><path d="m19.5862069 3c-2.3158675 0-4.4517107 1.25379567-5.5862069 3.27920476-1.1344962-2.02540909-3.2703394-3.27920476-5.5862069-3.27920476-3.54209322 0-6.4137931 3.29582472-6.4137931 6.8490566 0 8.9245283 12 15.1509434 12 15.1509434s12-6.2264151 12-15.1509434c0-3.55323188-2.8716999-6.8490566-6.4137931-6.8490566z" fill="#000" fill-opacity=".101318"/><g filter="url(#a)"><use fill="#000" fill-rule="nonzero" xlink:href="#b"/><g fill="#fff" mask="url(#c)"><path d="m0 0h28v28h-28z"/></g></g></g></svg>