<svg height="82" viewBox="0 0 82 82" width="82" xmlns="http://www.w3.org/2000/svg" xmlns:xlink="http://www.w3.org/1999/xlink"><defs><path id="a" d="m41 0c22.6436747 0 41 18.3563253 41 41s-18.3563253 41-41 41-41-18.3563253-41-41 18.3563253-41 41-41zm0 1.5c-21.8152476 0-39.5 17.6847524-39.5 39.5s17.6847524 39.5 39.5 39.5 39.5-17.6847524 39.5-39.5-17.6847524-39.5-39.5-39.5zm-9.281608 24.5c.2858186 0 .5671232.0711819.8184412.2070999l24.5628865 13.2841261c.8344847.451307 1.1445397 1.492591.6925271 2.325773-.1587794.2926735-.399396.5329145-.6925271.691446l-24.5628865 13.2841261c-.8344848.451307-1.8773969.141736-2.3294095-.691446-.1361305-.2509256-.2074237-.5317911-.2074237-.8171635v-26.5682522c0-.9475601.7693503-1.7157094 1.718392-1.7157094zm0 1.470608c-.1355774 0-.2454845.1097357-.2454845.2451014v26.5682522c0 .0407675.0101847.0808912.0296319.1167377.0645732.119026.2135607.1632504.3327728.098778l24.5628865-13.2841261c.0418758-.0226474.0762496-.0569675.0989324-.098778l.0233716-.0614626c.024356-.1048072-.0229606-.2170637-.122304-.2707907l-24.5628865-13.2841261c-.0359026-.0194169-.0760889-.0295858-.1169202-.0295858z"/><mask id="b" fill="#fff"><use fill="#fff" fill-rule="evenodd" xlink:href="#a"/></mask></defs><g fill="none" fill-rule="evenodd" transform="translate(-4 -4)"><path d="m45 5c22.09139 0 40 17.90861 40 40s-17.90861 40-40 40-40-17.90861-40-40 17.90861-40 40-40zm-9.5 25.5v29l28-14.5z" fill="#000" fill-opacity=".24705"/><g transform="translate(4 4)"><use fill="#000" fill-rule="nonzero" xlink:href="#a"/><g fill="#fff" mask="url(#b)"><path d="m0 0h90v90h-90z" transform="translate(-4.076923 -4.076923)"/></g></g></g></svg>