<?xml version="1.0" encoding="utf-8"?>
<!-- Generator: Adobe Illustrator 25.2.1, SVG Export Plug-In . SVG Version: 6.00 Build 0)  -->
<svg version="1.1" id="Layer_1" xmlns="http://www.w3.org/2000/svg" xmlns:xlink="http://www.w3.org/1999/xlink" x="0px" y="0px"
	 viewBox="0 0 35 35" style="enable-background:new 0 0 35 35;" xml:space="preserve">
<style type="text/css">
	.st0{fill:#DF032E;}
</style>
<path class="st0" d="M17.5,31L17,30.7c-1.5-0.9-6.6-4-10.2-8.6C4.3,18.9,3,15.6,3,12.4c0-2.1,0.9-4.3,2.3-5.9C6.8,4.9,8.7,4,10.8,4
	c1.4,0,2.7,0.4,3.9,1.1c1.2,0.7,2.2,1.7,2.8,2.9v0l0,0c0.7-1.2,1.7-2.2,2.8-2.9C21.5,4.4,22.9,4,24.3,4v0c2,0,3.9,0.9,5.4,2.5
	c1.5,1.6,2.3,3.8,2.3,5.9c0,9.7-10.7,16.5-14,18.3L17.5,31z M10.8,6.1c-1.4,0-2.8,0.6-3.9,1.8c-1.1,1.2-1.8,2.9-1.8,4.5
	c0,2.8,1.1,5.6,3.3,8.4c3,3.9,7.3,6.7,9.1,7.8c3-1.8,12.4-8,12.4-16.2c0-1.6-0.7-3.3-1.8-4.5c-1.1-1.2-2.5-1.8-3.9-1.8
	c-1,0-2,0.3-2.9,0.8c-0.9,0.5-1.6,1.3-2.1,2.2l-1.8,3.3L15.7,9c-0.5-0.9-1.2-1.6-2.1-2.2C12.7,6.3,11.8,6.1,10.8,6.1z"/>
</svg>
