<?xml version="1.0" encoding="utf-8"?>
<!-- Generator: Adobe Illustrator 25.2.1, SVG Export Plug-In . SVG Version: 6.00 Build 0)  -->
<svg version="1.1" id="Layer_1" xmlns="http://www.w3.org/2000/svg" xmlns:xlink="http://www.w3.org/1999/xlink" x="0px" y="0px"
	 viewBox="0 0 35 35" style="enable-background:new 0 0 35 35;" xml:space="preserve">
<style type="text/css">
	.st0{fill:#DF032E;}
</style>
<path class="st0" d="M8.5,32h20c0.3,0,0.5-0.2,0.5-0.5V7.8c0-0.3-0.2-0.5-0.5-0.5h-1.1V4.5c0-0.3-0.2-0.5-0.5-0.5H8.5
	C7.1,4,6,5.1,6,6.5v23.1C6,30.9,7.1,32,8.5,32z M7.6,29.5V8.8c0.3,0.1,0.5,0.1,0.8,0.1h0.8v21.4H8.5C8,30.4,7.6,30,7.6,29.5
	L7.6,29.5z M27.4,30.4H10.9V8.9h8.2v8c0,0.3,0.2,0.5,0.5,0.5c0.1,0,0.2,0,0.3-0.1l2.2-1.5c0.2-0.1,0.4-0.1,0.6,0l2.2,1.5
	c0.2,0.2,0.5,0.1,0.7-0.1c0.1-0.1,0.1-0.2,0.1-0.3v-8h1.6L27.4,30.4L27.4,30.4z M20.8,8.9h3.3v5.5c0,0.1-0.1,0.2-0.2,0.2
	c0,0-0.1,0-0.1,0l-1.2-0.8c-0.1,0-0.2,0-0.2,0l-1.2,0.8c-0.1,0.1-0.2,0-0.3-0.1c0,0,0-0.1,0-0.1V8.9L20.8,8.9z M8.5,5.6h16.4
	c0.5,0,0.8,0.4,0.8,0.8s-0.4,0.8-0.8,0.8H8.5C8,7.3,7.6,6.9,7.6,6.5S8,5.6,8.5,5.6z"/>
</svg>
