<?xml version="1.0" encoding="utf-8"?>
<!-- Generator: Adobe Illustrator 25.2.1, SVG Export Plug-In . SVG Version: 6.00 Build 0)  -->
<svg version="1.1" id="Layer_1" xmlns="http://www.w3.org/2000/svg" xmlns:xlink="http://www.w3.org/1999/xlink" x="0px" y="0px"
	 viewBox="0 0 35 35" style="enable-background:new 0 0 35 35;" xml:space="preserve">
<style type="text/css">
	.st0{fill:#DF032E;}
</style>
<path class="st0" d="M6.9,4.6c0.5,0,0.8,0.3,0.9,0.8v0.2l0.3,4h11.4c0.5,0,0.9,0.5,0.9,0.9s-0.3,0.8-0.8,0.9h-0.2H8.3l0.6,9L27.2,19
	l0.3-1.1c0.2-0.5,0.6-0.8,1.1-0.6c0.5,0,0.8,0.5,0.8,0.8v0.2l-0.5,1.7c-0.2,0.3-0.3,0.6-0.8,0.6h-0.2L9.5,21.9
	c0.5,0.9,1.5,1.7,2.9,1.8h0.2h11.7c1.8,0,3.3,1.5,3.3,3.3c0,1.8-1.5,3.3-3.3,3.3c-1.8,0-3.3-1.5-3.3-3.3c0-0.6,0.2-1.1,0.3-1.5h-7.1
	c0.3,0.5,0.3,0.9,0.3,1.5c0,1.8-1.5,3.3-3.3,3.3s-3.3-1.5-3.3-3.3c0-1.1,0.5-2,1.4-2.6c-1.1-0.9-1.8-2.1-2-3.5v-0.3L6.2,6.4H4
	c-0.5,0-0.9-0.3-0.9-0.8V5.5c0-0.5,0.3-0.9,0.8-0.9H4H6.9z M24.4,25.4c-0.9,0-1.5,0.6-1.5,1.5c0,0.8,0.6,1.5,1.5,1.5
	c0.8,0,1.5-0.6,1.5-1.5c0-0.8-0.6-1.4-1.4-1.5H24.4z M11.2,25.6c-0.8,0-1.5,0.6-1.5,1.5c0,0.8,0.6,1.5,1.5,1.5
	c0.8,0,1.5-0.6,1.5-1.5S11.9,25.6,11.2,25.6z M27.3,5.8c0.5,0,0.8,0.3,0.9,0.8v0.2v2.7H31c0.5,0,0.9,0.5,0.9,0.9
	c0,0.5-0.3,0.8-0.8,0.9H31h-2.7V14c0,0.5-0.5,0.9-0.9,0.9c-0.5,0-0.8-0.3-0.9-0.8V14v-2.9h-2.7c-0.5,0-0.9-0.5-0.9-0.9
	c0-0.5,0.3-0.8,0.8-0.9h0.2h2.7V6.7C26.4,6.2,26.9,5.8,27.3,5.8z"/>
</svg>
