<svg enable-background="new 0 0 45 45" viewBox="0 0 45 45" xmlns="http://www.w3.org/2000/svg"><path d="m22.5 13.1c1.9 0 3.5 1.2 4 3h.5c4.4 0 8 3.2 8.6 7.5h1.9c.6 0 1.1.5 1.1 1.1s-.4 1-1 1.1h-.2-1.9v.8h1.1c1.8 0 3.3 1.4 3.4 3.2v.2c0 1.9-1.5 3.4-3.4 3.4h-1.1v3.4c0 2.2-1.7 4-3.9 4.1h-.2-18c-2.3 0-4.1-1.8-4.1-4.1v-3.4h-1.1c-1.8 0-3.3-1.4-3.4-3.2v-.2c0-1.9 1.5-3.4 3.4-3.4h1.1v-.8h-1.9c-.6 0-1.1-.5-1.1-1.1s.4-1 1-1.1h.2 1.9c.6-4.2 4.2-7.5 8.6-7.5h.5c.5-1.7 2.1-3 4-3zm10.9 12.8h-21.8v10.9c0 1 .7 1.8 1.7 1.9h.2 18c1 0 1.9-.8 1.9-1.9zm3.4 3h-1.1v2.2h1.1c.6 0 1.1-.4 1.1-1v-.1c0-.6-.5-1.1-1.1-1.1zm-27.4 0h-1.2c-.6 0-1 .4-1.1 1v.2c0 .6.5 1.1 1.1 1.1h1.1zm17.6-10.5h-9c-3.1 0-5.7 2.2-6.3 5.2v.1h21.6l-.1-.4c-.6-2.7-3-4.7-5.9-4.9zm-4.5-3c-.6 0-1.1.3-1.4.7h-.1 3c-.3-.4-.8-.6-1.3-.7zm-8-7.7c.7 1.3.8 2.7.1 3.9l-.2.3c-.4.6-.4 1.1 0 1.8.3.5.1 1.2-.4 1.5s-1.2.1-1.5-.4c-.7-1.3-.8-2.6-.1-3.9l.2-.3c.4-.6.4-1.2 0-1.9-.3-.5-.1-1.2.4-1.5.5-.2 1.2 0 1.5.5zm18 0c.7 1.3.8 2.7.1 3.9l-.2.3c-.4.6-.4 1.1 0 1.8.3.5.1 1.2-.4 1.5s-1.2.1-1.5-.4c-.7-1.3-.8-2.6-.1-3.9l.2-.3c.4-.6.4-1.2 0-1.9-.3-.5-.1-1.2.4-1.5.5-.2 1.2 0 1.5.5zm-9.1-3.1c.8 1.1.9 2.4.1 3.4l-.2.2c-.3.3-.3.5 0 .8.4.5.3 1.2-.2 1.6s-1.2.3-1.6-.2c-.9-1.1-.9-2.3-.1-3.4l.2-.3c.2-.3.1-.4-.1-.8-.4-.5-.3-1.2.2-1.6s1.3-.2 1.7.3z" fill="#be0e31"/></svg>