<svg enable-background="new 0 0 45 45" viewBox="0 0 45 45" xmlns="http://www.w3.org/2000/svg"><path d="m22.3 27.6c.2.2.4.4.6.5l.1.2h3.3c1.7 0 3 1.3 3.2 2.9v.2.5c.3-.2.6-.4.8-.6l.2-.2 2-2.5c1.1-1.4 3.2-1.7 4.7-.7l.2.1c1.3 1 1.6 2.9.7 4.2l-.1.2-4.2 5.5c-1 1.3-2.5 2.1-4.1 2.2h-.3-21.9c-.6 0-1.1-.5-1.1-1.1v-9c0-.6.5-1.1 1.1-1.1h4l.5-.6c2.6-3.1 7.3-3.4 10.3-.7zm.2 7c-.6 0-1.1-.5-1.1-1.1s.4-1 1-1.1h.2 3.8c.5 0 .9-.4.9-.9s-.3-.8-.8-.9h-.1-3.8c-.4 0-.7-.2-.9-.5s-.5-.6-.7-.8c-2-1.8-5.1-1.6-7 .3l-.2.2-.6.6v7.5h16c1 0 1.9-.4 2.5-1.1l.2-.2 4.1-5.6c.3-.4.2-1-.2-1.3-.5-.3-1.1-.3-1.5.1l-.2.2-2 2.5c-1 1.2-2.5 2-4.1 2.1h-.3zm-11.6-3.5h-2.3v6.8h2.2v-6.8zm11.6-26.2c2.3 0 4.1 1.8 4.1 4.1 0 .7-.2 1.3-.5 1.9 6.5.3 11.9 5.5 12.4 12h.4c.6 0 1.1.5 1.1 1.1s-.4 1-1 1.1h-.2-32.8c-.6 0-1.1-.5-1.1-1.1s.4-1 1-1.1h.2.4c.6-6.5 5.8-11.7 12.4-12-.3-.6-.5-1.2-.5-1.9 0-2.3 1.8-4.1 4.1-4.1zm3 8.2h-6c-5.5 0-10.1 4.1-10.8 9.5v.3h27.6v-.3c-.7-5.2-5.1-9.3-10.4-9.4zm-3-6c-1 0-1.9.8-1.9 1.9s.8 1.9 1.9 1.9 1.9-.9 1.9-1.9-.9-1.9-1.9-1.9z" fill="#333"/></svg>