<svg height="28" viewBox="0 0 28 28" width="28" xmlns="http://www.w3.org/2000/svg" xmlns:xlink="http://www.w3.org/1999/xlink"><defs><path id="a" d="m6.432 1.5c-2.627 0-4.932 2.476-4.932 5.298 0 6.554 8.096 11.511 9.881 12.524 1.786-1.013 9.881-5.97 9.881-12.524 0-2.822-2.305-5.298-4.932-5.298-1.778 0-3.424.963-4.295 2.513-.266.473-1.042.473-1.308.001-.871-1.551-2.517-2.514-4.295-2.514m4.949 19.428c-.118 0-.236-.028-.345-.084-.45-.233-11.036-5.802-11.036-14.046 0-3.685 2.946-6.798 6.432-6.798 1.93 0 3.741.87 4.949 2.327 1.208-1.457 3.019-2.327 4.949-2.327 3.486 0 6.432 3.113 6.432 6.798 0 8.244-10.585 13.813-11.036 14.046-.108.056-.227.084-.345.084"/><mask id="b" fill="#fff"><use fill="#fff" fill-rule="evenodd" xlink:href="#a"/></mask></defs><g fill="#666" fill-rule="evenodd" transform="translate(3 4)"><use xlink:href="#a"/><g mask="url(#b)"><path d="m0 0h28v28h-28z" transform="translate(-3 -4)"/></g></g></svg>