<svg enable-background="new 0 0 30 30" viewBox="0 0 30 30" xmlns="http://www.w3.org/2000/svg"><path clip-rule="evenodd" d="m5.5.5h19c2.8 0 5 2.2 5 5v19c0 2.8-2.2 5-5 5h-19c-2.8 0-5-2.2-5-5v-19c0-2.8 2.2-5 5-5z" fill="#fff" fill-rule="evenodd"/><path d="m24.5 30h-19c-3 0-5.5-2.5-5.5-5.5v-19c0-3 2.5-5.5 5.5-5.5h19c3 0 5.5 2.5 5.5 5.5v19c0 3-2.5 5.5-5.5 5.5zm-19-29c-2.5 0-4.5 2-4.5 4.5v19c0 2.5 2 4.5 4.5 4.5h19c2.5 0 4.5-2 4.5-4.5v-19c0-2.5-2-4.5-4.5-4.5z" fill="#e8e8e8"/><path d="m13.8 17.6h-4v-2.1h4v-4.3h2.2v4.3h4v2.1h-4v4.2h-2.2z" fill="#333"/></svg>