<svg xmlns="http://www.w3.org/2000/svg" xmlns:xlink="http://www.w3.org/1999/xlink" width="50" height="50" viewBox="0 0 50 50">
    <defs>
        <path id="yhsr5s2ria" d="M19.118 4.751c0-2.62-2.144-4.751-4.78-4.751s-4.78 2.13-4.78 4.751h2.39c0-1.31 1.073-2.376 2.39-2.376 1.318 0 2.39 1.067 2.39 2.376 0 1.31-1.072 2.376-2.39 2.376H0v2.375h14.338c2.636 0 4.78-2.13 4.78-4.75m7.169 16.628H9.559v2.376h16.728c1.317 0 2.39 1.066 2.39 2.375 0 1.31-1.073 2.376-2.39 2.376-1.318 0-2.39-1.066-2.39-2.376h-2.39c0 2.62 2.144 4.751 4.78 4.751s4.78-2.13 4.78-4.75c0-2.621-2.144-4.752-4.78-4.752M38.235 9.502c0 3.93-3.216 7.127-7.169 7.127H4.78v-2.376h26.287c2.636 0 4.78-2.13 4.78-4.75 0-2.621-2.144-4.752-4.78-4.752s-4.78 2.13-4.78 4.751h-2.389c0-3.93 3.216-7.127 7.17-7.127 3.952 0 7.168 3.197 7.168 7.127"/>
    </defs>
    <g fill="none" fill-rule="evenodd">
        <g>
            <g>
                <g>
                    <g>
                        <g>
                            <g transform="translate(-605.000000, -501.000000) translate(255.000000, 481.000000) translate(326.000000, 0.000000) translate(24.000000, 20.000000) translate(5.882353, 10.294118)">
                                <mask id="611fk83kib" fill="#fff">
                                    <use xlink:href="#yhsr5s2ria"/>
                                </mask>
                                <path fill="#CCC" d="M-5.882 -10.294H44.118V39.706H-5.882z" mask="url(#611fk83kib)"/>
                            </g>
                        </g>
                    </g>
                </g>
            </g>
        </g>
    </g>
</svg>
