<svg xmlns="http://www.w3.org/2000/svg" xmlns:xlink="http://www.w3.org/1999/xlink" width="50" height="50" viewBox="0 0 50 50">
    <defs>
        <path id="eddei4ewka" d="M16.845 23.897h4.813v-2.39h-4.813v2.39zm0-4.78h9.626v-2.39h-9.626v2.39zm0-4.779h4.813v-2.39h-4.813v2.39zm0-4.78h9.626V7.17h-9.626v2.39zm0-4.779h4.813V2.39h-4.813v2.39zM8.422 35.846c-3.317 0-6.016-2.68-6.016-5.975 0-1.687.731-3.306 2.007-4.443l.4-.356V5.974c0-1.976 1.62-3.584 3.61-3.584 1.99 0 3.61 1.608 3.61 3.584v19.098l.399.356c1.276 1.137 2.007 2.756 2.007 4.443 0 3.294-2.7 5.975-6.017 5.975zM14.44 5.974C14.439 2.68 11.739 0 8.422 0S2.406 2.68 2.406 5.974V24.03C.871 25.589 0 27.69 0 29.871c0 4.612 3.779 8.364 8.422 8.364 4.644 0 8.423-3.752 8.423-8.364 0-2.182-.87-4.282-2.406-5.841V5.974zM8.422 31.066c-.663 0-1.203-.535-1.203-1.195 0-.659.54-1.194 1.203-1.194.664 0 1.204.535 1.204 1.194 0 .66-.54 1.195-1.204 1.195zm1.204-4.559V11.949H7.219v14.558c-1.397.495-2.406 1.809-2.406 3.364 0 1.977 1.62 3.585 3.61 3.585 1.99 0 3.61-1.608 3.61-3.585 0-1.555-1.01-2.87-2.407-3.364z"/>
    </defs>
    <g fill="none" fill-rule="evenodd">
        <g>
            <g>
                <g>
                    <g>
                        <g>
                            <g transform="translate(-280.000000, -501.000000) translate(255.000000, 481.000000) translate(25.000000, 20.000000) translate(11.764706, 5.882353)">
                                <mask id="9mcg8qzxxb" fill="#fff">
                                    <use xlink:href="#eddei4ewka"/>
                                </mask>
                                <path fill="#DF032E" d="M-11.765 -5.882H38.235V44.118H-11.765z" mask="url(#9mcg8qzxxb)"/>
                            </g>
                        </g>
                    </g>
                </g>
            </g>
        </g>
    </g>
</svg>
