<svg xmlns="http://www.w3.org/2000/svg" xmlns:xlink="http://www.w3.org/1999/xlink" width="60" height="60" viewBox="0 0 60 60">
    <defs>
        <circle id="pg920a2dqa" cx="30" cy="30" r="30"/>
        <path id="qdjc7th36c" d="M.317.316c.385-.383.986-.418 1.41-.105l.121.105 11.55 11.493c.384.383.418.982.104 1.404l-.105.12L1.848 24.827c-.423.421-1.108.421-1.53 0-.385-.382-.42-.98-.106-1.403l.105-.12L11.1 12.57.317 1.84C-.067 1.457-.103.86.212.436l.105-.12z"/>
    </defs>
    <g fill="none" fill-rule="evenodd" opacity=".701">
        <g>
            <g transform="translate(-295.000000, -811.000000) translate(295.000000, 811.000000)">
                <mask id="av7a2aie4b" fill="#fff">
                    <use xlink:href="#pg920a2dqa"/>
                </mask>
                <g fill="#FFF" mask="url(#av7a2aie4b)">
                    <path d="M0 0H60V60H0z"/>
                </g>
                <g mask="url(#av7a2aie4b)">
                    <g transform="translate(14.000000, 14.000000) translate(10.285714, 3.428571)">
                        <mask id="z09gru1ozd" fill="#fff">
                            <use xlink:href="#qdjc7th36c"/>
                        </mask>
                        <use fill="#000" fill-rule="nonzero" xlink:href="#qdjc7th36c"/>
                        <g fill="#DF032E" mask="url(#z09gru1ozd)">
                            <path d="M0 0H32V32H0z" transform="translate(-9.142857, -3.428571)"/>
                        </g>
                    </g>
                </g>
            </g>
        </g>
    </g>
</svg>
