<svg xmlns="http://www.w3.org/2000/svg" width="40" height="40" viewBox="0 0 40 40">
    <g fill="none" fill-rule="evenodd">
        <g>
            <g>
                <path fill="#CCC" d="M8.187 0h23.626C36.316 0 40 3.684 40 8.187v23.626C40 36.316 36.316 40 31.813 40H8.187C3.684 40 0 36.316 0 31.813V8.187C0 3.684 3.684 0 8.187 0z" transform="translate(-192.000000, -1226.000000) translate(192.000000, 1226.000000)"/>
                <path fill="#FFF" d="M19.961 6.626c8.105 0 14.675 5.261 14.675 11.751 0 2.267-.802 4.384-2.19 6.179-.07.102-.16.215-.272.34l-.009.009c-.474.567-1.008 1.1-1.596 1.592-4.058 3.751-10.738 8.217-11.62 7.528-.766-.599 1.263-3.528-1.078-4.016-.163-.019-.326-.039-.487-.062h-.003c-6.875-.977-12.095-5.785-12.095-11.57 0-6.49 6.57-11.751 14.675-11.751z" transform="translate(-192.000000, -1226.000000) translate(192.000000, 1226.000000)"/>
                <path fill="#CCC" d="M11.447 22.125h2.96c.42 0 .765-.344.765-.765v-.064c0-.42-.345-.765-.766-.765h-2.13v-4.848c0-.42-.344-.765-.766-.765h-.063c-.421 0-.766.344-.766.765v5.677c0 .421.345.765.766.765zm18.34-3.558v-.064c0-.42-.345-.765-.766-.765h-2.13v-1.212h2.13c.421 0 .766-.344.766-.765v-.064c0-.421-.345-.765-.766-.765h-2.96c-.42 0-.765.344-.765.765v5.677c0 .42.345.765.766.765h2.96c.42 0 .765-.344.765-.765v-.064c0-.421-.345-.766-.766-.766h-2.13v-1.212h2.13c.421 0 .766-.344.766-.765zm-5.692 3.33c.142-.143.221-.336.221-.537v-5.676c0-.421-.344-.766-.765-.766h-.064c-.421 0-.765.345-.765.766v3.332l-2.767-3.71c-.132-.231-.38-.388-.664-.388h-.064c-.421 0-.766.345-.766.766v5.676c0 .421.345.766.766.766h.064c.42 0 .765-.345.765-.766v-3.394l2.786 3.805c.018.027.036.053.056.077.077.104.182.176.299.22.09.037.187.057.29.057h.064c.124 0 .247-.03.357-.089.077-.036.141-.083.187-.139zm-7.54.228h.064c.42 0 .765-.344.765-.765v-5.677c0-.42-.344-.765-.765-.765h-.064c-.421 0-.766.344-.766.765v5.677c0 .421.345.765.766.765z" transform="translate(-192.000000, -1226.000000) translate(192.000000, 1226.000000)"/>
            </g>
        </g>
    </g>
</svg>
