<svg xmlns="http://www.w3.org/2000/svg" width="40" height="40" viewBox="0 0 40 40">
    <g fill="none" fill-rule="evenodd">
        <g>
            <g>
                <path fill="#CCC" d="M8.187 0h23.626C36.316 0 40 3.684 40 8.187v23.626C40 36.316 36.316 40 31.813 40H8.187C3.684 40 0 36.316 0 31.813V8.187C0 3.684 3.684 0 8.187 0z" transform="translate(-82.000000, -1226.000000) translate(82.000000, 1226.000000)"/>
                <path fill="#FFF" fill-rule="nonzero" d="M29.603 23.97h-4.376V40h-6.63V23.97h-3.153v-5.635h3.153V14.69c0-2.608 1.239-6.69 6.689-6.69l4.91.02v5.47h-3.562c-.585 0-1.407.291-1.407 1.535v3.316h4.955l-.58 5.628z" transform="translate(-82.000000, -1226.000000) translate(82.000000, 1226.000000)"/>
            </g>
        </g>
    </g>
</svg>
