<svg id="圖層_1" data-name="圖層 1" xmlns="http://www.w3.org/2000/svg" viewBox="0 0 313.44 47.92"><defs><style>.cls-1{fill:#df032e;}.cls-2{fill:#f3981c;}</style></defs><path d="M223.59,31.48l2.71-20.8H215.68L213,31.48h1.52l-1.17,4.15h3.82l1.13-4,.63,4h3.82l-.66-4.15h1.53Zm-3.94-18.3h2.06l-.46,3.32h-2.06ZM218.88,19h2.06l-.43,3.33h-2.06Zm-.77,5.82h2.06L219.63,29h-2.07Z"/><path d="M241.43,10.68h-4.08l-.13,1.13h-3.76l.13-1.13h-4.08l-.13,1.13H227.1l-.3,2.32h2.28l-.14,1.21h-2.18l-.31,2.33h2.19L228.46,19h-2.6l-.3,2.33h6.57l-.14,1.2h-5.54l-1.06,8.44h-1.25l-.3,2.33h1.25l-.3,2.37h3.54l.31-2.37h8l-.31,2.37h3.55l.3-2.37h1.2l.3-2.33h-1.19l1.06-8.44h-5.47l.14-1.2h6.62l.31-2.33h-2.79l.17-1.29H243l.3-2.33h-2.44l.17-1.21h2.44l.3-2.32H241.3ZM231.2,30.93h-2.26l.26-2.07h2.26Zm.56-4.4H229.5l.2-1.71H232Zm5.17,4.4h-2.2l.26-2.07h2.19Zm.76-6.11-.2,1.71h-2.2l.2-1.71ZM236.27,19h-3.73l.18-1.29h3.72Zm.47-3.62H233l.14-1.21h3.75Z"/><path d="M308.93,11.14H292.44l-2.59,20.07a37.55,37.55,0,0,1-.85-4.1h-2.51l.25-2h2.71l.33-2.49h-3.27l4.22-5.74h-3.87l4.42-6.24h-5.12L280,19.42h3.91l-4.58,5.73H283l-.24,2h-3.13a29.26,29.26,0,0,1-3.6,8.52s3.28-1.5,6.5-6.72l-.84,6.72h3.69l.77-6.12A18.38,18.38,0,0,0,289.48,34l-.2,1.6h4.08l1.28-10h2.52l-1,7.65h6.39l-.3,2.33h4.08l3.16-24.49Zm-11.44,12H295l.35-2.5h2.51Zm5.39,7.65h-2.35l.66-5.16h2.36Zm1-7.65h-2.34l.31-2.5h2.37Zm.66-5h-1.35l.85-3h-2.87l-.85,3h-.09l-.48-3h-2.87l.47,3h-1.72l.59-4.53h8.91Z"/><path d="M259,20a17.87,17.87,0,0,1-3,2l.65-5.13h1.64l.31-2.5H257l.49-3.7h-4.72l-.48,3.7H251l.36-2.87h-3.07l-.68,5.37H252L251,24.24c-1.46.55-3,1-4.39,1.46l-.6,4.69a35.54,35.54,0,0,0,4.47-2.09l-.93,7.33h4.72l1.41-11.09A12.84,12.84,0,0,0,259,20Z"/><path d="M264.38,12.3l.22-1.66h-4.72l-.94,7.19h2.24c-1,5-2.78,11.69-5.46,15.29,0,0,7-2.88,10.43-16.74h-2.3l.21-1.58h7.14l-.6,4.7h-4.39c-1,5.11-2.8,12.34-5.63,16.13,0,0,6.21-2.56,9.81-14.49l-1.84,14.49h5l3-23.33Z"/><path class="cls-1" d="M24.22,32.39a.44.44,0,0,0-.61.06L22.52,34a.61.61,0,0,1-.57.28H15.27V23.5h8.32c.27,0,.42-.06.48-.22a.37.37,0,0,0-.09-.41A10.75,10.75,0,0,0,20.93,20c-.27-.16-.48-.16-.63.06l-1.06,1.46a.67.67,0,0,1-.61.32H15.27V12.24h9.85A.48.48,0,0,0,25.6,12a.39.39,0,0,0-.12-.44,10.53,10.53,0,0,0-3-2.86c-.27-.15-.48-.15-.63.07l-1.07,1.49a.71.71,0,0,1-.61.29H3.9l-2-.19c-.27-.07-.36,0-.33.09l.22.82h0l.05.2,0,.12h0l.22.82c0,.13.15.17.33.07l1.72-.26H12v9.62H5.19l-2-.22c-.27-.06-.36,0-.33.12l.3,1.12h0l.22.82c0,.15.15.19.33.09l1.72-.29H12V34.23H2.39L.34,34C.07,34,0,34,0,34.17L.23,35h0l.3,1.11c0,.16.15.19.33.1l1.75-.29H26.87c.27,0,.42-.06.51-.22a.4.4,0,0,0-.12-.45A10.74,10.74,0,0,0,24.22,32.39Z"/><path class="cls-1" d="M37.14,20.24a1,1,0,0,0,.21.82,1.49,1.49,0,0,0,1,.32,3.06,3.06,0,0,0,1.51-.44,1.19,1.19,0,0,0,.51-1.12h9.46a1,1,0,0,0,.31,1,1.3,1.3,0,0,0,.93.32,3.42,3.42,0,0,0,1.32-.35,1.23,1.23,0,0,0,.7-1.15V11.9a.5.5,0,0,1,.33-.48c.81-.32.93-.79.33-1.3A11.21,11.21,0,0,0,50.91,8.6a.42.42,0,0,0-.51.09l-.76,1.17c-.12.23-.39.32-.81.29h-8a11.61,11.61,0,0,0-3.55-1.52c-.12,0-.18.06-.15.28Zm3.25-8.38h9.07c.18-.13.3-.06.39.16v6.16H40.39Z"/><path class="cls-1" d="M57.66,24.4a9.4,9.4,0,0,0-2.86-1.53.41.41,0,0,0-.52.1l-.75,1.17c-.12.22-.39.29-.81.29H49.61A10,10,0,0,0,46.24,23c-.12,0-.18.06-.15.25V36.57a1,1,0,0,0,.21.86,1.48,1.48,0,0,0,1,.29,3,3,0,0,0,1.51-.42,1.43,1.43,0,0,0,.51-1.2v-.41h4.4v.44a1.24,1.24,0,0,0,.3,1,1.26,1.26,0,0,0,.94.31,3.25,3.25,0,0,0,1.32-.35A1.31,1.31,0,0,0,57,36V26.14a.45.45,0,0,1,.33-.45C58.14,25.34,58.26,24.87,57.66,24.4ZM53.74,34h-4.4v-8h4c.18-.09.3,0,.39.19Z"/><path class="cls-1" d="M44.46,24.4a8.73,8.73,0,0,0-2.86-1.53.37.37,0,0,0-.48.1l-.79,1.17c-.09.22-.36.29-.81.29H36.44A10.36,10.36,0,0,0,33,23c-.12,0-.18.06-.15.25V36.45a1,1,0,0,0,.21.85,1.49,1.49,0,0,0,1,.32,2.94,2.94,0,0,0,1.51-.44A1.4,1.4,0,0,0,36.17,36v-.28h4.37v.57a1.23,1.23,0,0,0,.3,1,1.33,1.33,0,0,0,.94.32,3.29,3.29,0,0,0,1.32-.35,1.28,1.28,0,0,0,.73-1.14v-10a.46.46,0,0,1,.3-.45C45,25.34,45.09,24.87,44.46,24.4ZM40.54,34H36.17v-8h4c.15-.09.27,0,.36.19Z"/><path class="cls-1" d="M194.23,22.39l8.35,3.91.78-6-8.72-1.68A34.2,34.2,0,0,1,194.23,22.39Z"/><path class="cls-1" d="M194.67,15.91,203,13l-.79-6.17-7.86,5.09A30.91,30.91,0,0,1,194.67,15.91Z"/><path class="cls-1" d="M94.24,42.27l.83-5.77,4.93-.43.38-3h0l.73-5.67h0l.38-3-4.76.42.32-2.17,4.72-.41.38-3L88.92,20.52l-.38,2.95,4.77-.41L93,25.23l-4.74.41-.05.42h0L86.76,37.22h0l4.62-.41-.82,5.82Zm2.08-14.41,1.62-.14-.71,5.67-1.73.15Zm-4.53,6-1.5.14.76-5.68,1.54-.13Z"/><path class="cls-1" d="M143.85,27.35l6.61-.57.37-2.91L137.73,25l-4.76.42c.4-1.21.79-2.48,1.15-3.81l3.79-.33,13.4-1.17.38-2.9-13.56,1.18-3.27.29c.29-1.21.55-2.47.8-3.78l2.65-.23,13.86-1.21.38-2.9-14,1.22-2.38.21c.17-1,.32-2.14.46-3.26l2.06-.18L153,7.32l.37-2.9L148,4.89l.26-2-8.28.72-.26,2-9.48.83-.61-2-8.28.72.61,2-5.11.45-.37,2.89,11.15-1c-.07.6-.2,1.73-.4,3.26l-11.17,1-.38,2.9,11.14-1c-.17,1.15-.37,2.42-.61,3.76l-11,1-.37,2.9,10.85-.95q-.36,1.85-.78,3.78l-10.56.92-.37,2.9h0l10.25-.89c-1.7,6.9-4.11,14-7.42,18.35,0,0,9-3.32,15.14-19l2-.18,1.2,3.1c3.23,8.33,10.81,13,18.85,12.23h0l3.18-.32S144.07,41.39,143.85,27.35Z"/><path class="cls-1" d="M186,33c-1.22-1.27-2.37-2.56-3.42-3.8l1.58.41a3.53,3.53,0,0,0,.75.26h0l.33.06h.06l.36,0h.23c2.34-.16,3.93-2.56,4.83-5.76a23.37,23.37,0,0,0,.58-2.65,31.22,31.22,0,0,0,.35-4.54,22.66,22.66,0,0,0-1.53-8.82,8.2,8.2,0,0,0-.41-.84l3.58.55,1.28.2.62-4.8-6.36-1L185,1.59,175.31,0,157.58,6.93l-.71,5.54,18.64-7.35,3.94.62,2.16.33L178.72,7.2l-13,5.08h0l-.09,0-.12,0-.09,0-.11,0-.09,0-.1,0-.08,0-.07,0-5.35,2.09-3.36,26.08,4.17-.37,10.79-.94.22-2.89-6,.53h0l.61-11.6,0-.52,4.22,1.08c13.9,17.2,25.62,14.76,25.62,14.76A40.25,40.25,0,0,1,186,33Zm-.08-24.62c.68.55,2,3.44,2,8.62,0,5.48-1.52,8.62-2.24,9.17-.68-.54-2-3.44-2-8.62C183.65,12.05,185.16,8.91,185.88,8.36Zm-19,13a7,7,0,0,1-.41-2.61,6.92,6.92,0,0,1,.5-2.87l13.86-5.43a27.47,27.47,0,0,0-.91,7.13,25.23,25.23,0,0,0,1,7.37Z"/><path class="cls-1" d="M108.63,29.86c.55-4.19,2.13-16.52,2.13-16.52l-23.34,2L81,15.94l-.41,5s-1.18,19.27-6.63,27a14.37,14.37,0,0,0,4.91-4.11A26.55,26.55,0,0,0,82,39.16c2.21-4.2,4.2-10.28,4.93-19l.2-1.88,17.57-1.54s-1.3,10.12-1.76,13.68A9.1,9.1,0,0,0,105,38a8.47,8.47,0,0,0,1.36,1.18,9.71,9.71,0,0,0,6.31,1.62l1.64-.16S107.66,37.35,108.63,29.86Z"/><polygon class="cls-2" points="205.71 34.94 202.24 34.3 201.44 28.9 200.62 28.89 199.59 34.42 196.06 35.43 196.09 36.23 199.55 36.87 200.36 42.28 201.18 42.29 202.21 36.75 205.74 35.75 205.71 34.94"/><path class="cls-1" d="M79,16.12l.34-2.36L111,11l.23-2.88-15,1.29.27-2L89.5,8l-.26,2L73.5,11.41h-.13l-.66,5.24L68.53,17,68,21l4.19-.37c-.15,1-.34,2.24-.57,3.53l-4.07.36-.52,4,3.81-.34c-1.19,5.51-3,11.66-5.72,15.2,0,0,11.11-4.1,13.85-27.29Z"/><path class="cls-1" d="M102.45,38.55l-5,.44h0a10.57,10.57,0,0,0,9.64,7.63C103.8,44.43,102.72,39.94,102.45,38.55Z"/><polygon class="cls-1" points="101.87 43.85 84.22 45.38 84.6 42.43 99.34 41.15 101.87 43.85"/></svg>