<svg id="圖層_1" data-name="圖層 1" xmlns="http://www.w3.org/2000/svg" viewBox="0 0 205.74 142.93"><defs><style>.cls-1{fill:#fff;}</style></defs><path class="cls-1" d="M100.36,137.89l3.29-25.2H90.78l-3.29,25.2h1.84l-1.41,5h4.63l1.36-4.85.76,4.85h4.64l-.8-5h1.85Zm-4.77-22.17h2.5l-.56,4H95Zm-.94,7h2.5l-.52,4h-2.5Zm-.93,7.06h2.5l-.66,5h-2.5Z"/><path class="cls-1" d="M122,112.69h-5l-.16,1.36h-4.55l.16-1.36h-4.94l-.16,1.36h-2.77l-.36,2.83H107l-.17,1.46H104.2l-.37,2.82h2.65l-.22,1.56h-3.15l-.36,2.82h8l-.16,1.46h-6.71l-1.28,10.23H101l-.37,2.83h1.52l-.37,2.87h4.3l.37-2.87h9.68l-.37,2.87h4.3l.37-2.87h1.44l.37-2.83h-1.45L122.11,127h-6.63l.17-1.46h8l.37-2.82h-3.38l.21-1.56h3l.37-2.82h-3l.21-1.46h3l.36-2.83h-3Zm-12.39,24.54h-2.74l.3-2.52h2.75Zm.67-5.34h-2.74l.24-2.06h2.74Zm6.27,5.34h-2.67l.31-2.52h2.66Zm.91-7.4-.24,2.06h-2.66l.24-2.06Zm-1.72-7.11h-4.51l.21-1.56h4.51Zm.58-4.38h-4.51l.16-1.46h4.56Z"/><path class="cls-1" d="M203.78,113.25h-20l-3.14,24.32a47.39,47.39,0,0,1-1-5h-3l.3-2.37h3.3l.39-3h-4l5.12-7H177l5.35-7.56h-6.2l-7.47,10.59h4.73l-5.54,6.95h4.5l-.29,2.37h-3.79A35.7,35.7,0,0,1,164,142.93s4-1.83,7.87-8.15l-1,8.15h4.48l.93-7.42a22.09,22.09,0,0,0,4,5.48l-.25,1.94h4.94l1.56-12.1h3.06l-1.2,9.28h7.74l-.36,2.82h4.94l3.83-29.68Zm-13.86,14.56h-3.08l.41-3h3.05Zm6.53,9.27H193.6l.8-6.25h2.85Zm1.18-9.27h-2.84l.38-3h2.88Zm.8-6H196.8l1-3.67h-3.49l-1,3.67h-.11l-.58-3.67h-3.48l.57,3.67h-2.09l.73-5.49h10.79Z"/><path class="cls-1" d="M143.31,124a20.84,20.84,0,0,1-3.63,2.43l.79-6.22h2l.38-3h-2l.59-4.49h-5.72l-.59,4.49h-1.59l.44-3.48h-3.72l-.83,6.5h5.33l-1.14,8.93c-1.78.66-3.59,1.25-5.32,1.76l-.74,5.68A44.17,44.17,0,0,0,133,134l-1.14,8.89h5.72l1.72-13.44A15.71,15.71,0,0,0,143.31,124Z"/><path class="cls-1" d="M149.79,114.66l.27-2h-5.72l-1.14,8.72h2.72c-1.24,6.1-3.38,14.16-6.62,18.52,0,0,8.46-3.49,12.64-20.28h-2.79l.25-1.92h8.65l-.72,5.7H152c-1.2,6.19-3.39,15-6.83,19.55,0,0,7.53-3.11,11.9-17.57l-2.24,17.57h6l3.59-28.27Z"/><path class="cls-1" d="M187.73,73.48l12.15,5.68L201,70.43,188.32,68A46.05,46.05,0,0,1,187.73,73.48Z"/><path class="cls-1" d="M188.36,64.05l12.06-4.25-1.16-9-11.43,7.41A43.67,43.67,0,0,1,188.36,64.05Z"/><path class="cls-1" d="M42.33,102.38,43.54,94l7.16-.63.55-4.29h0l1.07-8.25h0l.55-4.3L46,77.13,46.42,74l6.87-.6.55-4.3L34.59,70.75,34,75.05,41,74.44l-.44,3.16-6.9.61-.08.6h0L31.45,95h0v0l6.71-.59L37,102.92Zm3-20.95,2.36-.21-1,8.25-2.51.22Zm-6.59,8.73-2.18.19,1.1-8.25,2.24-.2Z"/><path class="cls-1" d="M114.47,80.69l9.61-.84.54-4.22L105.57,77.3l-6.93.61c.59-1.76,1.15-3.6,1.68-5.54l5.52-.48,19.48-1.71.55-4.22-19.71,1.73-4.76.41c.41-1.75.8-3.58,1.15-5.49l3.87-.33,20.15-1.77.54-4.22-20.37,1.79-3.46.3c.23-1.53.46-3.11.66-4.74l3-.26,20.79-1.82.55-4.22-7.84.69.38-3-12,1.06-.38,2.95L94.6,50.29l-.89-2.85-12,1.06.89,2.84L75.13,52l-.54,4.2,16.22-1.4c-.1.87-.29,2.52-.58,4.73L74,60.94l-.54,4.22,16.19-1.41c-.25,1.67-.54,3.51-.88,5.46l-16,1.4-.54,4.22L88,73.45c-.34,1.78-.72,3.62-1.13,5.49L71.49,80.28l-.55,4.22h0l14.91-1.3c-2.47,10-6,20.34-10.8,26.68,0,0,13.07-4.82,22-27.67l3-.25,1.74,4.5c4.7,12.12,15.73,18.94,27.41,17.78h0l4.63-.45S114.79,101.11,114.47,80.69Z"/><path class="cls-1" d="M175.71,88.87c-1.78-1.84-3.46-3.71-5-5.52l2.3.59a5.54,5.54,0,0,0,1.09.39h0l.49.08h.09l.51,0h.34c3.4-.23,5.71-3.73,7-8.37a34.13,34.13,0,0,0,.83-3.86,42.67,42.67,0,0,0,.51-6.6,33,33,0,0,0-2.21-12.82c-.19-.43-.39-.84-.61-1.23l5.21.81,1.87.29.9-7-9.25-1.52-5.61-.93-14-2.32L134.44,51l-1,8,27.1-10.68,5.73.89,3.14.48-4.2,1.65-18.84,7.38-.07,0-.14,0-.17,0-.13,0-.16.06-.13.06-.15.07-.12.07-.1,0-7.77,3.05-4.89,37.91,6.06-.53,15.69-1.37.32-4.2-8.74.77h0L146.72,78l0-.76,6.14,1.57c20.21,25,37.26,21.48,37.26,21.48C185,97.64,180.05,93.35,175.71,88.87Zm-.11-35.8c1,.8,2.93,5,2.92,12.54,0,8-2.21,12.53-3.26,13.34-1-.8-2.94-5-2.92-12.54C172.35,58.44,174.55,53.88,175.6,53.07ZM147.93,71.9a10.13,10.13,0,0,1-.6-3.79,10.07,10.07,0,0,1,.74-4.18L168.21,56A39.64,39.64,0,0,0,166.9,66.4a36.31,36.31,0,0,0,1.44,10.72Z"/><path class="cls-1" d="M63.26,84.34c.79-6.09,3.09-24,3.09-24l-33.94,3-9.28.81-.59,7.26s-1.73,28-9.65,39.24c0,0,3.29-1.34,7.14-6a38.78,38.78,0,0,0,4.46-6.76c3.21-6.1,6.1-14.94,7.16-27.62L32,67.5l25.54-2.25S55.6,80,54.93,85.15c-.63,4.86.69,8.52,3,11a11.59,11.59,0,0,0,2,1.73,14.18,14.18,0,0,0,9.18,2.35l2.37-.23S61.84,95.23,63.26,84.34Z"/><polygon class="cls-1" points="204.42 91.72 199.39 90.8 198.21 82.94 197.02 82.92 195.53 90.98 190.38 92.43 190.44 93.61 195.47 94.53 196.65 102.39 197.84 102.41 199.33 94.36 204.47 92.9 204.42 91.72"/><path class="cls-1" d="M20.15,64.36l.5-3.43,46-4L67,52.71,45.09,54.59l.38-2.93-10,.88-.39,2.93-22.89,2h0l-.19,0-1,7.63-6.07.53L4.19,71.5,10.28,71c-.22,1.51-.49,3.25-.82,5.13l-5.92.52-.75,5.82,5.53-.49c-1.73,8-4.4,17-8.32,22.11,0,0,16.16-6,20.15-39.69Z"/><path class="cls-1" d="M54.27,97,47,97.61h0a15.38,15.38,0,0,0,14,11.1C56.22,105.52,54.65,99,54.27,97Z"/><polygon class="cls-1" points="53.42 104.69 27.76 106.91 28.31 102.62 49.74 100.76 53.42 104.69"/><path class="cls-1" d="M44.5,31.94a.6.6,0,0,0-.81.09l-1.46,2a.83.83,0,0,1-.77.38h-9V20H43.66c.36,0,.56-.08.64-.3a.5.5,0,0,0-.12-.55,14.31,14.31,0,0,0-4.08-3.83c-.36-.21-.65-.21-.85.09l-1.42,2a.88.88,0,0,1-.81.42H32.5V4.94H45.71a.65.65,0,0,0,.65-.29.54.54,0,0,0-.16-.6,14.2,14.2,0,0,0-4-3.83C41.8,0,41.51,0,41.31.31l-1.43,2a1,1,0,0,1-.81.39H17.26l-2.7-.26c-.36-.08-.48,0-.44.13l.29,1.1h0l.07.27,0,.16h0l.29,1.1c0,.17.2.21.44.09l2.31-.35H28.14V17.83H19l-2.71-.3c-.36-.08-.49,0-.45.18l.41,1.49h0l.3,1.1c0,.21.2.25.44.12l2.3-.38h8.85V34.42H15.24l-2.75-.26c-.36-.08-.48,0-.45.17l.3,1.1h0l.41,1.49c0,.21.2.26.44.13l2.35-.38H48.06c.36,0,.57-.09.68-.3a.54.54,0,0,0-.16-.6A14.49,14.49,0,0,0,44.5,31.94Z"/><path class="cls-1" d="M64.22,15.66a1.32,1.32,0,0,0,.28,1.1,2,2,0,0,0,1.37.43,4,4,0,0,0,2-.59,1.56,1.56,0,0,0,.69-1.5H81.27a1.43,1.43,0,0,0,.4,1.28,1.73,1.73,0,0,0,1.25.43,4.5,4.5,0,0,0,1.78-.47,1.63,1.63,0,0,0,.93-1.53V4.48a.67.67,0,0,1,.44-.64c1.09-.43,1.26-1.07.45-1.74A15.09,15.09,0,0,0,82.68.05.6.6,0,0,0,82,.18L81,1.75c-.17.3-.53.43-1.1.39H69.19A15.67,15.67,0,0,0,64.42.09c-.16,0-.24.09-.2.39ZM68.58,4.42H80.74c.25-.17.4-.08.53.22V12.9H68.58Z"/><path class="cls-1" d="M91.73,21.23a12.72,12.72,0,0,0-3.84-2,.51.51,0,0,0-.68.13l-1,1.57c-.17.3-.53.38-1.1.38H80.94a13.65,13.65,0,0,0-4.52-1.87c-.16,0-.24.09-.2.34V37.56a1.4,1.4,0,0,0,.28,1.15,2,2,0,0,0,1.37.38,4,4,0,0,0,2-.55,1.93,1.93,0,0,0,.69-1.62v-.55h5.9V37a1.69,1.69,0,0,0,.4,1.37,1.71,1.71,0,0,0,1.25.42,4.54,4.54,0,0,0,1.78-.47,1.75,1.75,0,0,0,.93-1.53V23.57a.59.59,0,0,1,.44-.6C92.38,22.5,92.54,21.87,91.73,21.23ZM86.48,34.16h-5.9V23.48H86c.25-.13.41,0,.53.25Z"/><path class="cls-1" d="M74,21.23a11.93,11.93,0,0,0-3.84-2,.48.48,0,0,0-.65.13l-1,1.57c-.12.3-.49.38-1.09.38H63.29a14.31,14.31,0,0,0-4.57-1.87c-.16,0-.24.09-.2.34V37.39a1.39,1.39,0,0,0,.28,1.15,2.07,2.07,0,0,0,1.38.42,3.93,3.93,0,0,0,2-.59,1.88,1.88,0,0,0,.73-1.62v-.38h5.85v.76a1.65,1.65,0,0,0,.41,1.37,1.84,1.84,0,0,0,1.25.42,4.42,4.42,0,0,0,1.78-.47,1.73,1.73,0,0,0,1-1.53V23.57a.61.61,0,0,1,.4-.6C74.72,22.5,74.88,21.87,74,21.23ZM68.78,34.16H62.93V23.48H68.3c.2-.13.36,0,.48.25Z"/></svg>