<?xml version="1.0" encoding="utf-8"?>
<!-- Generator: Adobe Illustrator 25.2.1, SVG Export Plug-In . SVG Version: 6.00 Build 0)  -->
<svg version="1.1" id="Layer_1" xmlns="http://www.w3.org/2000/svg" xmlns:xlink="http://www.w3.org/1999/xlink" x="0px" y="0px"
	 viewBox="0 0 25 25" style="enable-background:new 0 0 25 25;" xml:space="preserve">
<style type="text/css">
	.st0{fill:#333333;}
</style>
<g id="Group-16-Copy" transform="translate(3.000000, 3.000000)">
	<path class="st0" d="M9.5,20.5c-6.1,0-11-4.9-11-11s4.9-11,11-11s11,4.9,11,11S15.6,20.5,9.5,20.5z M9.5,0.5c-5,0-9,4-9,9
		c0,5,4,9,9,9c5,0,9-4,9-9C18.5,4.5,14.5,0.5,9.5,0.5z"/>
	<path class="st0" d="M9.5,10.9c-0.6,0-1-0.4-1-1V3.8c0-0.6,0.4-1,1-1c0.6,0,1,0.4,1,1v6.1C10.5,10.5,10.1,10.9,9.5,10.9z"/>
	<path class="st0" d="M9.5,15.3c-0.6,0-1-0.4-1-1v-0.9c0-0.6,0.4-1,1-1c0.6,0,1,0.4,1,1v0.9C10.5,14.8,10.1,15.3,9.5,15.3z"/>
</g>
</svg>
