<?xml version="1.0" encoding="utf-8"?>
<!-- Generator: Adobe Illustrator 25.2.1, SVG Export Plug-In . SVG Version: 6.00 Build 0)  -->
<svg version="1.1" id="Layer_1" xmlns="http://www.w3.org/2000/svg" xmlns:xlink="http://www.w3.org/1999/xlink" x="0px" y="0px"
	 viewBox="0 0 25 25" style="enable-background:new 0 0 25 25;" xml:space="preserve">
<style type="text/css">
	.st0{fill-rule:evenodd;clip-rule:evenodd;fill:#333333;}
</style>
<g>
	<path class="st0" d="M22.7,7.5h-4.2V7.3c0-1-0.8-1.8-1.8-1.8H2.3c-1,0-1.8,0.8-1.8,1.8v11.4c0,1,0.8,1.8,1.8,1.8h3.2
		c-0.9,1-1.3,1.8-1.3,2.3c0,0,0,0,0,0H2c-0.6,0-1,0.4-1,1s0.4,1,1,1h15.3c0.6,0,1-0.4,1-1s-0.4-1-1-1h-2.5c0,0,0,0,0,0
		c0-0.5-0.5-1.3-1.3-2.3h3.2c1,0,1.8-0.8,1.8-1.8v-6.2h4.2c1,0,1.8-0.8,1.8-1.8V9.3C24.5,8.3,23.7,7.5,22.7,7.5z M16.5,7.5v1.8v0.1
		L16,9.7c-0.7,0.4-1.5,0.3-2.2-0.1l-0.2-0.1c-1.2-0.8-2.8-0.8-3.9,0.2c-0.3,0.3-0.8,0.3-1.1,0c-1.1-1-2.7-1-3.8-0.1L4.8,9.6
		C4.3,10,3.5,10.1,3,9.8L2.5,9.5V7.5H16.5z M5.9,20.5h3.4c-0.9,1-1.3,1.8-1.3,2.3c0,0,0,0,0,0H7.2c0,0,0,0,0,0
		C7.2,22.2,6.8,21.5,5.9,20.5z M11.8,22.8H11c0,0,0,0,0,0c0-0.5-0.5-1.3-1.3-2.3h3.4C12.2,21.5,11.8,22.2,11.8,22.8
		C11.8,22.7,11.8,22.7,11.8,22.8z M2.5,18.5v-6.7C2.9,11.9,3.3,12,3.7,12c0.8,0,1.6-0.3,2.3-0.8l0.1-0.1c0.3-0.3,0.8-0.3,1.2,0
		c1.1,1,2.7,1,3.8,0c0.4-0.3,0.9-0.4,1.3-0.1l0.2,0.1c1.1,0.8,2.6,1,3.9,0.5v6.8H2.5z M22.5,10.5h-4v-1h4V10.5z"/>
	<path class="st0" d="M8.9,3.7C8.6,4.2,8.8,4.8,9.2,5.1c0.2,0.1,0.3,0.1,0.5,0.1c0.3,0,0.7-0.2,0.9-0.5c0.5-0.9,0.5-1.8,0-2.6
		c-0.1-0.1-0.1-0.1,0-0.3c0.3-0.5,0.2-1.1-0.3-1.4C9.9,0.1,9.2,0.2,8.9,0.7c-0.6,0.8-0.6,1.8,0,2.6C9,3.4,9.1,3.5,8.9,3.7z"/>
	<path class="st0" d="M13.9,3.7c-0.3,0.5-0.1,1.1,0.3,1.4c0.2,0.1,0.3,0.1,0.5,0.1c0.3,0,0.7-0.2,0.9-0.5c0.5-0.9,0.5-1.8,0-2.6
		c-0.1-0.1-0.1-0.1,0-0.3c0.3-0.5,0.2-1.1-0.3-1.4c-0.5-0.3-1.1-0.2-1.4,0.3c-0.6,0.8-0.6,1.8,0,2.6C14,3.4,14.1,3.5,13.9,3.7z"/>
	<path class="st0" d="M3.9,3.7C3.6,4.2,3.8,4.8,4.2,5.1c0.2,0.1,0.3,0.1,0.5,0.1c0.3,0,0.7-0.2,0.9-0.5c0.5-0.9,0.5-1.8,0-2.6
		C5.5,2,5.5,2,5.6,1.8c0.3-0.5,0.2-1.1-0.3-1.4C4.9,0.1,4.2,0.2,3.9,0.7c-0.6,0.8-0.6,1.8,0,2.6C4,3.4,4.1,3.5,3.9,3.7z"/>
	<circle class="st0" cx="5.2" cy="16.8" r="1"/>
	<circle class="st0" cx="9.2" cy="13.8" r="1"/>
	<circle class="st0" cx="13.2" cy="15.8" r="1"/>
</g>
</svg>
