<?xml version="1.0" encoding="utf-8"?>
<!-- Generator: Adobe Illustrator 25.2.1, SVG Export Plug-In . SVG Version: 6.00 Build 0)  -->
<svg version="1.1" id="Layer_1" xmlns="http://www.w3.org/2000/svg" xmlns:xlink="http://www.w3.org/1999/xlink" x="0px" y="0px"
	 viewBox="0 0 25 26" style="enable-background:new 0 0 25 26;" xml:space="preserve">
<style type="text/css">
	.st0{fill:#333333;}
</style>
<g>
	<path class="st0" d="M23.2,7.5h-0.4V6.4c0-1-0.6-1.8-1.7-2.1c-1.2-0.3-3.2-0.5-6-0.6l0.2-0.5l0-0.3c0-1.3-1.1-2.4-2.4-2.4l-1,0
		c-0.6,0-1.2,0.2-1.7,0.7c-0.4,0.4-0.7,1-0.7,1.7l0.2,0.8C7,3.8,5,4,3.8,4.3c0,0-0.1,0-0.1,0c-1,0.4-1.6,1.1-1.6,2.1l0,1.1H1.8
		C0.8,7.5,0,8.3,0,9.3v2.4c0,1,0.8,1.8,1.8,1.8h1.1c0,0,0.1,0,0.1,0c0,0.1,0,0.1,0,0.2c0.2,2,0.5,4.3,2,6.3c0.5,0.6,1.1,1.1,1.7,1.5
		l0.3,2.1H3.7c-0.6,0-1,0.4-1,1s0.4,1,1,1h3.7H12h1.5H18h3c0.6,0,1-0.4,1-1s-0.4-1-1-1h-2.7l0.3-2.3c0,0,0,0,0,0
		c0.5-0.3,0.9-0.7,1.3-1.2c1.6-2,1.9-4.3,2-6.3c0-0.1,0-0.1,0-0.2c0,0,0.1,0,0.1,0h1.1c1,0,1.8-0.8,1.8-1.8V9.3
		C25,8.3,24.2,7.5,23.2,7.5z M12,2.5C12,2.5,12,2.5,12,2.5l1,0c0.2,0,0.3,0.1,0.4,0.3L13,3.6h-1.1l-0.3-0.9
		C11.7,2.6,11.8,2.5,12,2.5z M4.4,6.2c1.3-0.4,4-0.5,8-0.6c4,0,6.8,0.2,8.2,0.6c0.2,0.1,0.2,0.1,0.2,0.2V7H4.2l0-0.6
		C4.2,6.4,4.2,6.3,4.4,6.2z M2.7,11.5H2v-2h0.7V11.5z M9.1,23.5L9,22.3c0.3,0.1,0.7,0.1,1,0.2v1H9.1z M12,23.5v-0.9
		c0.2,0,0.4,0,0.5,0c0.3,0,0.6,0,0.9,0v0.9H12z M16.3,23.5h-0.8v-1.1c0.3-0.1,0.7-0.1,1-0.2L16.3,23.5z M18.3,18.7
		c-1.3,1.7-3.8,1.9-5.8,1.9S8,20.4,6.7,18.7c-1.1-1.4-1.5-3.1-1.6-5.2C4.9,12,4.8,10.5,4.8,9l15.4,0c0,1.5-0.1,3-0.2,4.5
		C19.8,15.7,19.5,17.3,18.3,18.7z M23,11.5h-0.7v-2H23V11.5z"/>
	<path class="st0" d="M12.5,11.2c-1.8,0-3.2,1.4-3.2,3.2v3.3c0,0.6,0.4,1,1,1h4.4c0.6,0,1-0.4,1-1v-3.3
		C15.7,12.6,14.3,11.2,12.5,11.2z M13.7,16.7h-2.4v-2.3c0-0.7,0.5-1.2,1.2-1.2s1.2,0.5,1.2,1.2V16.7z"/>
</g>
</svg>
