<svg enable-background="new 0 0 150 150" viewBox="0 0 150 150" xmlns="http://www.w3.org/2000/svg"><path d="m75 9c36.5 0 66 29.5 66 66s-29.5 66-66 66-66-29.5-66-66 29.5-66 66-66zm0 8.2c-31.9 0-57.8 25.9-57.8 57.8s25.9 57.8 57.8 57.8 57.8-25.9 57.8-57.8-25.9-57.8-57.8-57.8zm0 79.8c2.8 0 5.1 2.1 5.5 4.9v.6 2.8c0 3-2.5 5.5-5.5 5.5-2.8 0-5.1-2.1-5.5-4.9v-.6-2.8c0-3 2.5-5.5 5.5-5.5zm0-60.5c2.8 0 5.1 2.1 5.5 4.9v.6 38.5c0 3-2.5 5.5-5.5 5.5-2.8 0-5.1-2.1-5.5-4.9v-.6-38.5c0-3 2.5-5.5 5.5-5.5z" fill="#df032e"/></svg>