<svg xmlns="http://www.w3.org/2000/svg" width="329" height="132" viewBox="0 0 329 132">
  <g fill="none" fill-rule="evenodd" transform="translate(-19.35 -45)">
    <polygon fill="#F3B413" points="43.349 114 348.349 114 348.349 163 67.611 163 43.349 139.515" opacity=".93"/>
    <path fill="#FFF" fill-rule="nonzero" d="M76.9763159,145.136 C78.2456493,145.136 79.2713159,144.813 80.0533159,144.167 C80.8353159,143.521 81.2263159,142.6795 81.2263159,141.6425 C81.2263159,140.6055 80.9174826,139.820667 80.2998159,139.288 C79.6821493,138.755333 78.7641493,138.341667 77.5458159,138.047 C76.3274826,137.752333 75.5313159,137.4775 75.1573159,137.2225 C74.7833159,136.9675 74.5963159,136.599167 74.5963159,136.1175 C74.5963159,135.635833 74.7833159,135.276 75.1573159,135.038 C75.5313159,134.8 76.0073159,134.681 76.5853159,134.681 C77.1746493,134.681 77.7696493,134.783 78.3703159,134.987 C78.9709826,135.191 79.4469826,135.451667 79.7983159,135.769 L79.7983159,135.769 L80.8693159,134.256 C80.3253159,133.802667 79.6793159,133.451333 78.9313159,133.202 C78.1833159,132.952667 77.4296493,132.828 76.6703159,132.828 C75.4916493,132.828 74.5028159,133.1255 73.7038159,133.7205 C72.9048159,134.3155 72.5053159,135.162667 72.5053159,136.262 C72.5053159,137.361333 72.8566493,138.177333 73.5593159,138.71 C73.9106493,138.993333 74.3129826,139.222833 74.7663159,139.3985 C75.2196493,139.574167 75.8826493,139.766833 76.7553159,139.9765 C77.6279826,140.186167 78.2428159,140.4185 78.5998159,140.6735 C78.9568159,140.9285 79.1353159,141.2855 79.1353159,141.7445 C79.1353159,142.2035 78.9454826,142.571833 78.5658159,142.8495 C78.1861493,143.127167 77.6733159,143.266 77.0273159,143.266 C75.7353159,143.266 74.4886493,142.744667 73.2873159,141.702 L73.2873159,141.702 L72.0293159,143.215 C73.4686493,144.495667 75.1176493,145.136 76.9763159,145.136 Z M87.4313159,145.136 C88.9953159,145.136 90.2646493,144.631667 91.2393159,143.623 L91.2393159,143.623 L90.1513159,142.433 C89.5619826,143.147 88.7006493,143.504 87.5673159,143.504 C86.8533159,143.504 86.2186493,143.302833 85.6633159,142.9005 C85.1079826,142.498167 84.8076493,141.968333 84.7623159,141.311 L84.7623159,141.311 L91.8513159,141.311 L91.8513159,140.002 C91.8513159,138.698667 91.4206493,137.675833 90.5593159,136.9335 C89.6979826,136.191167 88.6524826,135.82 87.4228159,135.82 C86.1931493,135.82 85.1249826,136.239333 84.2183159,137.078 C83.3116493,137.916667 82.8583159,139.047167 82.8583159,140.4695 C82.8583159,141.891833 83.3031493,143.025167 84.1928159,143.8695 C85.0824826,144.713833 86.1619826,145.136 87.4313159,145.136 Z M89.9473159,139.815 L84.7623159,139.815 C84.7623159,139.089667 85.0399826,138.5145 85.5953159,138.0895 C86.1506493,137.6645 86.7768159,137.452 87.4738159,137.452 C88.1708159,137.452 88.7573159,137.656 89.2333159,138.064 C89.7093159,138.472 89.9473159,139.055667 89.9473159,139.815 L89.9473159,139.815 Z M97.9543159,145.136 C99.3936493,145.136 100.662983,144.580667 101.762316,143.47 L101.762316,143.47 L100.640316,142.246 C99.8923159,143.016667 99.0961493,143.402 98.2518159,143.402 C97.4074826,143.402 96.6963159,143.113 96.1183159,142.535 C95.5403159,141.957 95.2513159,141.2515 95.2513159,140.4185 C95.2513159,139.5855 95.5431493,138.9055 96.1268159,138.3785 C96.7104826,137.8515 97.3989826,137.588 98.1923159,137.588 C98.9856493,137.588 99.7733159,137.928 100.555316,138.608 L100.555316,138.608 L101.677316,137.231 C100.736649,136.290333 99.5863159,135.82 98.2263159,135.82 C96.8663159,135.82 95.7131493,136.2535 94.7668159,137.1205 C93.8204826,137.9875 93.3473159,139.112333 93.3473159,140.495 C93.3473159,141.877667 93.8006493,142.996833 94.7073159,143.8525 C95.6139826,144.708167 96.6963159,145.136 97.9543159,145.136 Z M107.049316,145.136 C107.672649,145.136 108.253483,144.977333 108.791816,144.66 C109.330149,144.342667 109.752316,143.906333 110.058316,143.351 L110.058316,143.351 L110.058316,145 L111.962316,145 L111.962316,135.956 L110.058316,135.956 L110.058316,140.852 C110.058316,141.690667 109.814649,142.328167 109.327316,142.7645 C108.839983,143.200833 108.267649,143.419 107.610316,143.419 C106.227649,143.419 105.536316,142.586 105.536316,140.92 L105.536316,140.92 L105.536316,135.956 L103.632316,135.956 L103.632316,141.498 C103.632316,142.676667 103.946816,143.577667 104.575816,144.201 C105.204816,144.824333 106.029316,145.136 107.049316,145.136 Z M116.620316,145 L116.620316,141.124 C116.620316,140.092667 116.858316,139.271 117.334316,138.659 C117.810316,138.047 118.518649,137.741 119.459316,137.741 L119.459316,137.741 L119.561316,137.741 L119.544316,135.82 C118.954983,135.831333 118.396816,136.018333 117.869816,136.381 C117.342816,136.743667 116.926316,137.208333 116.620316,137.775 L116.620316,137.775 L116.620316,135.956 L114.716316,135.956 L114.716316,145 L116.620316,145 Z M122.434316,134.511 C122.762983,134.511 123.046316,134.392 123.284316,134.154 C123.522316,133.916 123.641316,133.632667 123.641316,133.304 C123.641316,132.975333 123.522316,132.692 123.284316,132.454 C123.046316,132.216 122.762983,132.097 122.434316,132.097 C122.105649,132.097 121.822316,132.216 121.584316,132.454 C121.346316,132.692 121.227316,132.975333 121.227316,133.304 C121.227316,133.632667 121.346316,133.916 121.584316,134.154 C121.822316,134.392 122.105649,134.511 122.434316,134.511 Z M123.369316,145 L123.369316,135.956 L121.465316,135.956 L121.465316,145 L123.369316,145 Z M129.497816,145.136 C130.308149,145.136 131.047649,144.835667 131.716316,144.235 L131.716316,144.235 L130.934316,142.892 C130.560316,143.288667 130.169316,143.487 129.761316,143.487 C129.353316,143.487 129.035983,143.3595 128.809316,143.1045 C128.582649,142.8495 128.469316,142.506667 128.469316,142.076 L128.469316,142.076 L128.469316,137.486 L130.849316,137.486 L130.849316,135.956 L128.469316,135.956 L128.469316,133.117 L126.565316,133.117 L126.565316,135.956 L125.426316,135.956 L125.426316,137.486 L126.565316,137.486 L126.565316,142.025 C126.565316,142.977 126.851483,143.7335 127.423816,144.2945 C127.996149,144.8555 128.687483,145.136 129.497816,145.136 Z M134.368316,148.604 C134.957649,148.604 135.495983,148.434 135.983316,148.094 C136.470649,147.754 136.844649,147.289333 137.105316,146.7 L137.105316,146.7 L141.491316,135.956 L139.451316,135.956 L136.748316,142.62 L134.045316,135.956 L132.005316,135.956 C134.441983,141.996667 135.660316,145.096333 135.660316,145.255 C135.660316,145.617667 135.527149,145.952 135.260816,146.258 C134.994483,146.564 134.648816,146.717 134.223816,146.717 C133.798816,146.717 133.387983,146.53 132.991316,146.156 L132.991316,146.156 L132.124316,147.703 C132.792983,148.303667 133.540983,148.604 134.368316,148.604 Z M149.923316,145 L149.923316,141.515 L152.031316,141.515 C153.776649,141.515 155.071483,141.180667 155.915816,140.512 C156.760149,139.843333 157.182316,138.789333 157.182316,137.35 C157.182316,135.910667 156.768649,134.845333 155.941316,134.154 C155.113983,133.462667 153.799316,133.117 151.997316,133.117 L151.997316,133.117 L147.917316,133.117 L147.917316,145 L149.923316,145 Z M152.252316,139.696 L149.923316,139.696 L149.923316,134.936 L151.963316,134.936 C153.051316,134.936 153.850316,135.106 154.360316,135.446 C154.870316,135.786 155.125316,136.366833 155.125316,137.1885 C155.125316,138.010167 154.924149,138.6335 154.521816,139.0585 C154.119483,139.4835 153.362983,139.696 152.252316,139.696 L152.252316,139.696 Z M161.177316,145 L161.177316,132.386 L159.273316,132.386 L159.273316,145 L161.177316,145 Z M166.515316,145.136 C167.773316,145.136 168.776316,144.688333 169.524316,143.793 L169.524316,143.793 L169.524316,145 L171.258316,145 L171.258316,139.169 C171.258316,138.013 170.921149,137.165833 170.246816,136.6275 C169.572483,136.089167 168.702649,135.82 167.637316,135.82 C166.243316,135.82 164.996649,136.256333 163.897316,137.129 L163.897316,137.129 L164.747316,138.319 C165.653983,137.707 166.526649,137.401 167.365316,137.401 C168.702649,137.401 169.371316,138.001667 169.371316,139.203 L169.371316,139.203 L169.371316,139.543 L166.906316,139.543 C165.784316,139.543 164.894649,139.764 164.237316,140.206 C163.579983,140.648 163.251316,141.313833 163.251316,142.2035 C163.251316,143.093167 163.560149,143.804333 164.177816,144.337 C164.795483,144.869667 165.574649,145.136 166.515316,145.136 Z M167.084816,143.521 C166.478483,143.521 166.005316,143.404833 165.665316,143.1725 C165.325316,142.940167 165.155316,142.603 165.155316,142.161 C165.155316,141.299667 165.840983,140.869 167.212316,140.869 L167.212316,140.869 L169.354316,140.869 L169.354316,141.634 C169.354316,142.212 169.127649,142.671 168.674316,143.011 C168.220983,143.351 167.691149,143.521 167.084816,143.521 Z M177.284816,145.136 C178.095149,145.136 178.834649,144.835667 179.503316,144.235 L179.503316,144.235 L178.721316,142.892 C178.347316,143.288667 177.956316,143.487 177.548316,143.487 C177.140316,143.487 176.822983,143.3595 176.596316,143.1045 C176.369649,142.8495 176.256316,142.506667 176.256316,142.076 L176.256316,142.076 L176.256316,137.486 L178.636316,137.486 L178.636316,135.956 L176.256316,135.956 L176.256316,133.117 L174.352316,133.117 L174.352316,135.956 L173.213316,135.956 L173.213316,137.486 L174.352316,137.486 L174.352316,142.025 C174.352316,142.977 174.638483,143.7335 175.210816,144.2945 C175.783149,144.8555 176.474483,145.136 177.284816,145.136 Z M183.362316,145 L183.362316,137.486 L185.742316,137.486 L185.742316,135.956 L183.362316,135.956 L183.362316,135.208 C183.362316,134.777333 183.475649,134.4345 183.702316,134.1795 C183.928983,133.9245 184.246316,133.797 184.654316,133.797 C185.062316,133.797 185.453316,133.995333 185.827316,134.392 L185.827316,134.392 L186.609316,133.049 C185.940649,132.448333 185.201149,132.148 184.390816,132.148 C183.580483,132.148 182.889149,132.4285 182.316816,132.9895 C181.744483,133.5505 181.458316,134.307 181.458316,135.259 L181.458316,135.259 L181.458316,135.956 L180.319316,135.956 L180.319316,137.486 L181.458316,137.486 L181.458316,145 L183.362316,145 Z M191.743316,145.136 C193.103316,145.136 194.236649,144.688333 195.143316,143.793 C196.049983,142.886333 196.503316,141.781333 196.503316,140.478 C196.503316,139.174667 196.049983,138.0725 195.143316,137.1715 C194.236649,136.2705 193.103316,135.82 191.743316,135.82 C190.383316,135.82 189.249983,136.2705 188.343316,137.1715 C187.436649,138.0725 186.983316,139.174667 186.983316,140.478 C186.983316,141.781333 187.436649,142.8835 188.343316,143.7845 C189.249983,144.6855 190.383316,145.136 191.743316,145.136 Z M191.743316,143.436 C190.915983,143.436 190.230316,143.164 189.686316,142.62 C189.153649,142.064667 188.887316,141.350667 188.887316,140.478 C188.887316,139.605333 189.156483,138.894167 189.694816,138.3445 C190.233149,137.794833 190.915983,137.52 191.743316,137.52 C192.570649,137.52 193.253483,137.794833 193.791816,138.3445 C194.330149,138.894167 194.599316,139.605333 194.599316,140.478 C194.599316,141.350667 194.330149,142.061833 193.791816,142.6115 C193.253483,143.161167 192.570649,143.436 191.743316,143.436 Z M200.566316,145 L200.566316,141.124 C200.566316,140.092667 200.804316,139.271 201.280316,138.659 C201.756316,138.047 202.464649,137.741 203.405316,137.741 L203.405316,137.741 L203.507316,137.741 L203.490316,135.82 C202.900983,135.831333 202.342816,136.018333 201.815816,136.381 C201.288816,136.743667 200.872316,137.208333 200.566316,137.775 L200.566316,137.775 L200.566316,135.956 L198.662316,135.956 L198.662316,145 L200.566316,145 Z M207.315316,145 L207.315316,140.104 C207.315316,139.265333 207.558983,138.627833 208.046316,138.1915 C208.533649,137.755167 209.105983,137.537 209.763316,137.537 C210.420649,137.537 210.902316,137.738167 211.208316,138.1405 C211.514316,138.542833 211.667316,139.174667 211.667316,140.036 L211.667316,140.036 L211.667316,145 L213.571316,145 L213.571316,139.968 C213.593983,139.174667 213.846149,138.571167 214.327816,138.1575 C214.809483,137.743833 215.373316,137.537 216.019316,137.537 C217.401983,137.537 218.093316,138.37 218.093316,140.036 L218.093316,140.036 L218.093316,145 L219.997316,145 L219.997316,139.458 C219.997316,138.279333 219.682816,137.378333 219.053816,136.755 C218.424816,136.131667 217.600316,135.82 216.580316,135.82 C215.242983,135.82 214.126649,136.409333 213.231316,137.588 C212.721316,136.409333 211.752316,135.82 210.324316,135.82 C209.689649,135.82 209.097483,135.978667 208.547816,136.296 C207.998149,136.613333 207.587316,137.049667 207.315316,137.605 L207.315316,137.605 L207.315316,135.956 L205.411316,135.956 L205.411316,145 L207.315316,145 Z M229.891316,145.136 C231.149316,145.136 232.152316,144.688333 232.900316,143.793 L232.900316,143.793 L232.900316,145 L234.634316,145 L234.634316,139.169 C234.634316,138.013 234.297149,137.165833 233.622816,136.6275 C232.948483,136.089167 232.078649,135.82 231.013316,135.82 C229.619316,135.82 228.372649,136.256333 227.273316,137.129 L227.273316,137.129 L228.123316,138.319 C229.029983,137.707 229.902649,137.401 230.741316,137.401 C232.078649,137.401 232.747316,138.001667 232.747316,139.203 L232.747316,139.203 L232.747316,139.543 L230.282316,139.543 C229.160316,139.543 228.270649,139.764 227.613316,140.206 C226.955983,140.648 226.627316,141.313833 226.627316,142.2035 C226.627316,143.093167 226.936149,143.804333 227.553816,144.337 C228.171483,144.869667 228.950649,145.136 229.891316,145.136 Z M230.460816,143.521 C229.854483,143.521 229.381316,143.404833 229.041316,143.1725 C228.701316,142.940167 228.531316,142.603 228.531316,142.161 C228.531316,141.299667 229.216983,140.869 230.588316,140.869 L230.588316,140.869 L232.730316,140.869 L232.730316,141.634 C232.730316,142.212 232.503649,142.671 232.050316,143.011 C231.596983,143.351 231.067149,143.521 230.460816,143.521 Z M240.397316,145.136 C241.371983,145.136 242.170983,144.878167 242.794316,144.3625 C243.417649,143.846833 243.729316,143.158333 243.729316,142.297 C243.729316,141.435667 243.423316,140.801 242.811316,140.393 C242.505316,140.189 242.219149,140.030333 241.952816,139.917 C241.686483,139.803667 241.411649,139.701667 241.128316,139.611 C240.844983,139.520333 240.519149,139.429667 240.150816,139.339 C239.782483,139.248333 239.496316,139.152 239.292316,139.05 C238.997649,138.914 238.850316,138.698667 238.850316,138.404 C238.850316,138.075333 238.991983,137.828833 239.275316,137.6645 C239.558649,137.500167 239.926983,137.418 240.380316,137.418 C241.241649,137.418 242.040649,137.661667 242.777316,138.149 L242.777316,138.149 L243.491316,136.738 C242.561983,136.126 241.575983,135.82 240.533316,135.82 C239.490649,135.82 238.643483,136.072167 237.991816,136.5765 C237.340149,137.080833 237.014316,137.752333 237.014316,138.591 C237.014316,139.781 237.954983,140.631 239.836316,141.141 C239.881649,141.152333 239.949649,141.175 240.040316,141.209 C241.241649,141.571667 241.842316,141.979667 241.842316,142.433 C241.842316,142.739 241.717649,142.991167 241.468316,143.1895 C241.218983,143.387833 240.878983,143.487 240.448316,143.487 C239.462316,143.487 238.442316,143.090333 237.388316,142.297 L237.388316,142.297 L236.470316,143.776 C237.014316,144.206667 237.640483,144.541 238.348816,144.779 C239.057149,145.017 239.739983,145.136 240.397316,145.136 Z M253.130316,145.136 C254.388316,145.136 255.391316,144.688333 256.139316,143.793 L256.139316,143.793 L256.139316,145 L257.873316,145 L257.873316,139.169 C257.873316,138.013 257.536149,137.165833 256.861816,136.6275 C256.187483,136.089167 255.317649,135.82 254.252316,135.82 C252.858316,135.82 251.611649,136.256333 250.512316,137.129 L250.512316,137.129 L251.362316,138.319 C252.268983,137.707 253.141649,137.401 253.980316,137.401 C255.317649,137.401 255.986316,138.001667 255.986316,139.203 L255.986316,139.203 L255.986316,139.543 L253.521316,139.543 C252.399316,139.543 251.509649,139.764 250.852316,140.206 C250.194983,140.648 249.866316,141.313833 249.866316,142.2035 C249.866316,143.093167 250.175149,143.804333 250.792816,144.337 C251.410483,144.869667 252.189649,145.136 253.130316,145.136 Z M253.699816,143.521 C253.093483,143.521 252.620316,143.404833 252.280316,143.1725 C251.940316,142.940167 251.770316,142.603 251.770316,142.161 C251.770316,141.299667 252.455983,140.869 253.827316,140.869 L253.827316,140.869 L255.969316,140.869 L255.969316,141.634 C255.969316,142.212 255.742649,142.671 255.289316,143.011 C254.835983,143.351 254.306149,143.521 253.699816,143.521 Z M269.433316,145.136 C270.702649,145.136 271.728316,144.813 272.510316,144.167 C273.292316,143.521 273.683316,142.6795 273.683316,141.6425 C273.683316,140.6055 273.374483,139.820667 272.756816,139.288 C272.139149,138.755333 271.221149,138.341667 270.002816,138.047 C268.784483,137.752333 267.988316,137.4775 267.614316,137.2225 C267.240316,136.9675 267.053316,136.599167 267.053316,136.1175 C267.053316,135.635833 267.240316,135.276 267.614316,135.038 C267.988316,134.8 268.464316,134.681 269.042316,134.681 C269.631649,134.681 270.226649,134.783 270.827316,134.987 C271.427983,135.191 271.903983,135.451667 272.255316,135.769 L272.255316,135.769 L273.326316,134.256 C272.782316,133.802667 272.136316,133.451333 271.388316,133.202 C270.640316,132.952667 269.886649,132.828 269.127316,132.828 C267.948649,132.828 266.959816,133.1255 266.160816,133.7205 C265.361816,134.3155 264.962316,135.162667 264.962316,136.262 C264.962316,137.361333 265.313649,138.177333 266.016316,138.71 C266.367649,138.993333 266.769983,139.222833 267.223316,139.3985 C267.676649,139.574167 268.339649,139.766833 269.212316,139.9765 C270.084983,140.186167 270.699816,140.4185 271.056816,140.6735 C271.413816,140.9285 271.592316,141.2855 271.592316,141.7445 C271.592316,142.2035 271.402483,142.571833 271.022816,142.8495 C270.643149,143.127167 270.130316,143.266 269.484316,143.266 C268.192316,143.266 266.945649,142.744667 265.744316,141.702 L265.744316,141.702 L264.486316,143.215 C265.925649,144.495667 267.574649,145.136 269.433316,145.136 Z M279.888316,145.136 C281.452316,145.136 282.721649,144.631667 283.696316,143.623 L283.696316,143.623 L282.608316,142.433 C282.018983,143.147 281.157649,143.504 280.024316,143.504 C279.310316,143.504 278.675649,143.302833 278.120316,142.9005 C277.564983,142.498167 277.264649,141.968333 277.219316,141.311 L277.219316,141.311 L284.308316,141.311 L284.308316,140.002 C284.308316,138.698667 283.877649,137.675833 283.016316,136.9335 C282.154983,136.191167 281.109483,135.82 279.879816,135.82 C278.650149,135.82 277.581983,136.239333 276.675316,137.078 C275.768649,137.916667 275.315316,139.047167 275.315316,140.4695 C275.315316,141.891833 275.760149,143.025167 276.649816,143.8695 C277.539483,144.713833 278.618983,145.136 279.888316,145.136 Z M282.404316,139.815 L277.219316,139.815 C277.219316,139.089667 277.496983,138.5145 278.052316,138.0895 C278.607649,137.6645 279.233816,137.452 279.930816,137.452 C280.627816,137.452 281.214316,137.656 281.690316,138.064 C282.166316,138.472 282.404316,139.055667 282.404316,139.815 L282.404316,139.815 Z M288.303316,145 L288.303316,141.124 C288.303316,140.092667 288.541316,139.271 289.017316,138.659 C289.493316,138.047 290.201649,137.741 291.142316,137.741 L291.142316,137.741 L291.244316,137.741 L291.227316,135.82 C290.637983,135.831333 290.079816,136.018333 289.552816,136.381 C289.025816,136.743667 288.609316,137.208333 288.303316,137.775 L288.303316,137.775 L288.303316,135.956 L286.399316,135.956 L286.399316,145 L288.303316,145 Z M297.721316,145 L301.359316,135.956 L299.387316,135.956 L296.633316,142.79 L293.879316,135.956 L291.907316,135.956 L295.545316,145 L297.721316,145 Z M303.841316,134.511 C304.169983,134.511 304.453316,134.392 304.691316,134.154 C304.929316,133.916 305.048316,133.632667 305.048316,133.304 C305.048316,132.975333 304.929316,132.692 304.691316,132.454 C304.453316,132.216 304.169983,132.097 303.841316,132.097 C303.512649,132.097 303.229316,132.216 302.991316,132.454 C302.753316,132.692 302.634316,132.975333 302.634316,133.304 C302.634316,133.632667 302.753316,133.916 302.991316,134.154 C303.229316,134.392 303.512649,134.511 303.841316,134.511 Z M304.776316,145 L304.776316,135.956 L302.872316,135.956 L302.872316,145 L304.776316,145 Z M311.542316,145.136 C312.981649,145.136 314.250983,144.580667 315.350316,143.47 L315.350316,143.47 L314.228316,142.246 C313.480316,143.016667 312.684149,143.402 311.839816,143.402 C310.995483,143.402 310.284316,143.113 309.706316,142.535 C309.128316,141.957 308.839316,141.2515 308.839316,140.4185 C308.839316,139.5855 309.131149,138.9055 309.714816,138.3785 C310.298483,137.8515 310.986983,137.588 311.780316,137.588 C312.573649,137.588 313.361316,137.928 314.143316,138.608 L314.143316,138.608 L315.265316,137.231 C314.324649,136.290333 313.174316,135.82 311.814316,135.82 C310.454316,135.82 309.301149,136.2535 308.354816,137.1205 C307.408483,137.9875 306.935316,139.112333 306.935316,140.495 C306.935316,141.877667 307.388649,142.996833 308.295316,143.8525 C309.201983,144.708167 310.284316,145.136 311.542316,145.136 Z M321.317316,145.136 C322.881316,145.136 324.150649,144.631667 325.125316,143.623 L325.125316,143.623 L324.037316,142.433 C323.447983,143.147 322.586649,143.504 321.453316,143.504 C320.739316,143.504 320.104649,143.302833 319.549316,142.9005 C318.993983,142.498167 318.693649,141.968333 318.648316,141.311 L318.648316,141.311 L325.737316,141.311 L325.737316,140.002 C325.737316,138.698667 325.306649,137.675833 324.445316,136.9335 C323.583983,136.191167 322.538483,135.82 321.308816,135.82 C320.079149,135.82 319.010983,136.239333 318.104316,137.078 C317.197649,137.916667 316.744316,139.047167 316.744316,140.4695 C316.744316,141.891833 317.189149,143.025167 318.078816,143.8695 C318.968483,144.713833 320.047983,145.136 321.317316,145.136 Z M323.833316,139.815 L318.648316,139.815 C318.648316,139.089667 318.925983,138.5145 319.481316,138.0895 C320.036649,137.6645 320.662816,137.452 321.359816,137.452 C322.056816,137.452 322.643316,137.656 323.119316,138.064 C323.595316,138.472 323.833316,139.055667 323.833316,139.815 L323.833316,139.815 Z"/>
    <polygon fill="#FABB1C" points="24.349 57 30.349 63 36.349 57 30.349 51"/>
    <polygon stroke="#E8AE1B" points="30.349 46 40.811 53.601 36.815 65.899 23.884 65.899 19.888 53.601"/>
    <line x1="27.346" x2="27.352" y1="58.537" y2="59.463" stroke="#FABB1C" stroke-width="2.5"/>
    <line x1="9" x2="50.521" y1="74.078" y2="115.744" stroke="#FABB1C" stroke-dasharray="2.43 4.859" stroke-width="2.5" transform="rotate(45 29.76 94.911)"/>
    <path stroke="#FABB1C" stroke-dasharray="2.43 4.859" stroke-width="2.5" d="M66.16464,257.782724 L111.625818,259.56377 L313.261484,57.9281041" transform="rotate(45 189.713 158.746)"/>
    <line x1="30.05" x2="30.379" y1="139.36" y2="139.686" stroke="#FABB1C" stroke-width="2.5" transform="rotate(45 30.215 139.523)"/>
    <circle cx="30.349" cy="137" r="3" fill="#ECB321"/>
    <circle cx="30.349" cy="137" r="6" stroke="#E8AE1B"/>
    <line x1="43.849" x2="31.849" y1="154.5" y2="142.5" stroke="#FABB1C" stroke-width="2"/>
    <line x1="29.849" x2="29.849" y1="132.5" y2="114.5" stroke="#FABB1C" stroke-width="2"/>
  </g>
</svg>
