<svg enable-background="new 0 0 35 38" viewBox="0 0 35 38" xmlns="http://www.w3.org/2000/svg"><path d="m32.5.4c.7 0 1.2.5 1.2 1.2 0 .6-.5 1.1-1 1.2h-.2-17.7v2.4h.1.2 17.7c.7 0 1.2.5 1.2 1.2 0 .6-.5 1.1-1 1.2h-.2-17.7c-.1 0-.2 0-.3 0l-.1 9.7h18.9c.6 0 1.1.5 1.2 1.1v.1 3.2c0 5.3-3.3 9.9-8 11.6v1.2c0 1.6-1.3 2.8-2.8 2.8h-12.9c-1.6 0-2.8-1.3-2.8-2.8v-1.2c-4.7-1.8-8-6.3-8-11.6v-3.2c0-.7.5-1.2 1.2-1.2h4.4l.1-9.6h-3.4c-.7 0-1.2-.5-1.2-1.2 0-.6.5-1.1 1-1.2h.2 3.5v-2.4h-3.5c-.7 0-1.2-.5-1.2-1.2 0-.6.5-1.1 1-1.2h.2 29.9zm-8.2 33.8h-13.6v.4c0 .2.1.3.3.4h.1 12.9c.2 0 .4-.2.4-.4v-.4zm8.1-14.5h-29.8v2c0 5.4 4.3 9.8 9.7 10h.4 9.6c5.5 0 10-4.5 10-10v-2zm-20.1-2.4.1-14.5h-.8l-.1 14.5zm-3.1-14.5h-.8l-.1 14.5h.8z" fill="#be0e31"/></svg>