<svg height="655" viewBox="0 0 1920 655" width="1920" xmlns="http://www.w3.org/2000/svg" xmlns:xlink="http://www.w3.org/1999/xlink"><linearGradient id="a" x1="50%" x2="50%" y1="83.970623%" y2="100%"><stop offset="0" stop-color="#d6b98a"/><stop offset="1" stop-color="#110602" stop-opacity="0"/></linearGradient><g fill="none" fill-rule="evenodd" opacity=".296735" stroke="url(#a)" transform="translate(-337)"><g transform="translate(1288)"><path d="m224.011199 654.5h436.529644v-435.735178c0-120.5443326-97.720489-218.264822-218.264822-218.264822s-218.264822 97.7204894-218.264822 218.264822z"/><path d="m.5 654.5h436.529644v-435.735178c0-120.5443326-97.720489-218.264822-218.264822-218.264822-120.5443326 0-218.264822 97.7204894-218.264822 218.264822z"/></g><g transform="translate(1932)"><path d="m224.011199 654.5h436.529644v-435.735178c0-120.5443326-97.720489-218.264822-218.264822-218.264822s-218.264822 97.7204894-218.264822 218.264822z"/><path d="m.5 654.5h436.529644v-435.735178c0-120.5443326-97.720489-218.264822-218.264822-218.264822-120.5443326 0-218.264822 97.7204894-218.264822 218.264822z"/></g><path d="m224.011199 654.5h436.529644v-435.735178c0-120.5443326-97.720489-218.264822-218.264822-218.264822s-218.264822 97.7204894-218.264822 218.264822z"/><path d="m.5 654.5h436.529644v-435.735178c0-120.5443326-97.720489-218.264822-218.264822-218.264822-120.5443326 0-218.264822 97.7204894-218.264822 218.264822z"/><g transform="translate(644)"><path d="m224.011199 654.5h436.529644v-435.735178c0-120.5443326-97.720489-218.264822-218.264822-218.264822s-218.264822 97.7204894-218.264822 218.264822z"/><path d="m.5 654.5h436.529644v-435.735178c0-120.5443326-97.720489-218.264822-218.264822-218.264822-120.5443326 0-218.264822 97.7204894-218.264822 218.264822z"/></g></g></svg>