<svg xmlns="http://www.w3.org/2000/svg" width="1955" height="131" viewBox="0 0 1955 131">
  <path fill="none" stroke="#FFF" stroke-width=".5" d="M53.965,130.432 C67.6883333,130.432 78.7565,126.9415 87.1695,119.9605 C95.5825,112.9795 99.789,103.880333 99.789,92.663 C99.789,81.4456667 96.5073333,72.9133333 89.944,67.066 C83.3806667,61.2186667 74.1621667,56.8331667 62.2885,53.9095 C50.4148333,50.9858333 42.8371667,48.45 39.5555,46.302 C36.2738333,44.154 34.633,41.2601667 34.633,37.6205 C34.633,33.9808333 35.9755,31.0571667 38.6605,28.8495 C41.3455,26.6418333 45.015,25.538 49.669,25.538 C61.2443333,25.538 72.4616667,29.655 83.321,37.889 L83.321,37.889 L97.462,17.483 C91.2566667,12.2323333 83.9773333,8.175 75.624,5.311 C67.2706667,2.447 58.9173333,1.015 50.564,1.015 C37.7953333,1.015 27.1448333,4.237 18.6125,10.681 C10.0801667,17.125 5.814,26.2838333 5.814,38.1575 C5.814,50.0311667 9.18516667,58.7425 15.9275,64.2915 C22.6698333,69.8405 33.3203333,74.3453333 47.879,77.806 C57.0676667,80.0733333 63.2133333,82.3108333 66.316,84.5185 C69.4186667,86.7261667 70.97,89.7095 70.97,93.4685 C70.97,97.2275 69.5081667,100.210833 66.5845,102.4185 C63.6608333,104.626167 59.6333333,105.73 54.502,105.73 C43.046,105.73 30.5756667,99.823 17.091,88.009 L17.091,88.009 L0.444,108.415 C16.3153333,123.093 34.1556667,130.432 53.965,130.432 Z M215.781,129 L215.781,104.298 L151.52,104.298 L151.52,78.343 L207.547,78.343 L207.547,54.536 L151.52,54.536 L151.52,28.76 L213.812,28.76 L213.812,3.879 L123.596,3.879 L123.596,129 L215.781,129 Z M299.4635,130.432 C318.735833,130.432 335.472333,122.436667 349.673,106.446 L349.673,106.446 L331.773,88.009 C323.061667,98.8683333 311.844333,104.298 298.121,104.298 C288.097,104.298 279.564667,100.777667 272.524,93.737 C265.483333,86.6963333 261.963,77.3585 261.963,65.7235 C261.963,54.0885 265.692167,44.8401667 273.1505,37.9785 C280.608833,31.1168333 289.588667,27.686 300.09,27.686 C313.216667,27.686 324.195333,33.1753333 333.026,44.154 L333.026,44.154 L350.389,24.464 C336.546333,8.83133333 319.362333,1.015 298.837,1.015 C280.459667,1.015 264.9165,7.22033333 252.2075,19.631 C239.4985,32.0416667 233.144,47.5251667 233.144,66.0815 C233.144,84.6378333 239.379167,100.002 251.8495,112.174 C264.319833,124.346 280.191167,130.432 299.4635,130.432 Z M423.6,130.253 C439.232667,130.253 452.061,125.390167 462.085,115.6645 C472.109,105.938833 477.121,92.0066667 477.121,73.868 L477.121,73.868 L477.121,3.879 L449.197,3.879 L449.197,72.973 C449.197,82.997 446.899833,90.9028333 442.3055,96.6905 C437.711167,102.478167 431.476,105.372 423.6,105.372 C415.724,105.372 409.459,102.508 404.805,96.78 C400.151,90.9326667 397.824,82.997 397.824,72.973 L397.824,72.973 L397.824,3.879 L369.9,3.879 L369.9,73.868 C369.9,91.8873333 374.941833,105.789667 385.0255,115.575 C395.109167,125.360333 407.967333,130.253 423.6,130.253 Z M534.043,129 L534.043,89.083 L553.375,89.083 L581.12,129 L615.488,129 L583.805,84.25 C599.676333,78.4026667 607.612,65.455 607.612,45.407 C607.612,30.8483333 603.465167,20.2873333 595.1715,13.724 C586.877833,7.16066667 573.005333,3.879 553.554,3.879 L553.554,3.879 L506.119,3.879 L506.119,129 L534.043,129 Z M554.449,64.918 L534.043,64.918 L534.043,27.865 L554.986,27.865 C563.936,27.865 570.201,29.118 573.781,31.624 C577.361,34.13 579.151,38.7541667 579.151,45.4965 C579.151,52.2388333 577.420667,57.1613333 573.96,60.264 C570.499333,63.3666667 563.995667,64.918 554.449,64.918 L554.449,64.918 Z M664.176,129 L664.176,3.879 L636.252,3.879 L636.252,129 L664.176,129 Z M747.948,129 L747.948,28.044 L783.39,28.044 L783.39,3.879 L684.582,3.879 L684.582,28.044 L720.024,28.044 L720.024,129 L747.948,129 Z M857.675,129 L857.675,79.596 L900.993,3.879 L870.742,3.879 L843.713,50.419 L816.684,3.879 L786.433,3.879 L829.751,79.596 L829.751,129 L857.675,129 Z M989.598,129 L989.598,94.095 L1006.245,94.095 C1024.74167,94.095 1038.49483,90.515 1047.5045,83.355 C1056.51417,76.195 1061.019,64.8881667 1061.019,49.4345 C1061.019,33.9808333 1056.6335,22.5248333 1047.8625,15.0665 C1039.0915,7.60816667 1025.09967,3.879 1005.887,3.879 L1005.887,3.879 L961.674,3.879 L961.674,129 L989.598,129 Z M1008.393,69.93 L989.598,69.93 L989.598,27.865 L1005.529,27.865 C1014.71767,27.865 1021.48983,29.3865 1025.8455,32.4295 C1030.20117,35.4725 1032.379,40.6038333 1032.379,47.8235 C1032.379,55.0431667 1030.70833,60.5325 1027.367,64.2915 C1024.02567,68.0505 1017.701,69.93 1008.393,69.93 L1008.393,69.93 Z M1164.123,129 L1164.123,104.119 L1110.781,104.119 L1110.781,3.879 L1082.857,3.879 L1082.857,129 L1164.123,129 Z M1197.954,129 L1209.589,101.971 L1262.036,101.971 L1273.671,129 L1303.385,129 L1249.327,3.879 L1222.298,3.879 L1168.24,129 L1197.954,129 Z M1251.475,77.448 L1220.15,77.448 L1235.902,41.111 L1251.475,77.448 Z M1370.868,129 L1370.868,28.044 L1406.31,28.044 L1406.31,3.879 L1307.502,3.879 L1307.502,28.044 L1342.944,28.044 L1342.944,129 L1370.868,129 Z M1454.64,129 L1454.64,79.954 L1509.772,79.954 L1509.772,55.431 L1454.64,55.431 L1454.64,28.402 L1512.636,28.402 L1512.636,3.879 L1426.716,3.879 L1426.716,129 L1454.64,129 Z M1594.797,130.253 C1613.29367,130.253 1628.86667,124.107333 1641.516,111.816 C1654.16533,99.4053333 1660.49,84.0113333 1660.49,65.634 C1660.49,47.2566667 1654.16533,31.8925 1641.516,19.5415 C1628.86667,7.1905 1613.29367,1.015 1594.797,1.015 C1576.30033,1.015 1560.72733,7.1905 1548.078,19.5415 C1535.42867,31.8925 1529.104,47.2566667 1529.104,65.634 C1529.104,84.0113333 1535.42867,99.3755 1548.078,111.7265 C1560.72733,124.0775 1576.30033,130.253 1594.797,130.253 Z M1594.8865,105.909 C1584.44483,105.909 1575.644,102.000833 1568.484,94.1845 C1561.324,86.3681667 1557.744,76.8811667 1557.744,65.7235 C1557.744,54.5658333 1561.324,45.049 1568.484,37.173 C1575.644,29.297 1584.44483,25.359 1594.8865,25.359 C1605.32817,25.359 1614.129,29.297 1621.289,37.173 C1628.449,45.049 1632.029,54.5956667 1632.029,65.813 C1632.029,76.911 1628.449,86.3681667 1621.289,94.1845 C1614.129,102.000833 1605.32817,105.909 1594.8865,105.909 Z M1712.042,129 L1712.042,89.083 L1731.374,89.083 L1759.119,129 L1793.487,129 L1761.804,84.25 C1777.67533,78.4026667 1785.611,65.455 1785.611,45.407 C1785.611,30.8483333 1781.46417,20.2873333 1773.1705,13.724 C1764.87683,7.16066667 1751.00433,3.879 1731.553,3.879 L1731.553,3.879 L1684.118,3.879 L1684.118,129 L1712.042,129 Z M1732.448,64.918 L1712.042,64.918 L1712.042,27.865 L1732.985,27.865 C1741.935,27.865 1748.2,29.118 1751.78,31.624 C1755.36,34.13 1757.15,38.7541667 1757.15,45.4965 C1757.15,52.2388333 1755.41967,57.1613333 1751.959,60.264 C1748.49833,63.3666667 1741.99467,64.918 1732.448,64.918 L1732.448,64.918 Z M1842.175,129 L1842.175,50.24 L1875.827,118.618 L1892.474,118.618 L1926.305,50.24 L1926.305,129 L1954.229,129 L1954.229,3.879 L1916.639,3.879 L1884.24,72.615 L1852.02,3.879 L1814.251,3.879 L1814.251,129 L1842.175,129 Z" opacity=".204"/>
</svg>
