<svg enable-background="new 0 0 39 40" viewBox="0 0 39 40" xmlns="http://www.w3.org/2000/svg"><path clip-rule="evenodd" d="m19.5 9.7c2 0 3.7 1.3 4.2 3.2h.6c4.7 0 8.6 3.5 9.2 8h2.1c.7 0 1.2.5 1.2 1.2 0 .6-.5 1.1-1 1.2h-.2-2v.8h1.2c1.9 0 3.5 1.5 3.6 3.4v.2c0 2-1.6 3.6-3.6 3.6h-1.2v3.6c0 2.4-1.9 4.3-4.2 4.4h-.2-19.3c-2.4 0-4.4-2-4.4-4.4v-3.6h-1.2c-1.9 0-3.5-1.5-3.6-3.4v-.2c0-2 1.6-3.6 3.6-3.6h1.2v-.8h-2c-.7 0-1.2-.5-1.2-1.2 0-.6.5-1.1 1-1.2h.2 2.1c.6-4.5 4.5-8 9.2-8h.6c.4-1.9 2.1-3.2 4.1-3.2zm11.7 13.6h-23.4v11.7c0 1 .8 1.9 1.8 2h.2 19.3c1.1 0 2-.9 2-2v-11.7zm3.6 3.2h-1.2v2.4h1.2c.7 0 1.2-.5 1.2-1.2 0-.6-.6-1.2-1.2-1.2zm-29.4 0h-1.2c-.6 0-1.1.5-1.2 1v.2c0 .7.5 1.2 1.2 1.2h1.2zm18.9-11.2h-9.6c-3.3 0-6.1 2.4-6.7 5.5v.1h23v-.4c-.7-2.9-3.2-5.1-6.3-5.2zm-4.8-3.2c-.6 0-1.2.3-1.6.7l-.1.1h3.2v-.1c-.3-.4-.8-.7-1.4-.7zm-8.6-8.3c.8 1.5.8 2.9.1 4.2l-.2.3c-.4.6-.4 1.2 0 1.9.3.6.1 1.3-.4 1.6s-1.3.2-1.6-.3c-.8-1.4-.8-2.9-.1-4.2l.1-.3c.4-.6.4-1.3 0-2-.3-.6-.1-1.3.5-1.6s1.3-.1 1.6.4zm19.3 0c.8 1.5.8 2.9.1 4.2l-.2.3c-.4.6-.4 1.2 0 1.9.3.6.1 1.3-.4 1.6s-1.3.1-1.6-.4c-.8-1.4-.8-2.8-.1-4.1l.1-.3c.4-.6.4-1.3 0-2-.3-.6-.1-1.3.5-1.6s1.3-.1 1.6.4zm-9.7-3.3c.9 1.2 1 2.5.1 3.7l-.2.2c-.3.3-.3.5 0 .9.4.5.3 1.3-.2 1.7s-1.3.3-1.7-.2c-.9-1.2-1-2.5-.1-3.7l.3-.3c.2-.3.2-.5-.1-.8-.4-.5-.3-1.3.3-1.7s1.2-.3 1.6.2z" fill="#be0e31" fill-rule="evenodd"/></svg>