<svg enable-background="new 0 0 39 39" viewBox="0 0 39 39" xmlns="http://www.w3.org/2000/svg"><path d="m19.3 24.9.6.6.1.2h3.5c1.8 0 3.3 1.4 3.4 3.1v.2.5c.3-.2.6-.4.8-.7l.2-.2 2.1-2.7c1.2-1.5 3.4-1.9 5-.8l.2.1c1.4 1.1 1.7 3.1.8 4.5l-.2.2-4.4 6.1c-1.1 1.4-2.7 2.2-4.4 2.3h-.3-23.3c-.7 0-1.2-.5-1.2-1.2v-9.6c0-.7.5-1.2 1.2-1.2h4.3l.5-.6c2.9-3.3 7.8-3.6 11.1-.8zm.2 7.6c-.7 0-1.2-.5-1.2-1.2 0-.6.5-1.1 1-1.2h.2 4.1c.5 0 1-.4 1-1 0-.5-.4-.9-.8-1h-.2-4.1c-.4 0-.7-.2-1-.5-.2-.3-.5-.6-.8-.9-2.2-1.9-5.5-1.7-7.5.3l-.2.2-.5.8v8h17.1c1 0 2-.4 2.7-1.2l.2-.2 4.5-5.9c.3-.4.2-1-.2-1.4h-.1c-.5-.3-1.2-.3-1.6.1l-.1.1-2.1 2.7c-1.1 1.3-2.6 2.2-4.3 2.3h-.4zm-12.5-3.8h-2.4v7.3h2.4zm12.5-28.1c2.4 0 4.4 2 4.4 4.4 0 .7-.2 1.4-.5 2 7 .4 12.7 5.8 13.3 12.8h.5c.7 0 1.2.5 1.2 1.2 0 .6-.5 1.1-1 1.2h-.2-35.4c-.7 0-1.2-.5-1.2-1.2 0-.6.5-1.1 1-1.2h.2.5c.6-7 6.3-12.5 13.3-12.8-.3-.6-.5-1.3-.5-2 0-2.4 2-4.4 4.4-4.4zm3.2 8.9h-6.4c-5.9 0-10.8 4.4-11.6 10.1v.3h29.6v-.3c-.8-5.6-5.5-9.9-11.2-10.1zm-3.2-6.5c-1.1 0-2 .9-2 2s.9 2 2 2 2-.9 2-2-.9-2-2-2z" fill="#be0e31"/></svg>